STARTFONT 2.3
FONT -FontForge-STIX Two Math-Book-R-Normal--18-180-72-72-P-123-ISO10646-1
SIZE 18 72 72  4
FONTBOUNDINGBOX 74 78 -18 -30
COMMENT "Generated by fontforge, http://fontforge.sourceforge.net"
COMMENT "Copyright 2001-2021 The STIX Fonts Project Authors (https://github.com/stipub/stixfonts)"
STARTPROPERTIES 41
FOUNDRY "FontForge"
FAMILY_NAME "STIX Two Math"
WEIGHT_NAME "Book"
SLANT "R"
SETWIDTH_NAME "Normal"
ADD_STYLE_NAME ""
PIXEL_SIZE 18
POINT_SIZE 180
RESOLUTION_X 72
RESOLUTION_Y 72
SPACING "P"
AVERAGE_WIDTH 123
CHARSET_REGISTRY "ISO10646"
CHARSET_ENCODING "1"
FONTNAME_REGISTRY ""
CHARSET_COLLECTIONS "ASCII ISOLatin1Encoding ISO8859-2 ISO8859-5 ISO8859-7 ISO8859-9 ISO8859-4 ISO10646-1"
BITS_PER_PIXEL 4
FONT_NAME "STIXTwoMath-Regular"
FACE_NAME "STIX Two Math Regular"
COPYRIGHT "Copyright 2001-2021 The STIX Fonts Project Authors (https://github.com/stipub/stixfonts)"
FONT_VERSION "2.12 b168a"
FONT_ASCENT 14
FONT_DESCENT 4
UNDERLINE_POSITION -2
UNDERLINE_THICKNESS 1
X_HEIGHT 8
CAP_HEIGHT 11
RAW_ASCENT 762
RAW_DESCENT 238
NORM_SPACE 4
RELATIVE_WEIGHT 40
RELATIVE_SETWIDTH 50
SUPERSCRIPT_X 0
SUPERSCRIPT_Y 9
SUPERSCRIPT_SIZE 9
SUBSCRIPT_X 0
SUBSCRIPT_Y 4
SUBSCRIPT_SIZE 9
FIGURE_WIDTH 9
AVG_LOWERCASE_WIDTH 88
AVG_UPPERCASE_WIDTH 122
ENDPROPERTIES
CHARS 6611
STARTCHAR space
ENCODING 32
SWIDTH 235 0
DWIDTH 4 0
BBX 1 1 0 0
BITMAP
00
ENDCHAR
STARTCHAR exclam
ENCODING 33
SWIDTH 283 0
DWIDTH 5 0
BBX 3 12 1 0
BITMAP
3E40
6F70
5F60
4F50
2F40
1F20
0F10
0D00
0800
0200
6F70
5E60
ENDCHAR
STARTCHAR quotedbl
ENCODING 34
SWIDTH 334 0
DWIDTH 6 0
BBX 6 4 0 9
BITMAP
1F77F2
1F46D0
1F06A0
1B0660
ENDCHAR
STARTCHAR numbersign
ENCODING 35
SWIDTH 702 0
DWIDTH 13 0
BBX 11 12 1 0
BITMAP
00088004C000
000B50069000
000D20096000
6BCFBBBECB70
003C000E1000
005A001E0000
0088003C0000
BBEDBBDEBB20
00C300880000
00E100A60000
02E000C40000
04B000E20000
ENDCHAR
STARTCHAR dollar
ENCODING 36
SWIDTH 495 0
DWIDTH 9 0
BBX 9 15 0 -2
BITMAP
0000C00000
02ABECA300
1E70C09C00
4F30C01B00
3F90C00300
0AFCC00000
008FFB2000
0003EFE500
0000C4EE10
4300C06F40
6800C04F30
6E40C0AC00
17DCEB8100
0000C00000
0000600000
ENDCHAR
STARTCHAR percent
ENCODING 37
SWIDTH 692 0
DWIDTH 12 0
BBX 12 12 0 0
BITMAP
019CB6004C40
09B01CCAAA00
1F300901D100
2F1028096000
1F31A23C0000
06CA40C30000
000006918CA1
00001C1AB137
0000862F3009
0002B04F0037
000B302F10A2
00590008DB40
ENDCHAR
STARTCHAR ampersand
ENCODING 38
SWIDTH 736 0
DWIDTH 13 0
BBX 13 12 0 0
BITMAP
0003BBC5000000
000E602E000000
001F500E000000
000DA098000000
0007FC60ADDD20
001AEA000CB100
03D47F400C2000
1E800DC0390000
5F4004F8A10000
6F4000AF700000
2FA0008EE40060
05CDBA418EB910
ENDCHAR
STARTCHAR quotesingle
ENCODING 39
SWIDTH 187 0
DWIDTH 3 0
BBX 3 4 0 9
BITMAP
1F70
1F40
1F00
1B00
ENDCHAR
STARTCHAR parenleft
ENCODING 40
SWIDTH 357 0
DWIDTH 6 0
BBX 6 18 0 -4
BITMAP
000001
000077
000A60
007A00
02F200
09C000
0D8000
1F6000
2F5000
3F5000
2F6000
0E7000
0AB000
04F100
00A700
001C30
0002A4
000004
ENDCHAR
STARTCHAR parenright
ENCODING 41
SWIDTH 357 0
DWIDTH 6 0
BBX 6 18 0 -4
BITMAP
100000
2A2000
02C200
003C10
000A80
0006E1
0002F4
0000F7
0000E9
0000D9
0000F8
0001F5
0004F1
0009A0
001D20
00B500
195000
220000
ENDCHAR
STARTCHAR asterisk
ENCODING 42
SWIDTH 410 0
DWIDTH 7 0
BBX 7 7 0 6
BITMAP
000C3000
000D4000
3D3A1B80
06AC9820
069C9820
3D3B2B80
000C4000
ENDCHAR
STARTCHAR plus
ENCODING 43
SWIDTH 720 0
DWIDTH 13 0
BBX 11 12 1 -1
BITMAP
000002000000
00003F200000
00003F200000
00003F200000
00003F200000
00003F200000
ABBBCFCBBBA0
00003F200000
00003F200000
00003F200000
00003F200000
00002D200000
ENDCHAR
STARTCHAR comma
ENCODING 44
SWIDTH 245 0
DWIDTH 4 0
BBX 3 5 1 -3
BITMAP
DE30
CF70
0840
3A00
5000
ENDCHAR
STARTCHAR hyphen
ENCODING 45
SWIDTH 315 0
DWIDTH 6 0
BBX 5 1 0 4
BITMAP
2BBBA0
ENDCHAR
STARTCHAR period
ENCODING 46
SWIDTH 245 0
DWIDTH 4 0
BBX 3 3 1 0
BITMAP
0100
BF20
AE20
ENDCHAR
STARTCHAR slash
ENCODING 47
SWIDTH 386 0
DWIDTH 7 0
BBX 7 15 0 -2
BITMAP
00000C20
00002D00
00007800
0000C300
0001D000
00069000
000B4000
001E0000
005A0000
00A50000
00E10000
04B00000
09600000
0D200000
3C000000
ENDCHAR
STARTCHAR zero
ENCODING 48
SWIDTH 495 0
DWIDTH 9 0
BBX 9 12 0 0
BITMAP
005CBC4000
05E204F400
0DA000BC00
3F60008F20
6F40006F50
7F30005F60
7F30005F50
6F40006F40
3F60008F20
0DA000BC00
06F304F400
006CBC4000
ENDCHAR
STARTCHAR one
ENCODING 49
SWIDTH 495 0
DWIDTH 9 0
BBX 7 12 1 0
BITMAP
159E5000
669F5000
004F5000
004F5000
004F5000
004F5000
004F5000
004F5000
004F5000
004F5000
006F8000
6DFFFD80
ENDCHAR
STARTCHAR two
ENCODING 50
SWIDTH 495 0
DWIDTH 9 0
BBX 9 12 0 0
BITMAP
008ADC4000
082008F400
150000FA00
000000EB00
000001F900
000006F200
00001E7000
0000BA0000
0009B00000
007B100430
06D3223C10
3FFFFFFD00
ENDCHAR
STARTCHAR three
ENCODING 51
SWIDTH 495 0
DWIDTH 9 0
BBX 7 12 1 0
BITMAP
07ACC400
74009F20
20005F40
00007D10
0005B200
01CFE700
0002AF70
00000CE0
000008E0
000009A0
86002C20
9EDA8100
ENDCHAR
STARTCHAR four
ENCODING 52
SWIDTH 495 0
DWIDTH 9 0
BBX 9 12 0 0
BITMAP
000009C000
00004FC000
0001BCC000
00094CC000
00490CC000
01C10CC000
0A400CC000
59000CC000
ACBBBEEB70
00000CC000
00000CC000
00000CC000
ENDCHAR
STARTCHAR five
ENCODING 53
SWIDTH 495 0
DWIDTH 9 0
BBX 7 12 1 0
BITMAP
04FFFFB0
07DDDD70
0A200000
0B000000
1FFD9200
2DEFFF40
00017FB0
000009E0
000006D0
00000790
98103C20
9EEC8100
ENDCHAR
STARTCHAR six
ENCODING 54
SWIDTH 495 0
DWIDTH 9 0
BBX 9 12 0 0
BITMAP
00005BA400
001BC20000
00BB000000
06E2000000
0CA7BC7000
0FD204E800
2F80009E00
2F70006F20
1F80006F20
0BC0007F00
04F501D800
004CCD8000
ENDCHAR
STARTCHAR seven
ENCODING 55
SWIDTH 495 0
DWIDTH 9 0
BBX 9 12 0 0
BITMAP
0AFFFFFF50
0DEDDDDF10
1A00005A00
110000B500
000002E000
0000089000
00001E3000
00006C0000
0000C70000
0004F10000
000AB00000
001F500000
ENDCHAR
STARTCHAR eight
ENCODING 56
SWIDTH 495 0
DWIDTH 9 0
BBX 8 12 0 0
BITMAP
008CCC60
09C102E5
0D8000B9
0CC000D6
06FB17A0
006FEA00
0057AFA1
079006F9
1F4000AE
2F50008F
0DB101CA
029CBC81
ENDCHAR
STARTCHAR nine
ENCODING 57
SWIDTH 495 0
DWIDTH 9 0
BBX 9 12 0 0
BITMAP
018DCC4000
09C105F300
1F6000DA00
3F40009E00
3F50008F10
1F70009F10
09E303EE00
008CB7BB00
000001E600
000009C000
0001AC2000
049B600000
ENDCHAR
STARTCHAR colon
ENCODING 58
SWIDTH 245 0
DWIDTH 4 0
BBX 3 10 1 0
BITMAP
0100
BF20
AE20
0000
0000
0000
0000
0100
BF20
AE20
ENDCHAR
STARTCHAR semicolon
ENCODING 59
SWIDTH 245 0
DWIDTH 4 0
BBX 3 13 1 -3
BITMAP
0100
BF20
AE20
0000
0000
0000
0000
0000
DE30
CF70
0840
3A00
5000
ENDCHAR
STARTCHAR less
ENCODING 60
SWIDTH 720 0
DWIDTH 13 0
BBX 11 11 1 -1
BITMAP
000000000470
00000004CE60
000005CE7100
0005CE710000
05DD71000000
5EE500000000
017EC5000000
00017EC50000
0000006DC500
000000006DA0
000000000030
ENDCHAR
STARTCHAR equal
ENCODING 61
SWIDTH 720 0
DWIDTH 13 0
BBX 11 5 1 2
BITMAP
ABBBBBBBBBA0
000000000000
000000000000
000000000000
ABBBBBBBBBA0
ENDCHAR
STARTCHAR greater
ENCODING 62
SWIDTH 720 0
DWIDTH 13 0
BBX 11 11 1 -1
BITMAP
740000000000
6EB400000000
017EC4000000
00017EC50000
0000017EC500
00000005FE50
000005CE7100
0005CD710000
05DD60000000
AD6000000000
300000000000
ENDCHAR
STARTCHAR question
ENCODING 63
SWIDTH 411 0
DWIDTH 7 0
BBX 7 12 0 0
BITMAP
05BBD910
3E102EA0
6F200BE0
2A100CC0
00001F50
00009B00
0003D100
00085000
00081000
00010000
003F8000
003E8000
ENDCHAR
STARTCHAR at
ENCODING 64
SWIDTH 905 0
DWIDTH 16 0
BBX 15 15 1 -3
BITMAP
000059CBB9400000
002C830004BA1000
03E400000009B000
0D6007CB3A40D600
5E008C10AF406C00
A901E4003F402F10
D705F1002F401F20
E607E0003F400F30
C708E0003F301F10
B906F1004F305C00
6E02F7019F40B500
1E705DC919DB6000
04E4000000000000
004D930000370000
00015ABBBA710000
ENDCHAR
STARTCHAR A
ENCODING 65
SWIDTH 718 0
DWIDTH 13 0
BBX 13 12 0 0
BITMAP
000003E0000000
00000AF6000000
00001CDC000000
0000867F400000
0000D12FB00000
0005900AF20000
000C2004F90000
003EBBBBFE1000
00A600007F7000
02D000001FE000
09A000000CF700
CFFA0000CFFFB0
ENDCHAR
STARTCHAR B
ENCODING 66
SWIDTH 618 0
DWIDTH 11 0
BBX 11 12 0 0
BITMAP
3AFFCCDC7000
00AF1007F800
009F1000ED00
009F1000EC00
009F1007F500
009FBCFC3000
009F1017E600
009F10009F30
009F10006F70
009F10008F60
00BF1003ED10
3BFFCCCD8100
ENDCHAR
STARTCHAR C
ENCODING 67
SWIDTH 670 0
DWIDTH 12 0
BBX 12 12 0 0
BITMAP
00029CBDFFF0
005E80003DF0
03F9000003F0
09F2000000C0
0ED000000000
1FC000000000
1FC000000000
0ED000000000
0AF200000000
03FA00000032
006F910006A0
0003ADCBA500
ENDCHAR
STARTCHAR D
ENCODING 68
SWIDTH 730 0
DWIDTH 13 0
BBX 13 12 0 0
BITMAP
3AFFCCDC930000
00AF1003BF7000
009F10000AF500
009F100002FC00
009F100000CF10
009F100000AF30
009F100000AF30
009F100000CF10
009F100001FC00
009F100008F500
00AF10018F7000
3AFFCCCC930000
ENDCHAR
STARTCHAR E
ENCODING 69
SWIDTH 626 0
DWIDTH 11 0
BBX 11 12 0 0
BITMAP
3AFFCCCDEF20
00AF10001B20
009F10000310
009F10009000
009F1003B000
009FBBCEB000
009F1001A000
009F10000010
009F100000A0
009F10000590
00AF10002C70
3AFFCCCDFF50
ENDCHAR
STARTCHAR F
ENCODING 70
SWIDTH 588 0
DWIDTH 11 0
BBX 11 12 0 0
BITMAP
3AFFDDDDEF40
00BF10001A40
009F10000220
009F1000A000
009F1003A000
009FBBCFA000
009F1001A000
009F10000000
009F10000000
009F10000000
00BF30000000
4DFFEB000000
ENDCHAR
STARTCHAR G
ENCODING 71
SWIDTH 720 0
DWIDTH 13 0
BBX 13 12 0 0
BITMAP
00029CBDFFF000
005E70003CF000
02E9000002F000
09F2000000C000
0ED00000000000
1FC00000000000
1FC00001CDDD40
0EE000000BF400
0BF2000008F200
04F9000008F200
008F81002CF100
0004ADCBC82000
ENDCHAR
STARTCHAR H
ENCODING 72
SWIDTH 777 0
DWIDTH 14 0
BBX 14 12 0 0
BITMAP
1CFFFC106DFFD7
007F600000DE00
005F400000CD00
005F400000CD00
005F400000CD00
005FCBBBBBED00
005F400000CD00
005F400000CD00
005F400000CD00
005F500000CD00
007F600000EE00
1CFFFC106DFFD7
ENDCHAR
STARTCHAR I
ENCODING 73
SWIDTH 357 0
DWIDTH 6 0
BBX 6 12 0 0
BITMAP
4DFFE9
00BF20
009F10
009F00
009F00
009F00
009F00
009F00
009F00
009F10
00BF20
4DFFE9
ENDCHAR
STARTCHAR J
ENCODING 74
SWIDTH 396 0
DWIDTH 7 0
BBX 7 12 0 0
BITMAP
04CFFE90
000AF400
0009F100
0008F100
0008F100
0008F100
0008F100
0008F100
0008F100
3109F100
EC0AD000
7ECB3000
ENDCHAR
STARTCHAR K
ENCODING 75
SWIDTH 702 0
DWIDTH 13 0
BBX 13 12 0 0
BITMAP
4DFFE908FFF900
00BF2000CC2000
009F1006B10000
009F006A000000
009F0790000000
009F8B00000000
009FAF70000000
009F19F8000000
009F008F900000
009F1008F90000
00BF2000CFA100
4DFFE908EFFE60
ENDCHAR
STARTCHAR L
ENCODING 76
SWIDTH 585 0
DWIDTH 11 0
BBX 11 12 0 0
BITMAP
3DFFE9000000
00BF40000000
009F10000000
009F10000000
009F10000000
009F10000000
009F10000000
009F10000000
009F10000410
009F10000B10
00AF10006E00
29FFDBBDFB00
ENDCHAR
STARTCHAR M
ENCODING 77
SWIDTH 895 0
DWIDTH 16 0
BBX 16 12 0 0
BITMAP
5DFF60000005FFD3
01DFD000000CFD00
00CCF400003DEB00
00C6FA000097DB00
00C1DF2001E1DB00
00C16F800690DB00
00C11EE00D30DB00
00C108F54C00DB00
00C102FBA500DB00
00C200AFD000DB00
00E4003F7001ED00
6DFE800C106DFFD3
ENDCHAR
STARTCHAR N
ENCODING 78
SWIDTH 742 0
DWIDTH 13 0
BBX 13 12 0 0
BITMAP
6EFD10004DFFB0
02EFB00000D700
00CEF70000A400
00C4EF4000A400
00C15FE100A400
00C108FB00A400
00C100BF80A400
00C1001DF4A400
00C10003EEC400
00C200005FF400
00E4000008F400
6DFE900000B400
ENDCHAR
STARTCHAR O
ENCODING 79
SWIDTH 738 0
DWIDTH 13 0
BBX 12 12 1 0
BITMAP
0039CBCB5000
05F70005EA00
3F9000006F70
9F2000000DE0
EE0000000AF4
FD00000008F5
FD00000008F5
EE00000009F3
AF3000000DD0
3F9000004F60
06F70003D900
003ACBBB5000
ENDCHAR
STARTCHAR P
ENCODING 80
SWIDTH 569 0
DWIDTH 10 0
BBX 10 12 0 0
BITMAP
1AFFCCDA50
00AF101AF5
009F1002FB
009F1000FB
009F1002F8
009F102BD1
009FBBB610
009F100000
009F100000
009F100000
00BF300000
2CFFEA0000
ENDCHAR
STARTCHAR Q
ENCODING 81
SWIDTH 737 0
DWIDTH 13 0
BBX 13 15 0 -3
BITMAP
00039CBCB50000
005F70005FA000
02F9000006F700
09F2000000EE00
0EE0000000AF30
1FC00000008F50
1FC00000008F50
0EE0000000AF30
0BF2000000DD00
04F9000004F600
008F70003D9000
0005BDCDC50000
0000008FC10000
0000000BFD4000
000000005ACDA0
ENDCHAR
STARTCHAR R
ENCODING 82
SWIDTH 659 0
DWIDTH 12 0
BBX 12 12 0 0
BITMAP
2AFFCBDB5000
00AF101AF500
009F1002FB00
009F1000FC00
009F1003F900
009F104DC100
009FBEE50000
009F13FB0000
009F107F9000
009F100BF600
00BF2002EE30
2CFFEA005FFC
ENDCHAR
STARTCHAR S
ENCODING 83
SWIDTH 504 0
DWIDTH 9 0
BBX 9 12 0 0
BITMAP
019CCEFC00
0BB001BD00
1F70002D00
1FC1000A00
09FD400000
008FFA2000
0003CFE500
000006FF20
5500007F70
5A00004F60
4F60009E10
3FFDCCA200
ENDCHAR
STARTCHAR T
ENCODING 84
SWIDTH 603 0
DWIDTH 11 0
BBX 11 12 0 0
BITMAP
8FDBDFCBDF70
96006F400870
A0006F400280
10006F400010
00006F400000
00006F400000
00006F400000
00006F400000
00006F400000
00006F400000
00008F600000
002CFFFC1000
ENDCHAR
STARTCHAR U
ENCODING 85
SWIDTH 752 0
DWIDTH 14 0
BBX 14 12 0 0
BITMAP
7EFFD6002DFFD2
01FE100000AA00
00DC0000008800
00DC0000008800
00DC0000008800
00DC0000008800
00DC0000008800
00DC0000008700
00CD0000008600
009F200000C200
002EB100089000
0003ADCBB60000
ENDCHAR
STARTCHAR V
ENCODING 86
SWIDTH 680 0
DWIDTH 12 0
BBX 14 12 -1 0
BITMAP
2DFFE80005DFE4
00CF7000004E20
004FB000008800
000CF20000D200
0006F80005A000
0000EE000B4000
00008F502C0000
00002FC0860000
00000AF2C10000
000004FB900000
000000CF300000
0000006B000000
ENDCHAR
STARTCHAR W
ENCODING 87
SWIDTH 944 0
DWIDTH 17 0
BBX 18 12 -1 0
BITMAP
2EFFE51DFFE7009FFC
00CF5000AF500009A0
004F90003F90000B40
000DE1000DE0001D00
0007F6000EF5005800
0001FC0059FB00B300
0000AF30B2AF21D000
00004F92B04F768000
00000DE9500DDB3000
000007FE0007FC0000
000001F90002F70000
000000A30000B20000
ENDCHAR
STARTCHAR X
ENCODING 88
SWIDTH 664 0
DWIDTH 12 0
BBX 12 12 0 0
BITMAP
8EFFD405EFE9
02DF40007D20
004FB001D200
0008F60A5000
0000DE780000
00003FE00000
00003EF60000
0001C2CE2000
000B503FC000
00890008F800
06E00002FF40
CFFC002CFFFB
ENDCHAR
STARTCHAR Y
ENCODING 89
SWIDTH 647 0
DWIDTH 12 0
BBX 13 12 -1 0
BITMAP
1DFFE9002DFF90
009FA00002E300
000CF300095000
0003FC003B0000
00008F60B20000
00000DE7800000
000004FD100000
000000EB000000
000000EB000000
000000EB000000
000001FD000000
00009EFFD60000
ENDCHAR
STARTCHAR Z
ENCODING 90
SWIDTH 594 0
DWIDTH 11 0
BBX 11 12 0 0
BITMAP
0BFDBBBCFE10
0C50000AF500
0B00005FA000
010001EE1000
00000BF50000
00006FA00000
0002EE100000
000BF5000000
006FA0000210
02EE10000A10
0CF500004D00
6FFBBBBDFB00
ENDCHAR
STARTCHAR bracketleft
ENCODING 91
SWIDTH 349 0
DWIDTH 6 0
BBX 5 18 1 -4
BITMAP
5DBB40
6F1000
6F1000
6F1000
6F1000
6F1000
6F1000
6F1000
6F1000
6F1000
6F1000
6F1000
6F1000
6F1000
6F1000
6F1000
6F1000
6FBB40
ENDCHAR
STARTCHAR backslash
ENCODING 92
SWIDTH 385 0
DWIDTH 7 0
BBX 7 15 0 -2
BITMAP
3C000000
0D100000
09600000
04B00000
00E10000
00A50000
005A0000
001E0000
000B4000
00069000
0001D000
0000C300
00007800
00002C00
00000C20
ENDCHAR
STARTCHAR bracketright
ENCODING 93
SWIDTH 349 0
DWIDTH 6 0
BBX 5 18 0 -4
BITMAP
1BBD90
000CA0
000CA0
000CA0
000CA0
000CA0
000CA0
000CA0
000CA0
000CA0
000CA0
000CA0
000CA0
000CA0
000CA0
000CA0
000CA0
1BBEA0
ENDCHAR
STARTCHAR asciicircum
ENCODING 94
SWIDTH 480 0
DWIDTH 9 0
BBX 8 7 0 6
BITMAP
0006F100
000DA800
005A1E10
00C30970
04C002D0
0B5000A6
3D00003D
ENDCHAR
STARTCHAR underscore
ENCODING 95
SWIDTH 512 0
DWIDTH 9 0
BBX 10 1 0 -2
BITMAP
BBBBBBBBB2
ENDCHAR
STARTCHAR grave
ENCODING 96
SWIDTH 222 0
DWIDTH 4 0
BBX 4 3 0 10
BITMAP
4F60
08C0
00A4
ENDCHAR
STARTCHAR a
ENCODING 97
SWIDTH 480 0
DWIDTH 9 0
BBX 9 9 0 0
BITMAP
019BDB2000
0BB01DA000
0D800AD000
010009E000
0038ACE000
08D309E000
3F5009E000
3F701AE010
09EB64EA30
ENDCHAR
STARTCHAR b
ENCODING 98
SWIDTH 522 0
DWIDTH 9 0
BBX 9 13 0 0
BITMAP
6BE0000000
2AE0000000
08E0000000
08E0000000
08E49CD500
08F6009F20
08E0002F80
08E0000FB0
08E0000EB0
08E0000F90
08E0003F40
08F300AA00
03BEBB7000
ENDCHAR
STARTCHAR c
ENCODING 99
SWIDTH 446 0
DWIDTH 8 0
BBX 8 9 0 0
BITMAP
006CCD70
07B109F4
1E4002B3
4F100000
6F100000
5F300000
2F900004
09F734B2
008EFC30
ENDCHAR
STARTCHAR d
ENCODING 100
SWIDTH 539 0
DWIDTH 10 0
BBX 10 13 0 0
BITMAP
000005BE00
000001AF00
0000008F00
0000008F00
004BCCCF00
05E301DF00
0E70008F00
4F40008F00
6F30008F00
5F30008F00
3F60008F00
0CD100AF00
02BEA9AE81
ENDCHAR
STARTCHAR e
ENCODING 101
SWIDTH 464 0
DWIDTH 8 0
BBX 8 9 0 0
BITMAP
007BCC40
089008E2
1F3001F8
4FCBBBD9
6F200000
4F400000
1FB00005
08FA33A4
007DFD40
ENDCHAR
STARTCHAR f
ENCODING 102
SWIDTH 307 0
DWIDTH 6 0
BBX 7 13 0 0
BITMAP
001ADE60
00B60A90
01F50000
02F50000
6CFDB600
02F50000
02F50000
02F50000
02F50000
02F50000
02F50000
04F70000
8EFFC200
ENDCHAR
STARTCHAR g
ENCODING 103
SWIDTH 484 0
DWIDTH 9 0
BBX 9 13 0 -4
BITMAP
019CDFEB60
0AC009F200
0F8003F600
0F9003F500
0AE208D100
01BBBA2000
0A50000000
2F93210000
09FFFFFA00
0A10003D50
7C00000940
8F30004A00
1AECA96000
ENDCHAR
STARTCHAR h
ENCODING 104
SWIDTH 577 0
DWIDTH 10 0
BBX 10 13 0 0
BITMAP
4AE4000000
16F4000000
03F4000000
03F4000000
03F57AE900
03FB103F50
03F4000E90
03F4000CA0
03F4000CA0
03F4000CA0
03F4000CA0
04F6000DB0
5EFE71DFFC
ENDCHAR
STARTCHAR i
ENCODING 105
SWIDTH 285 0
DWIDTH 5 0
BBX 5 12 0 0
BITMAP
03E600
04F700
001000
3AE500
04F500
02F500
02F500
02F500
02F500
02F500
04F600
5EFE70
ENDCHAR
STARTCHAR j
ENCODING 106
SWIDTH 263 0
DWIDTH 5 0
BBX 6 16 -2 -4
BITMAP
0005E5
0006F6
000010
004BE4
0004F4
0003F4
0003F4
0003F4
0003F4
0003F4
0003F4
0003F4
0003F4
0004F2
9D16C0
5DEB20
ENDCHAR
STARTCHAR k
ENCODING 107
SWIDTH 542 0
DWIDTH 10 0
BBX 10 13 0 0
BITMAP
4AE4000000
05F4000000
03F4000000
03F4000000
03F40AFFC1
03F403E400
03F43B2000
03F7C10000
03FCF60000
03F49F4000
03F40BE300
04F501CE30
5EFE73EFF8
ENDCHAR
STARTCHAR l
ENCODING 108
SWIDTH 283 0
DWIDTH 5 0
BBX 5 13 0 0
BITMAP
3AE400
16F400
03F400
03F400
03F400
03F400
03F400
03F400
03F400
03F400
03F400
04F600
5EFE80
ENDCHAR
STARTCHAR m
ENCODING 109
SWIDTH 852 0
DWIDTH 15 0
BBX 15 9 0 0
BITMAP
3AE57AEA17AEA000
03FC204FD303F600
02F5000F8000E900
02F5000F8000D900
02F5000F8000D900
02F5000F8000D900
02F5000F8000D900
03F6001F9001EB00
5EFE84DFFB2DFFB0
ENDCHAR
STARTCHAR n
ENCODING 110
SWIDTH 576 0
DWIDTH 10 0
BBX 10 9 0 0
BITMAP
3AE57AE900
03FB203F50
02F5000E90
02F5000DA0
02F5000DA0
02F5000DA0
02F5000DA0
04F6000EB0
5EFE82DFFC
ENDCHAR
STARTCHAR o
ENCODING 111
SWIDTH 514 0
DWIDTH 9 0
BBX 9 9 0 0
BITMAP
006CCD9100
07E201CC00
1F80005F50
4F50002F80
6F40000F90
4F50001F80
1F90004F40
08E300AB00
007DCC8100
ENDCHAR
STARTCHAR p
ENCODING 112
SWIDTH 537 0
DWIDTH 10 0
BBX 9 13 0 -4
BITMAP
39E48BE700
05F9005F60
04F3000DC0
04F3000AF0
04F30009F0
04F3000AD0
04F3000D80
04FA007D10
04FBDCA200
04F3000000
04F3000000
06F5000000
7EFFB00000
ENDCHAR
STARTCHAR q
ENCODING 113
SWIDTH 521 0
DWIDTH 9 0
BBX 10 13 0 -4
BITMAP
004BBC8D00
05D201DE00
0E60009E00
4F30008E00
6F30008E00
5F40008E00
3F80008E00
0BF635DE00
02BFD79E00
0000008E00
0000008E00
000000AF00
00003CFFD1
ENDCHAR
STARTCHAR r
ENCODING 114
SWIDTH 380 0
DWIDTH 7 0
BBX 7 9 0 0
BITMAP
29D46E80
16F99D90
02F90000
02F50000
02F50000
02F50000
02F50000
03F70000
6EFFC000
ENDCHAR
STARTCHAR s
ENCODING 115
SWIDTH 395 0
DWIDTH 7 0
BBX 7 9 0 0
BITMAP
05CBCB10
2F202E10
3F400810
1DF71000
02BFD400
0004DF40
45001F90
4C101E70
4ACBC800
ENDCHAR
STARTCHAR t
ENCODING 116
SWIDTH 315 0
DWIDTH 6 0
BBX 6 12 0 0
BITMAP
003100
00C200
07F200
3CFCB2
05F200
05F200
05F200
05F200
05F200
05F200
04F413
00BD91
ENDCHAR
STARTCHAR u
ENCODING 117
SWIDTH 570 0
DWIDTH 10 0
BBX 10 9 0 0
BITMAP
6CF204CE70
06F2002F70
05F2000F70
05F2000F70
05F2000F70
05F2000F70
05F3000F70
02F8008F70
006EC93EC5
ENDCHAR
STARTCHAR v
ENCODING 118
SWIDTH 481 0
DWIDTH 9 0
BBX 10 9 -1 0
BITMAP
3EFF702DFD
02FB0003C0
009F100860
004F600C10
000DC04900
0007F2A300
0001F8B000
0000AF6000
00004E0000
ENDCHAR
STARTCHAR w
ENCODING 119
SWIDTH 749 0
DWIDTH 13 0
BBX 15 9 -1 0
BITMAP
4EFF72EFF705EF90
02FA001EB0007900
009E1009E100B300
003F600CF601C000
000DC038CB066000
0007F3926F2B1000
0001F8A01F8A0000
0000AF500BF40000
00004E0005D00000
ENDCHAR
STARTCHAR x
ENCODING 120
SWIDTH 479 0
DWIDTH 9 0
BBX 9 9 0 0
BITMAP
AFFD17FF50
07F501D200
00BD194000
002EB70000
0008F50000
002BAE1000
01C21EB000
0A6006F700
DFC01DFF90
ENDCHAR
STARTCHAR y
ENCODING 121
SWIDTH 483 0
DWIDTH 9 0
BBX 10 13 -1 -4
BITMAP
3EFF702DFB
02FB0004B0
009F100850
003F800C00
000BE13900
0004F68300
0000CCB000
00005F7000
00000F1000
00003A0000
0000B40000
09A9A00000
09EB100000
ENDCHAR
STARTCHAR z
ENCODING 122
SWIDTH 458 0
DWIDTH 8 0
BBX 8 9 0 0
BITMAP
1FECCDF8
2C000DD1
26008F40
0003F900
000CD100
007F5000
03FA0019
0CE10088
5FECCDF7
ENDCHAR
STARTCHAR braceleft
ENCODING 123
SWIDTH 327 0
DWIDTH 6 0
BBX 6 18 0 -4
BITMAP
0029B1
00D700
03F100
04F100
03F300
01F400
00F500
00E300
399000
6C4000
01E100
00E400
01F400
02F300
03F200
03F100
01E600
004BB1
ENDCHAR
STARTCHAR bar
ENCODING 124
SWIDTH 267 0
DWIDTH 5 0
BBX 2 17 1 -4
BITMAP
2E
2E
2E
2E
2E
2E
2E
2E
2E
2E
2E
2E
2E
2E
2E
2E
2E
ENDCHAR
STARTCHAR braceright
ENCODING 125
SWIDTH 327 0
DWIDTH 6 0
BBX 6 18 0 -4
BITMAP
2B9100
009C00
003F20
003F20
004F10
006E00
006D00
004D00
000A82
0005D5
002D00
006D00
006E00
005F00
003F20
003F20
008D00
2BB300
ENDCHAR
STARTCHAR asciitilde
ENCODING 126
SWIDTH 557 0
DWIDTH 10 0
BBX 10 4 0 3
BITMAP
0000000010
05BBA634D3
3D1038CC50
0100000000
ENDCHAR
STARTCHAR uni00A0
ENCODING 160
SWIDTH 235 0
DWIDTH 4 0
BBX 1 1 0 0
BITMAP
00
ENDCHAR
STARTCHAR exclamdown
ENCODING 161
SWIDTH 282 0
DWIDTH 5 0
BBX 3 13 1 -4
BITMAP
5E60
6F70
0200
0700
0C00
0E10
0F20
1F30
3F40
4F50
5F70
6F70
3E40
ENDCHAR
STARTCHAR cent
ENCODING 162
SWIDTH 495 0
DWIDTH 9 0
BBX 8 13 0 -1
BITMAP
00008400
00008400
004ADEC2
03D194FA
0B70A287
0F50A100
2F40B100
1F70B000
0CC0C003
04F8C047
004BFB70
0000C000
00006000
ENDCHAR
STARTCHAR sterling
ENCODING 163
SWIDTH 495 0
DWIDTH 9 0
BBX 9 12 0 0
BITMAP
0002ACE800
001D207F30
006E000300
008F000000
008F200000
1BDFCB8000
004F500000
002F500000
001F300000
3BCF100050
B15FA00720
6CB6BDB400
ENDCHAR
STARTCHAR currency
ENCODING 164
SWIDTH 617 0
DWIDTH 11 0
BBX 11 10 0 0
BITMAP
1C2000001C20
07E8CBC8D900
00AB100AC000
01E10000E200
03C00000A500
03C00000A500
01E20001E200
00AC201BC000
09D6BBB6BA00
1A1000000920
ENDCHAR
STARTCHAR yen
ENCODING 165
SWIDTH 495 0
DWIDTH 9 0
BBX 9 12 0 0
BITMAP
CDDB02CDB0
2EF1005B00
07F7009300
01DE11B000
005F874000
000CEB0000
07BDFDB800
0004F60000
07BCFDB800
0004F60000
0006F80000
009EFFB000
ENDCHAR
STARTCHAR brokenbar
ENCODING 166
SWIDTH 267 0
DWIDTH 5 0
BBX 2 13 1 0
BITMAP
2E
2E
2E
2E
2E
00
00
00
2E
2E
2E
2E
2E
ENDCHAR
STARTCHAR section
ENCODING 167
SWIDTH 491 0
DWIDTH 9 0
BBX 7 16 1 -4
BITMAP
03BBC500
0D300E10
2F102F30
0EA00400
05FB1000
04AFC100
3805FB00
78005F40
6E300970
1DE30840
03EE8500
002CE200
2401CB00
9A004E00
79006B00
09BBA200
ENDCHAR
STARTCHAR dieresis
ENCODING 168
SWIDTH 392 0
DWIDTH 7 0
BBX 7 2 0 10
BITMAP
4F605F50
4E505E50
ENDCHAR
STARTCHAR copyright
ENCODING 169
SWIDTH 781 0
DWIDTH 14 0
BBX 12 13 1 0
BITMAP
000489984000
019610006910
0A20000002A0
560199AB9055
A10B7005A00A
A01F3000800A
A03F2000000A
A01F4000000A
A10AC101500A
56018CB91055
0A20000002A0
019610016910
000489984000
ENDCHAR
STARTCHAR ordfeminine
ENCODING 170
SWIDTH 410 0
DWIDTH 7 0
BBX 8 7 0 5
BITMAP
06A9C400
0F408C00
02008D00
02A89D00
2F206D00
5F319E11
1CEB5EB0
ENDCHAR
STARTCHAR guillemotleft
ENCODING 171
SWIDTH 517 0
DWIDTH 9 0
BBX 9 8 0 0
BITMAP
0005500820
005B008800
05D108B000
4F507F2000
1BB02D8000
01B702D400
000A401B10
0000200110
ENDCHAR
STARTCHAR logicalnot
ENCODING 172
SWIDTH 720 0
DWIDTH 13 0
BBX 11 6 1 2
BITMAP
ABBBBBBBBD60
000000000C70
000000000C70
000000000C70
000000000C70
000000000A60
ENDCHAR
STARTCHAR uni00AD
ENCODING 173
SWIDTH 315 0
DWIDTH 6 0
BBX 5 1 0 4
BITMAP
2BBBA0
ENDCHAR
STARTCHAR registered
ENCODING 174
SWIDTH 413 0
DWIDTH 7 0
BBX 7 7 0 7
BITMAP
00566200
07855620
3474A170
527A9060
34757370
07100630
00566200
ENDCHAR
STARTCHAR macron
ENCODING 175
SWIDTH 350 0
DWIDTH 6 0
BBX 6 1 0 10
BITMAP
5BBBB9
ENDCHAR
STARTCHAR degree
ENCODING 176
SWIDTH 409 0
DWIDTH 7 0
BBX 6 6 1 7
BITMAP
19BB30
A702D1
E000A5
E000A5
A702D1
19BB30
ENDCHAR
STARTCHAR plusminus
ENCODING 177
SWIDTH 720 0
DWIDTH 13 0
BBX 11 12 1 0
BITMAP
000019100000
00002F100000
00002F100000
00002F100000
00002F100000
ABBBCFCBBBA0
00002F100000
00002F100000
00002F100000
00002F100000
000001000000
ABBBBBBBBBA0
ENDCHAR
STARTCHAR twosuperior
ENCODING 178
SWIDTH 373 0
DWIDTH 7 0
BBX 7 8 0 5
BITMAP
06DEB300
4612CC00
00008D00
0000B600
00078000
00760010
09733940
7FFFFF10
ENDCHAR
STARTCHAR threesuperior
ENCODING 179
SWIDTH 374 0
DWIDTH 7 0
BBX 6 8 0 5
BITMAP
07DEB2
2613D7
0003A2
00BFA2
0002BC
00004F
14007B
4ECA81
ENDCHAR
STARTCHAR acute
ENCODING 180
SWIDTH 222 0
DWIDTH 4 0
BBX 4 3 0 10
BITMAP
06F4
0C80
4A00
ENDCHAR
STARTCHAR uni00B5
ENCODING 181
SWIDTH 556 0
DWIDTH 10 0
BBX 10 13 0 -4
BITMAP
0AF0006F20
0AD0007F00
0AB0007D00
0A90007A00
0A7000A800
096000E700
0A9006A900
0CE55C4E47
0E6DD30DD4
1F30000000
2F40000000
2F50000000
2B30000000
ENDCHAR
STARTCHAR paragraph
ENCODING 182
SWIDTH 605 0
DWIDTH 11 0
BBX 9 15 1 -3
BITMAP
07CCFBFE70
6D15D0F400
D905D0F300
F805D0F300
E905D0F300
AC05D0F300
2C86D0F300
0049D0F300
0005D0F300
0005D0F300
0005D0F300
0005D0F300
0005D0F300
0008D0F500
008BA0BB70
ENDCHAR
STARTCHAR periodcentered
ENCODING 183
SWIDTH 282 0
DWIDTH 5 0
BBX 3 3 1 4
BITMAP
0200
6F70
5E60
ENDCHAR
STARTCHAR cedilla
ENCODING 184
SWIDTH 247 0
DWIDTH 4 0
BBX 4 4 0 -4
BITMAP
0610
08C7
004D
2AC5
ENDCHAR
STARTCHAR onesuperior
ENCODING 185
SWIDTH 343 0
DWIDTH 6 0
BBX 6 8 0 5
BITMAP
18CC00
008C00
008C00
008C00
008C00
008C00
008C00
18DF93
ENDCHAR
STARTCHAR ordmasculine
ENCODING 186
SWIDTH 432 0
DWIDTH 8 0
BBX 8 7 0 5
BITMAP
02BBB910
1D700AA0
5F1005F1
6F0003F3
4F1004F1
1D7009B0
02BBB910
ENDCHAR
STARTCHAR guillemotright
ENCODING 187
SWIDTH 517 0
DWIDTH 9 0
BBX 8 8 1 0
BITMAP
91018000
4B106900
07C10A90
00CC01E9
03E506E3
1D403D20
A401B200
20012000
ENDCHAR
STARTCHAR onequarter
ENCODING 188
SWIDTH 861 0
DWIDTH 16 0
BBX 15 14 0 0
BITMAP
0000000000020000
0376000000590000
26D9000000C10000
00B9000007700000
00B900002C000000
00B90000A4000100
00B90004A0009B00
00BA000C2005DB00
18BB8078002A8B00
000001C100B28B00
0000095008608B00
00003B001DBBDEB0
0000C20000008B00
0004800000004600
ENDCHAR
STARTCHAR onehalf
ENCODING 189
SWIDTH 889 0
DWIDTH 16 0
BBX 16 15 0 -1
BITMAP
0000000000020000
03760000004A0000
27D9000000C20000
00B9000006800000
00B900001C100000
00B9000086000000
00B90002C03CED40
00BA000B407209E1
18BB804A000004F2
000000C2000007D0
0000068000002D40
00001C100003C402
00008600003C2037
0002C00001DCBBD3
0003200000000000
ENDCHAR
STARTCHAR threequarters
ENCODING 190
SWIDTH 861 0
DWIDTH 16 0
BBX 15 14 0 0
BITMAP
0000000000020000
03AC800000590000
2701E60000C10000
0000C60007700000
0006A1002C000000
00CFA300A4000000
0001AC04A0006900
27109B0C2003CB00
3CC9717800188B00
000001C100A28B00
0000095007608B00
00003B001DBBDEB0
0000C20000008B00
0004800000004600
ENDCHAR
STARTCHAR questiondown
ENCODING 191
SWIDTH 411 0
DWIDTH 7 0
BBX 7 13 0 -4
BITMAP
002E9000
002FA000
00010000
00051000
000B1000
004C0000
01D50000
09C00000
2F600000
6F3009A0
6F3009D0
2F900890
04BCB910
ENDCHAR
STARTCHAR Agrave
ENCODING 192
SWIDTH 718 0
DWIDTH 13 0
BBX 13 16 0 0
BITMAP
00004830000000
00001BE1000000
0000007B000000
00000000000000
000003E0000000
00000AF6000000
00001CDC000000
0000867F400000
0000D12FB00000
0005900AF20000
000C2004F90000
003EBBBBFE1000
00A600007F7000
02D000001FE000
09A000000CF700
CFFA0000CFFFB0
ENDCHAR
STARTCHAR Aacute
ENCODING 193
SWIDTH 718 0
DWIDTH 13 0
BBX 13 16 0 0
BITMAP
00000058300000
000004F8000000
00001C40000000
00000000000000
000003E0000000
00000AF6000000
00001CDC000000
0000867F400000
0000D12FB00000
0005900AF20000
000C2004F90000
003EBBBBFE1000
00A600007F7000
02D000001FE000
09A000000CF700
CFFA0000CFFFB0
ENDCHAR
STARTCHAR Acircumflex
ENCODING 194
SWIDTH 718 0
DWIDTH 13 0
BBX 13 16 0 0
BITMAP
00000382000000
00002EBC000000
0001B406900000
00000000000000
000003E0000000
00000AF6000000
00001CDC000000
0000867F400000
0000D12FB00000
0005900AF20000
000C2004F90000
003EBBBBFE1000
00A600007F7000
02D000001FE000
09A000000CF700
CFFA0000CFFFB0
ENDCHAR
STARTCHAR Atilde
ENCODING 195
SWIDTH 718 0
DWIDTH 13 0
BBX 13 15 0 0
BITMAP
00008C93630000
0004318C800000
00000000000000
000003E0000000
00000AF6000000
00001CDC000000
0000867F400000
0000D12FB00000
0005900AF20000
000C2004F90000
003EBBBBFE1000
00A600007F7000
02D000001FE000
09A000000CF700
CFFA0000CFFFB0
ENDCHAR
STARTCHAR Adieresis
ENCODING 196
SWIDTH 718 0
DWIDTH 13 0
BBX 13 15 0 0
BITMAP
0007F307F30000
0006E307E30000
00000000000000
000003E0000000
00000AF6000000
00001CDC000000
0000867F400000
0000D12FB00000
0005900AF20000
000C2004F90000
003EBBBBFE1000
00A600007F7000
02D000001FE000
09A000000CF700
CFFA0000CFFFB0
ENDCHAR
STARTCHAR Aring
ENCODING 197
SWIDTH 718 0
DWIDTH 13 0
BBX 13 17 0 0
BITMAP
000009B7000000
0000670B200000
0000670B200000
000019B7000000
00000000000000
000003E0000000
00000AF6000000
00001CDC000000
0000867F400000
0000D12FB00000
0005900AF20000
000C2004F90000
003EBBBBFE1000
00A600007F7000
02D000001FE000
09A000000CF700
CFFA0000CFFFB0
ENDCHAR
STARTCHAR AE
ENCODING 198
SWIDTH 894 0
DWIDTH 16 0
BBX 17 12 -1 0
BITMAP
0000008FFFCCCDFE00
0000000D9F10003E00
000000678F10000A00
000001D18F10000000
000008708F10019000
00002D108F10059000
0000ADBBDFCBCF9000
0003E1008F10039000
000C50008F10000140
005B00009F10000660
02D50000AF10002E40
5EFE604CFFCCCDFF20
ENDCHAR
STARTCHAR Ccedilla
ENCODING 199
SWIDTH 670 0
DWIDTH 12 0
BBX 12 16 0 -4
BITMAP
00029CBDFFF0
005E80003DF0
03F9000003F0
09F2000000C0
0ED000000000
1FC000000000
1FC000000000
0ED000000000
0AF200000000
03FA00000032
006F910006A0
0003ADCBA500
000003400000
000006C90000
0000001F1000
000019C70000
ENDCHAR
STARTCHAR Egrave
ENCODING 200
SWIDTH 626 0
DWIDTH 11 0
BBX 11 16 0 0
BITMAP
000186000000
00007F600000
000003C30000
000000000000
3AFFCCCDEF20
00AF10001B20
009F10000310
009F10009000
009F1003B000
009FBBCEB000
009F1001A000
009F10000010
009F100000A0
009F10000590
00AF10002C70
3AFFCCCDFF50
ENDCHAR
STARTCHAR Eacute
ENCODING 201
SWIDTH 626 0
DWIDTH 11 0
BBX 11 16 0 0
BITMAP
000002850000
00000CC20000
000098000000
000000000000
3AFFCCCDEF20
00AF10001B20
009F10000310
009F10009000
009F1003B000
009FBBCEB000
009F1001A000
009F10000010
009F100000A0
009F10000590
00AF10002C70
3AFFCCCDFF50
ENDCHAR
STARTCHAR Ecircumflex
ENCODING 202
SWIDTH 626 0
DWIDTH 11 0
BBX 11 16 0 0
BITMAP
000017500000
0000ACE40000
0007802B2000
000000000000
3AFFCCCDEF20
00AF10001B20
009F10000310
009F10009000
009F1003B000
009FBBCEB000
009F1001A000
009F10000010
009F100000A0
009F10000590
00AF10002C70
3AFFCCCDFF50
ENDCHAR
STARTCHAR Edieresis
ENCODING 203
SWIDTH 626 0
DWIDTH 11 0
BBX 11 15 0 0
BITMAP
002E902E9000
001E902E8000
000000000000
3AFFCCCDEF20
00AF10001B20
009F10000310
009F10009000
009F1003B000
009FBBCEB000
009F1001A000
009F10000010
009F100000A0
009F10000590
00AF10002C70
3AFFCCCDFF50
ENDCHAR
STARTCHAR Igrave
ENCODING 204
SWIDTH 357 0
DWIDTH 6 0
BBX 6 16 0 0
BITMAP
058200
02CC00
000890
000000
4DFFE9
00BF20
009F10
009F00
009F00
009F00
009F00
009F00
009F00
009F10
00BF20
4DFFE9
ENDCHAR
STARTCHAR Iacute
ENCODING 205
SWIDTH 357 0
DWIDTH 6 0
BBX 6 16 0 0
BITMAP
000681
006F70
03C300
000000
4DFFE9
00BF20
009F10
009F00
009F00
009F00
009F00
009F00
009F00
009F10
00BF20
4DFFE9
ENDCHAR
STARTCHAR Icircumflex
ENCODING 206
SWIDTH 357 0
DWIDTH 6 0
BBX 6 16 0 0
BITMAP
005710
04ECA0
2B2087
000000
4DFFE9
00BF20
009F10
009F00
009F00
009F00
009F00
009F00
009F00
009F10
00BF20
4DFFE9
ENDCHAR
STARTCHAR Idieresis
ENCODING 207
SWIDTH 357 0
DWIDTH 6 0
BBX 7 15 0 0
BITMAP
9E209E10
8E209E10
00000000
4DFFE900
00BF2000
009F1000
009F0000
009F0000
009F0000
009F0000
009F0000
009F0000
009F1000
00BF2000
4DFFE900
ENDCHAR
STARTCHAR Eth
ENCODING 208
SWIDTH 737 0
DWIDTH 13 0
BBX 13 12 0 0
BITMAP
2AFFCCDD930000
009F2002AF8000
008F20000AF600
008F200002FE00
008F200000CF30
3BDFCBB200AF50
008F200000AF40
008F200000BF30
008F200001ED00
008F200007F600
009F20017F8000
3AFFCCCD930000
ENDCHAR
STARTCHAR Ntilde
ENCODING 209
SWIDTH 742 0
DWIDTH 13 0
BBX 13 15 0 0
BITMAP
00004BB5370000
0000704BB20000
00000000000000
6EFD10004DFFB0
02EFB00000D700
00CEF70000A400
00C4EF4000A400
00C15FE100A400
00C108FB00A400
00C100BF80A400
00C1001DF4A400
00C10003EEC400
00C200005FF400
00E4000008F400
6DFE900000B400
ENDCHAR
STARTCHAR Ograve
ENCODING 210
SWIDTH 738 0
DWIDTH 13 0
BBX 12 16 1 0
BITMAP
000285000000
00008F400000
000004C10000
000000000000
0039CBCB5000
05F70005EA00
3F9000006F70
9F2000000DE0
EE0000000AF4
FD00000008F5
FD00000008F5
EE00000009F3
AF3000000DD0
3F9000004F60
06F70003D900
003ACBBB5000
ENDCHAR
STARTCHAR Oacute
ENCODING 211
SWIDTH 738 0
DWIDTH 13 0
BBX 12 16 1 0
BITMAP
000003850000
00001DB20000
0000A7000000
000000000000
0039CBCB5000
05F70005EA00
3F9000006F70
9F2000000DE0
EE0000000AF4
FD00000008F5
FD00000008F5
EE00000009F3
AF3000000DD0
3F9000004F60
06F70003D900
003ACBBB5000
ENDCHAR
STARTCHAR Ocircumflex
ENCODING 212
SWIDTH 738 0
DWIDTH 13 0
BBX 12 16 1 0
BITMAP
000017400000
0000CBE20000
0009603B1000
000000000000
0039CBCB5000
05F70005EA00
3F9000006F70
9F2000000DE0
EE0000000AF4
FD00000008F5
FD00000008F5
EE00000009F3
AF3000000DD0
3F9000004F60
06F70003D900
003ACBBB5000
ENDCHAR
STARTCHAR Otilde
ENCODING 213
SWIDTH 738 0
DWIDTH 13 0
BBX 12 15 1 0
BITMAP
0006CA436000
001606CA1000
000000000000
0039CBCB5000
05F70005EA00
3F9000006F70
9F2000000DE0
EE0000000AF4
FD00000008F5
FD00000008F5
EE00000009F3
AF3000000DD0
3F9000004F60
06F70003D900
003ACBBB5000
ENDCHAR
STARTCHAR Odieresis
ENCODING 214
SWIDTH 738 0
DWIDTH 13 0
BBX 12 15 1 0
BITMAP
003F703F7000
003E703E6000
000000000000
0039CBCB5000
05F70005EA00
3F9000006F70
9F2000000DE0
EE0000000AF4
FD00000008F5
FD00000008F5
EE00000009F3
AF3000000DD0
3F9000004F60
06F70003D900
003ACBBB5000
ENDCHAR
STARTCHAR multiply
ENCODING 215
SWIDTH 720 0
DWIDTH 13 0
BBX 11 11 1 -1
BITMAP
260000000620
4E7000007E30
04E70008E400
004F708E4000
0004FBE40000
0000AF900000
0008E7E70000
008E404E7000
07E40004E700
5E4000004E50
030000000300
ENDCHAR
STARTCHAR Oslash
ENCODING 216
SWIDTH 737 0
DWIDTH 13 0
BBX 13 12 0 0
BITMAP
00039CBCB4A200
006F70006FB000
03F900003DF600
0AF20002B1EE00
0EE0000B20BF30
1FC00094009F50
1FD00670008F40
0EE0490000AF30
0AF4B10000DD00
04FE200004F600
00CF70003D9000
0673ACBBB40000
ENDCHAR
STARTCHAR Ugrave
ENCODING 217
SWIDTH 752 0
DWIDTH 14 0
BBX 14 16 0 0
BITMAP
00000682000000
000003CC000000
00000009800000
00000000000000
7EFFD6002DFFD2
01FE100000AA00
00DC0000008800
00DC0000008800
00DC0000008800
00DC0000008800
00DC0000008800
00DC0000008700
00CD0000008600
009F200000C200
002EB100089000
0003ADCBB60000
ENDCHAR
STARTCHAR Uacute
ENCODING 218
SWIDTH 752 0
DWIDTH 14 0
BBX 14 16 0 0
BITMAP
00000006810000
0000006E600000
000003C2000000
00000000000000
7EFFD6002DFFD2
01FE100000AA00
00DC0000008800
00DC0000008800
00DC0000008800
00DC0000008800
00DC0000008800
00DC0000008700
00CD0000008600
009F200000C200
002EB100089000
0003ADCBB60000
ENDCHAR
STARTCHAR Ucircumflex
ENCODING 219
SWIDTH 752 0
DWIDTH 14 0
BBX 14 16 0 0
BITMAP
00000057100000
000004ECA00000
00002B20860000
00000000000000
7EFFD6002DFFD2
01FE100000AA00
00DC0000008800
00DC0000008800
00DC0000008800
00DC0000008800
00DC0000008800
00DC0000008700
00CD0000008600
009F200000C200
002EB100089000
0003ADCBB60000
ENDCHAR
STARTCHAR Udieresis
ENCODING 220
SWIDTH 752 0
DWIDTH 14 0
BBX 14 15 0 0
BITMAP
00009E10AE1000
00009E109D1000
00000000000000
7EFFD6002DFFD2
01FE100000AA00
00DC0000008800
00DC0000008800
00DC0000008800
00DC0000008800
00DC0000008800
00DC0000008700
00CD0000008600
009F200000C200
002EB100089000
0003ADCBB60000
ENDCHAR
STARTCHAR Yacute
ENCODING 221
SWIDTH 647 0
DWIDTH 12 0
BBX 13 16 -1 0
BITMAP
00000007810000
0000007E600000
000004C2000000
00000000000000
1DFFE9002DFF90
009FA00002E300
000CF300095000
0003FC003B0000
00008F60B20000
00000DE7800000
000004FD100000
000000EB000000
000000EB000000
000000EB000000
000001FD000000
00009EFFD60000
ENDCHAR
STARTCHAR Thorn
ENCODING 222
SWIDTH 572 0
DWIDTH 10 0
BBX 10 12 0 0
BITMAP
4DFFEB0000
00BF300000
009FBCC830
009F002CF3
009F0004FA
009F0002FB
009F0004F8
009F002CD1
009FBBB610
009F100000
00BF300000
4DFFEB0000
ENDCHAR
STARTCHAR germandbls
ENCODING 223
SWIDTH 563 0
DWIDTH 10 0
BBX 10 13 0 0
BITMAP
001999C600
00A8004F40
01F5001F70
02F5004F30
5CF517A400
02F52C9300
02F5006F60
02F50009F2
02F50004F7
02F50002F8
02F53302F6
03F5BD06E1
5DF54DAA30
ENDCHAR
STARTCHAR agrave
ENCODING 224
SWIDTH 480 0
DWIDTH 9 0
BBX 9 13 0 0
BITMAP
009F100000
001C700000
0002C00000
0000000000
019BDB2000
0BB01DA000
0D800AD000
010009E000
0038ACE000
08D309E000
3F5009E000
3F701AE010
09EB64EA30
ENDCHAR
STARTCHAR aacute
ENCODING 225
SWIDTH 480 0
DWIDTH 9 0
BBX 9 13 0 0
BITMAP
0000CD1000
0003E30000
0009500000
0000000000
019BDB2000
0BB01DA000
0D800AD000
010009E000
0038ACE000
08D309E000
3F5009E000
3F701AE010
09EB64EA30
ENDCHAR
STARTCHAR acircumflex
ENCODING 226
SWIDTH 480 0
DWIDTH 9 0
BBX 9 13 0 0
BITMAP
000BE20000
006B7B0000
02B1075000
0000000000
019BDB2000
0BB01DA000
0D800AD000
010009E000
0038ACE000
08D309E000
3F5009E000
3F701AE010
09EB64EA30
ENDCHAR
STARTCHAR atilde
ENCODING 227
SWIDTH 480 0
DWIDTH 9 0
BBX 9 12 0 0
BITMAP
01AC738000
0612AC5000
0000000000
019BDB2000
0BB01DA000
0D800AD000
010009E000
0038ACE000
08D309E000
3F5009E000
3F701AE010
09EB64EA30
ENDCHAR
STARTCHAR adieresis
ENCODING 228
SWIDTH 480 0
DWIDTH 9 0
BBX 9 12 0 0
BITMAP
0AE10BE100
09D10AD100
0000000000
019BDB2000
0BB01DA000
0D800AD000
010009E000
0038ACE000
08D309E000
3F5009E000
3F701AE010
09EB64EA30
ENDCHAR
STARTCHAR aring
ENCODING 229
SWIDTH 480 0
DWIDTH 9 0
BBX 9 14 0 0
BITMAP
002AB40000
00941C0000
00941C0000
002BB50000
0000000000
019BDB2000
0BB01DA000
0D800AD000
010009E000
0038ACE000
08D309E000
3F5009E000
3F701AE010
09EB64EA30
ENDCHAR
STARTCHAR ae
ENCODING 230
SWIDTH 709 0
DWIDTH 13 0
BBX 13 9 0 0
BITMAP
03BBD92ABD8000
0E901EF302E700
08400CC000AE00
00016DEBBBCD10
019B5CB0000000
0C900BD0000000
4F4009F3000410
3F702BFD537900
08EA704CFE8000
ENDCHAR
STARTCHAR ccedilla
ENCODING 231
SWIDTH 446 0
DWIDTH 8 0
BBX 8 13 0 -4
BITMAP
006CCD70
07B109F4
1E4002B3
4F100000
6F100000
5F300000
2F900004
0AF734B2
01AEFC30
00035000
0005CA00
00000E20
0019C900
ENDCHAR
STARTCHAR egrave
ENCODING 232
SWIDTH 464 0
DWIDTH 8 0
BBX 8 13 0 0
BITMAP
006F4000
0009B000
0000B200
00000000
007BCC40
089008E2
1F3001F8
4FCBBBD9
6F200000
4F400000
1FB00005
08FA33A4
007DFD40
ENDCHAR
STARTCHAR eacute
ENCODING 233
SWIDTH 464 0
DWIDTH 8 0
BBX 8 13 0 0
BITMAP
00009F30
0001E500
00068000
00000000
007BCC40
089008E2
1F3001F8
4FCBBBD9
6F200000
4F400000
1FB00005
08FA33A4
007DFD40
ENDCHAR
STARTCHAR ecircumflex
ENCODING 234
SWIDTH 464 0
DWIDTH 8 0
BBX 8 13 0 0
BITMAP
0008F400
003D6D10
00B20480
00000000
007BCC40
089008E2
1F3001F8
4FCBBBD9
6F200000
4F400000
1FB00005
08FA33A4
007DFD40
ENDCHAR
STARTCHAR edieresis
ENCODING 235
SWIDTH 464 0
DWIDTH 8 0
BBX 8 12 0 0
BITMAP
07F408F3
06E307E2
00000000
007BCC40
089008E2
1F3001F8
4FCBBBD9
6F200000
4F400000
1FB00005
08FA33A4
007DFD40
ENDCHAR
STARTCHAR igrave
ENCODING 236
SWIDTH 285 0
DWIDTH 5 0
BBX 5 13 0 0
BITMAP
8F3000
0B9000
01C100
000000
3AE500
04F500
02F500
02F500
02F500
02F500
02F500
04F600
5EFE70
ENDCHAR
STARTCHAR iacute
ENCODING 237
SWIDTH 285 0
DWIDTH 5 0
BBX 5 13 0 0
BITMAP
00AE20
02F400
086000
000000
3AE500
04F500
02F500
02F500
02F500
02F500
02F500
04F600
5EFE70
ENDCHAR
STARTCHAR icircumflex
ENCODING 238
SWIDTH 285 0
DWIDTH 5 0
BBX 5 13 0 0
BITMAP
09F200
3D8A00
A30A40
200020
3AE500
04F500
02F500
02F500
02F500
02F500
02F500
04F600
5EFE70
ENDCHAR
STARTCHAR idieresis
ENCODING 239
SWIDTH 285 0
DWIDTH 5 0
BBX 6 12 -1 0
BITMAP
5E50BC
5F50CD
000000
03AE50
004F50
002F50
002F50
002F50
002F50
002F50
004F60
05EFE7
ENDCHAR
STARTCHAR eth
ENCODING 240
SWIDTH 532 0
DWIDTH 10 0
BBX 9 13 0 0
BITMAP
039CD91340
00002DE710
000594E800
0000007E10
006CBB7F50
07E201BF80
1F80004FA0
4F50001FA0
6F40001F90
5F50002F70
1F90005F20
09E301C900
007DCC7000
ENDCHAR
STARTCHAR ntilde
ENCODING 241
SWIDTH 576 0
DWIDTH 10 0
BBX 10 12 0 0
BITMAP
0008C93630
003418C800
0000000000
3AE57AE900
03FB203F50
02F5000E90
02F5000DA0
02F5000DA0
02F5000DA0
02F5000DA0
04F6000EB0
5EFE82DFFC
ENDCHAR
STARTCHAR ograve
ENCODING 242
SWIDTH 514 0
DWIDTH 9 0
BBX 9 13 0 0
BITMAP
002E900000
0004E10000
0000770000
0000000000
006CCD9100
07E201CC00
1F80005F50
4F50002F80
6F40000F90
4F50001F80
1F90004F40
08E300AB00
007DCC8100
ENDCHAR
STARTCHAR oacute
ENCODING 243
SWIDTH 514 0
DWIDTH 9 0
BBX 9 13 0 0
BITMAP
00003F7000
0000AA0000
0001C10000
0000000000
006CCD9100
07E201CC00
1F80005F50
4F50002F80
6F40000F90
4F50001F80
1F90004F40
08E300AB00
007DCC8100
ENDCHAR
STARTCHAR ocircumflex
ENCODING 244
SWIDTH 514 0
DWIDTH 9 0
BBX 9 13 0 0
BITMAP
0003F90000
000C6C4000
007501B100
0000000000
006CCD9100
07E201CC00
1F80005F50
4F50002F80
6F40000F90
4F50001F80
1F90004F40
08E300AB00
007DCC8100
ENDCHAR
STARTCHAR otilde
ENCODING 245
SWIDTH 514 0
DWIDTH 9 0
BBX 9 12 0 0
BITMAP
005CA43600
00705CB100
0000000000
006CCD9100
07E201CC00
1F80005F50
4F50002F80
6F40000F90
4F50001F80
1F90004F40
08E300AB00
007DCC8100
ENDCHAR
STARTCHAR odieresis
ENCODING 246
SWIDTH 514 0
DWIDTH 9 0
BBX 9 12 0 0
BITMAP
02E903F800
02E802E700
0000000000
006CCD9100
07E201CC00
1F80005F50
4F50002F80
6F40000F90
4F50001F80
1F90004F40
08E300AB00
007DCC8100
ENDCHAR
STARTCHAR divide
ENCODING 247
SWIDTH 720 0
DWIDTH 13 0
BBX 11 10 1 0
BITMAP
00005E400000
00006F500000
000000000000
000000000000
000000000000
ABBBBBBBBBA0
000000000000
000000000000
00005F500000
00005E400000
ENDCHAR
STARTCHAR oslash
ENCODING 248
SWIDTH 514 0
DWIDTH 9 0
BBX 9 9 0 0
BITMAP
006CCD8A00
07E202EB00
1F80089F50
4F50572F80
5F42A00F90
4F6B101F80
1EE3004F40
0AE200AB00
296CBC8100
ENDCHAR
STARTCHAR ugrave
ENCODING 249
SWIDTH 570 0
DWIDTH 10 0
BBX 10 13 0 0
BITMAP
000CD00000
0002E40000
00003A0000
0000000000
6CF204CE70
06F2002F70
05F2000F70
05F2000F70
05F2000F70
05F2000F70
05F3000F70
02F8008F70
006EC93EC5
ENDCHAR
STARTCHAR uacute
ENCODING 250
SWIDTH 570 0
DWIDTH 10 0
BBX 10 13 0 0
BITMAP
00001EB000
00006D1000
0000B30000
0000000000
6CF204CE70
06F2002F70
05F2000F70
05F2000F70
05F2000F70
05F2000F70
05F3000F70
02F8008F70
006EC93EC5
ENDCHAR
STARTCHAR ucircumflex
ENCODING 251
SWIDTH 570 0
DWIDTH 10 0
BBX 10 13 0 0
BITMAP
0001ED0000
00099A8000
004900A300
0000000000
6CF204CE70
06F2002F70
05F2000F70
05F2000F70
05F2000F70
05F2000F70
05F3000F70
02F8008F70
006EC93EC5
ENDCHAR
STARTCHAR udieresis
ENCODING 252
SWIDTH 570 0
DWIDTH 10 0
BBX 10 12 0 0
BITMAP
00DC00DB00
00CB00DA00
0000000000
6CF204CE70
06F2002F70
05F2000F70
05F2000F70
05F2000F70
05F2000F70
05F3000F70
02F8008F70
006EC93EC5
ENDCHAR
STARTCHAR yacute
ENCODING 253
SWIDTH 483 0
DWIDTH 9 0
BBX 10 17 -1 -4
BITMAP
000003F700
00000AA000
00001C1000
0000000000
3EFF702DFB
02FB0004B0
009F100850
003F800C00
000BE13900
0004F68300
0000CCB000
00005F7000
00000F1000
00003A0000
0000B40000
09A9A00000
09EB100000
ENDCHAR
STARTCHAR thorn
ENCODING 254
SWIDTH 524 0
DWIDTH 9 0
BBX 9 17 0 -4
BITMAP
6BE0000000
1BE0000000
08E0000000
08E0000000
08E39DD500
08F6009F30
08E0001F80
08E0000EB0
08E0000DB0
08E0000E90
08E0002F50
08F700BB00
08FACC8100
08E0000000
08E0000000
0AF1000000
BFFE800000
ENDCHAR
STARTCHAR ydieresis
ENCODING 255
SWIDTH 483 0
DWIDTH 9 0
BBX 10 16 -1 -4
BITMAP
002E903F80
002E802E70
0000000000
3EFF702DFB
02FB0004B0
009F100850
003F800C00
000BE13900
0004F68300
0000CCB000
00005F7000
00000F1000
00003A0000
0000B40000
09A9A00000
09EB100000
ENDCHAR
STARTCHAR Amacron
ENCODING 256
SWIDTH 718 0
DWIDTH 13 0
BBX 13 14 0 0
BITMAP
0003BBBBB00000
00000000000000
000003E0000000
00000AF6000000
00001CDC000000
0000867F400000
0000D12FB00000
0005900AF20000
000C2004F90000
003EBBBBFE1000
00A600007F7000
02D000001FE000
09A000000CF700
CFFA0000CFFFB0
ENDCHAR
STARTCHAR amacron
ENCODING 257
SWIDTH 480 0
DWIDTH 9 0
BBX 9 11 0 0
BITMAP
05BBBB9000
0000000000
019BDB2000
0BB01DA000
0D800AD000
010009E000
0038ACE000
08D309E000
3F5009E000
3F701AE010
09EB64EA30
ENDCHAR
STARTCHAR Abreve
ENCODING 258
SWIDTH 718 0
DWIDTH 13 0
BBX 13 17 0 0
BITMAP
00000000100000
00036000900000
0000B103900000
00003AB9100000
00000000000000
000003E0000000
00000AF6000000
00001CDC000000
0000867F400000
0000D12FB00000
0005900AF20000
000C2004F90000
003EBBBBFE1000
00A600007F7000
02D000001FE000
09A000000CF700
CFFA0000CFFFB0
ENDCHAR
STARTCHAR abreve
ENCODING 259
SWIDTH 480 0
DWIDTH 9 0
BBX 9 14 0 0
BITMAP
0100001000
0630009000
0290065000
005BB70000
0000000000
019BDB2000
0BB01DA000
0D800AD000
010009E000
0038ACE000
08D309E000
3F5009E000
3F701AE010
09EB64EA30
ENDCHAR
STARTCHAR Aogonek
ENCODING 260
SWIDTH 719 0
DWIDTH 13 0
BBX 13 16 0 -4
BITMAP
000003E1000000
000009F6000000
00001CDD000000
0000767F400000
0000D11FB00000
0005900AF30000
000C3004F90000
003EBBBBEF1000
009600007F7000
01D000001FE000
09A000000CF800
BFFA00018FFFB0
0000001C500000
0000008A000000
000000A8020000
0000004EB70000
ENDCHAR
STARTCHAR aogonek
ENCODING 261
SWIDTH 480 0
DWIDTH 9 0
BBX 9 13 0 -4
BITMAP
01ABDB2000
0CA01DA000
0C7009D000
000009E000
0039ACE000
09C209E000
3F5009E000
3F701BE020
09EB73ED30
000003C200
00001D3000
00003F1020
00000BD920
ENDCHAR
STARTCHAR Cacute
ENCODING 262
SWIDTH 670 0
DWIDTH 12 0
BBX 12 16 0 0
BITMAP
000000286000
000000CC2000
000009800000
000000000000
00029CBDFFF0
005E80003DF0
03F9000003F0
09F2000000C0
0ED000000000
1FC000000000
1FC000000000
0ED000000000
0AF200000000
03FA00000032
006F910006A0
0003ADCBA500
ENDCHAR
STARTCHAR cacute
ENCODING 263
SWIDTH 446 0
DWIDTH 8 0
BBX 8 13 0 0
BITMAP
00009F30
0001E500
00068000
00000000
006CCD70
07B109F4
1E4002B3
4F100000
6F100000
5F300000
2F900004
09F734B2
008EFC30
ENDCHAR
STARTCHAR Ccircumflex
ENCODING 264
SWIDTH 670 0
DWIDTH 12 0
BBX 12 16 0 0
BITMAP
000001750000
00000ACE4000
00007802B200
000000000000
00029CBDFFF0
005E80003DF0
03F9000003F0
09F2000000C0
0ED000000000
1FC000000000
1FC000000000
0ED000000000
0AF200000000
03FA00000032
006F910006A0
0003ADCBA500
ENDCHAR
STARTCHAR ccircumflex
ENCODING 265
SWIDTH 446 0
DWIDTH 8 0
BBX 8 13 0 0
BITMAP
0009F400
003D6D10
00B20580
00000000
006CCD70
07B109F4
1E4002B3
4F100000
6F100000
5F300000
2F900004
09F734B2
008EFC30
ENDCHAR
STARTCHAR Cdotaccent
ENCODING 266
SWIDTH 670 0
DWIDTH 12 0
BBX 12 15 0 0
BITMAP
000002EA0000
000001E90000
000000000000
00029CBDFFF0
005E80003DF0
03F9000003F0
09F2000000C0
0ED000000000
1FC000000000
1FC000000000
0ED000000000
0AF200000000
03FA00000032
006F910006A0
0003ADCBA500
ENDCHAR
STARTCHAR cdotaccent
ENCODING 267
SWIDTH 446 0
DWIDTH 8 0
BBX 8 13 0 0
BITMAP
00001000
0008F300
0007E300
00000000
006CCD70
07B109F4
1E4002B3
4F100000
6F100000
5F300000
2F900004
09F734B2
008EFC30
ENDCHAR
STARTCHAR Ccaron
ENCODING 268
SWIDTH 670 0
DWIDTH 12 0
BBX 12 16 0 0
BITMAP
000052005200
00002D599000
000004FC0000
000000000000
00029CBDFFF0
005E80003DF0
03F9000003F0
09F2000000C0
0ED000000000
1FC000000000
1FC000000000
0ED000000000
0AF200000000
03FA00000032
006F910006A0
0003ADCBA500
ENDCHAR
STARTCHAR ccaron
ENCODING 269
SWIDTH 446 0
DWIDTH 8 0
BBX 8 13 0 0
BITMAP
00B20480
003D5D10
0009F400
00000000
006CCD70
07B109F4
1E4002B3
4F100000
6F100000
5F300000
2F900004
09F734B2
008EFC30
ENDCHAR
STARTCHAR Dcaron
ENCODING 270
SWIDTH 730 0
DWIDTH 13 0
BBX 13 16 0 0
BITMAP
00025002500000
0000A95D200000
00001CF4000000
00000000000000
3AFFCCDC930000
00AF1003BF7000
009F10000AF500
009F100002FC00
009F100000CF10
009F100000AF30
009F100000AF30
009F100000CF10
009F100001FC00
009F100008F500
00AF10018F7000
3AFFCCCC930000
ENDCHAR
STARTCHAR dcaron
ENCODING 271
SWIDTH 626 0
DWIDTH 11 0
BBX 11 13 0 0
BITMAP
000005BE09D0
000001AF0AA0
0000008F0B50
0000008F0600
004BCCCF0000
05E301DF0000
0E70008F0000
4F40008F0000
6F30008F0000
5F30008F0000
3F60008F0000
0CD100AF0000
02BEA9AE8100
ENDCHAR
STARTCHAR Dcroat
ENCODING 272
SWIDTH 733 0
DWIDTH 13 0
BBX 13 12 0 0
BITMAP
3AFFCCDC930000
00AF1003BF7000
009F10000BF500
009F100003FC00
009F100000DF20
4BEFBBB100BF30
009F100000BF30
009F100000DF10
009F100001FC00
009F100008F500
00BF10018F7000
3AFFCCCD930000
ENDCHAR
STARTCHAR dcroat
ENCODING 273
SWIDTH 540 0
DWIDTH 10 0
BBX 10 13 0 0
BITMAP
000006BE00
0000019F00
0003BBDFB3
0000008F00
004BCCCF00
05E301DF00
0E70009F00
4F40008F00
6F30008F00
5F30008F00
3F60008F00
0CD100AF00
02BEA9AE81
ENDCHAR
STARTCHAR Emacron
ENCODING 274
SWIDTH 626 0
DWIDTH 11 0
BBX 11 14 0 0
BITMAP
000ABBBB5000
000000000000
3AFFCCCDEF20
00AF10001B20
009F10000310
009F10009000
009F1003B000
009FBBCEB000
009F1001A000
009F10000010
009F100000A0
009F10000590
00AF10002C70
3AFFCCCDFF50
ENDCHAR
STARTCHAR emacron
ENCODING 275
SWIDTH 464 0
DWIDTH 8 0
BBX 8 11 0 0
BITMAP
03BBBBB0
00000000
007BCC40
089008E2
1F3001F8
4FCBBBD9
6F200000
4F400000
1FB00005
08FA33A4
007DFD40
ENDCHAR
STARTCHAR Ebreve
ENCODING 276
SWIDTH 626 0
DWIDTH 11 0
BBX 11 17 0 0
BITMAP
000100001000
000900055000
0008501B1000
00018BB40000
000000000000
3AFFCCCDEF20
00AF10001B20
009F10000310
009F10009000
009F1003B000
009FBBCEB000
009F1001A000
009F10000010
009F100000A0
009F10000590
00AF10002C70
3AFFCCCDFF50
ENDCHAR
STARTCHAR ebreve
ENCODING 277
SWIDTH 464 0
DWIDTH 8 0
BBX 8 14 0 0
BITMAP
00000010
03600090
00A10380
003AB910
00000000
007BCC40
089008E2
1F3001F8
4FCBBBD9
6F200000
4F400000
1FB00005
08FA33A4
007DFD40
ENDCHAR
STARTCHAR Edotaccent
ENCODING 278
SWIDTH 626 0
DWIDTH 11 0
BBX 11 15 0 0
BITMAP
00002E900000
00001E800000
000000000000
3AFFCCCDEF20
00AF10001B20
009F10000310
009F10009000
009F1003B000
009FBBCEB000
009F1001A000
009F10000010
009F100000A0
009F10000590
00AF10002C70
3AFFCCCDFF50
ENDCHAR
STARTCHAR edotaccent
ENCODING 279
SWIDTH 464 0
DWIDTH 8 0
BBX 8 13 0 0
BITMAP
00001000
0008F400
0007E300
00000000
007BCC40
089008E2
1F3001F8
4FCBBBD9
6F200000
4F400000
1FB00005
08FA33A4
007DFD40
ENDCHAR
STARTCHAR Eogonek
ENCODING 280
SWIDTH 625 0
DWIDTH 11 0
BBX 11 16 0 -4
BITMAP
39FFBBBCEF20
00AF00000B20
009F00000310
009F00009000
009F0003B000
009FBBCEB000
009F0001A000
009F00000000
009F00000000
009F00000190
00AF00000A70
39FFBBBCEF50
00000002A100
0000000D3000
0000002F1020
0000000ADA30
ENDCHAR
STARTCHAR eogonek
ENCODING 281
SWIDTH 464 0
DWIDTH 8 0
BBX 8 13 0 -4
BITMAP
007BCC40
089008E2
1F3001F8
4FCBBBD9
6F200000
4F400000
1FB00005
08FA33A4
007DFF70
0001B400
00098000
000D6020
0006EA50
ENDCHAR
STARTCHAR Ecaron
ENCODING 282
SWIDTH 626 0
DWIDTH 11 0
BBX 11 16 0 0
BITMAP
000520052000
0002D4990000
00004FC00000
000000000000
3AFFCCCDEF20
00AF10001B20
009F10000310
009F10009000
009F1003B000
009FBBCEB000
009F1001A000
009F10000010
009F100000A0
009F10000590
00AF10002C70
3AFFCCCDFF50
ENDCHAR
STARTCHAR ecaron
ENCODING 283
SWIDTH 464 0
DWIDTH 8 0
BBX 8 13 0 0
BITMAP
00B20480
003D5D10
0008F400
00000000
007BCC40
089008E2
1F3001F8
4FCBBBD9
6F200000
4F400000
1FB00005
08FA33A4
007DFD40
ENDCHAR
STARTCHAR Gcircumflex
ENCODING 284
SWIDTH 720 0
DWIDTH 13 0
BBX 13 16 0 0
BITMAP
00000175000000
00000ACE400000
00007802B20000
00000000000000
00029CBDFFF000
005E70003CF000
02E9000002F000
09F2000000C000
0ED00000000000
1FC00000000000
1FC00001CDDD40
0EE000000BF400
0BF2000008F200
04F9000008F200
008F81002CF100
0004ADCBC82000
ENDCHAR
STARTCHAR gcircumflex
ENCODING 285
SWIDTH 484 0
DWIDTH 9 0
BBX 9 17 0 -4
BITMAP
0008F40000
003D6D1000
00B2048000
0000000000
019CDFEB60
0AC009F200
0F8003F600
0F9003F500
0AE208D100
01BBBA2000
0A50000000
2F93210000
09FFFFFA00
0A10003D50
7C00000940
8F30004A00
1AECA96000
ENDCHAR
STARTCHAR Gbreve
ENCODING 286
SWIDTH 720 0
DWIDTH 13 0
BBX 13 17 0 0
BITMAP
00001000010000
00009000550000
00008501B10000
000018BB400000
00000000000000
00029CBDFFF000
005E70003CF000
02E9000002F000
09F2000000C000
0ED00000000000
1FC00000000000
1FC00001CDDD40
0EE000000BF400
0BF2000008F200
04F9000008F200
008F81002CF100
0004ADCBC82000
ENDCHAR
STARTCHAR gbreve
ENCODING 287
SWIDTH 484 0
DWIDTH 9 0
BBX 9 18 0 -4
BITMAP
0000001000
0360009000
00A1038000
003AB91000
0000000000
019CDFEB60
0AC009F200
0F8003F600
0F9003F500
0AE208D100
01BBBA2000
0A50000000
2F93210000
09FFFFFA00
0A10003D50
7C00000940
8F30004A00
1AECA96000
ENDCHAR
STARTCHAR Gdotaccent
ENCODING 288
SWIDTH 720 0
DWIDTH 13 0
BBX 13 15 0 0
BITMAP
000002E9000000
000001E8000000
00000000000000
00029CBDFFF000
005E70003CF000
02E9000002F000
09F2000000C000
0ED00000000000
1FC00000000000
1FC00001CDDD40
0EE000000BF400
0BF2000008F200
04F9000008F200
008F81002CF100
0004ADCBC82000
ENDCHAR
STARTCHAR gdotaccent
ENCODING 289
SWIDTH 484 0
DWIDTH 9 0
BBX 9 17 0 -4
BITMAP
0000100000
0008F40000
0007E30000
0000000000
019CDFEB60
0AC009F200
0F8003F600
0F9003F500
0AE208D100
01BBBA2000
0A50000000
2F93210000
09FFFFFA00
0A10003D50
7C00000940
8F30004A00
1AECA96000
ENDCHAR
STARTCHAR Gcommaaccent
ENCODING 290
SWIDTH 720 0
DWIDTH 13 0
BBX 13 17 0 -5
BITMAP
00029CBDFFF000
005E70003CF000
02E9000002F000
09F2000000C000
0ED00000000000
1FC00000000000
1FC00001CDDD40
0EE000000BF400
0BF2000008F200
04F9000008F200
008F81002CF100
0004ADCBC82000
00000000000000
000007F6000000
000007EA000000
00000058000000
00000491000000
ENDCHAR
STARTCHAR gcommaaccent
ENCODING 291
SWIDTH 484 0
DWIDTH 9 0
BBX 9 18 0 -4
BITMAP
0002A20000
000B200000
000DE40000
0008E40000
0000000000
019CDFEB60
0AC009F200
0F8003F600
0F9003F500
0AE208D100
01BBBA2000
0A50000000
2F93210000
09FFFFFA00
0A10003D50
7C00000940
8F30004A00
1AECA96000
ENDCHAR
STARTCHAR Hcircumflex
ENCODING 292
SWIDTH 777 0
DWIDTH 14 0
BBX 14 16 0 0
BITMAP
00000067000000
000006DD700000
00004A11A40000
00000000000000
4DFFE9009EFFD4
00BF200002FB00
009F100001F900
009F100001F900
009F100001F900
009FBBBBBBF900
009F100001F900
009F100001F900
009F100001F900
009F100001F900
00BF200002FB00
4CFFE9009EFFC4
ENDCHAR
STARTCHAR hcircumflex
ENCODING 293
SWIDTH 577 0
DWIDTH 10 0
BBX 10 17 0 0
BITMAP
0000760000
0008CE5000
005902B300
0000000000
4AE4000000
16F4000000
03F4000000
03F4000000
03F57AE900
03FB103F50
03F4000E90
03F4000CA0
03F4000CA0
03F4000CA0
03F4000CA0
04F6000DB0
5EFE71DFFC
ENDCHAR
STARTCHAR Hbar
ENCODING 294
SWIDTH 788 0
DWIDTH 14 0
BBX 14 12 0 0
BITMAP
3CFFEB008EFFD5
00AF400001FC00
008F200000EB00
3BDFCBBBBBFEB5
008F200000EB00
008FCBBBBBFB00
008F200000EB00
008F200000EB00
008F200000EB00
008F200000EB00
009F400001FC00
3CFFEB008EFFD5
ENDCHAR
STARTCHAR hbar
ENCODING 295
SWIDTH 579 0
DWIDTH 10 0
BBX 11 13 0 0
BITMAP
4AE500000000
04F500000000
6CFDBB300000
02F500000000
02F67AEA0000
02FB203F6000
02F5000D9000
02F5000CB000
02F5000CB000
02F5000CB000
02F5000CB000
03F6000DC000
5EFE81DFFD10
ENDCHAR
STARTCHAR Itilde
ENCODING 296
SWIDTH 357 0
DWIDTH 6 0
BBX 7 15 0 0
BITMAP
1AC83710
6129C600
00000000
4DFFE900
00BF2000
009F1000
009F0000
009F0000
009F0000
009F0000
009F0000
009F0000
009F1000
00BF2000
4DFFE900
ENDCHAR
STARTCHAR itilde
ENCODING 297
SWIDTH 285 0
DWIDTH 5 0
BBX 6 12 -1 0
BITMAP
08C708
2508C4
000000
03AE50
004F50
002F50
002F50
002F50
002F50
002F50
004F60
05EFE7
ENDCHAR
STARTCHAR Imacron
ENCODING 298
SWIDTH 357 0
DWIDTH 6 0
BBX 6 14 0 0
BITMAP
5BBBBA
000000
4DFFE9
00BF20
009F10
009F00
009F00
009F00
009F00
009F00
009F00
009F10
00BF20
4DFFE9
ENDCHAR
STARTCHAR imacron
ENCODING 299
SWIDTH 285 0
DWIDTH 5 0
BBX 6 11 -1 0
BITMAP
1BBBB7
000000
03AE50
004F50
002F50
002F50
002F50
002F50
002F50
004F60
05EFE7
ENDCHAR
STARTCHAR Ibreve
ENCODING 300
SWIDTH 357 0
DWIDTH 6 0
BBX 6 17 0 0
BITMAP
100001
540009
1A1067
04BB80
000000
4DFFE9
00BF20
009F10
009F00
009F00
009F00
009F00
009F00
009F00
009F10
00BF20
4DFFE9
ENDCHAR
STARTCHAR ibreve
ENCODING 301
SWIDTH 285 0
DWIDTH 5 0
BBX 6 13 -1 0
BITMAP
180018
0A1084
02AB70
000000
03AE50
004F50
002F50
002F50
002F50
002F50
002F50
004F60
05EFE7
ENDCHAR
STARTCHAR Iogonek
ENCODING 302
SWIDTH 357 0
DWIDTH 6 0
BBX 6 16 0 -4
BITMAP
4DFFE9
00BF20
009F10
009F00
009F00
009F00
009F00
009F00
009F00
009F10
00BF20
4DFFE9
005800
02D000
06C011
02DC81
ENDCHAR
STARTCHAR iogonek
ENCODING 303
SWIDTH 285 0
DWIDTH 5 0
BBX 5 17 0 -4
BITMAP
03E600
04F700
001000
000000
3AE500
04F500
02F500
02F500
02F500
02F500
02F500
04F600
5EFE70
02A100
0D2000
3F1020
0BD920
ENDCHAR
STARTCHAR Idotaccent
ENCODING 304
SWIDTH 357 0
DWIDTH 6 0
BBX 6 15 0 0
BITMAP
009E20
008E10
000000
4DFFE9
00BF20
009F10
009F00
009F00
009F00
009F00
009F00
009F00
009F10
00BF20
4DFFE9
ENDCHAR
STARTCHAR dotlessi
ENCODING 305
SWIDTH 285 0
DWIDTH 5 0
BBX 5 9 0 0
BITMAP
3AE500
04F500
02F500
02F500
02F500
02F500
02F500
04F600
5EFE70
ENDCHAR
STARTCHAR IJ
ENCODING 306
SWIDTH 753 0
DWIDTH 14 0
BBX 14 12 0 0
BITMAP
4DFFE900BEFFC2
00BF200004FA00
009F100002F800
009F000002F800
009F000002F800
009F000002F800
009F000002F800
009F000002F800
009F000002F800
009F101402F700
00BF208F34F400
4DFFE92CEB8000
ENDCHAR
STARTCHAR ij
ENCODING 307
SWIDTH 548 0
DWIDTH 10 0
BBX 9 16 0 -4
BITMAP
03E6003E70
04F7004F80
0010000100
3AE503AE60
04F5003F60
02F5001F60
02F5001F60
02F5001F60
02F5001F60
02F5001F60
04F6001F60
5EFE701F60
0000001F60
0000002F40
0007E24D00
0003DEB300
ENDCHAR
STARTCHAR Jcircumflex
ENCODING 308
SWIDTH 396 0
DWIDTH 7 0
BBX 7 16 0 0
BITMAP
00047100
003ECB00
01B30780
00000000
04CFFE90
000AF400
0009F100
0008F100
0008F100
0008F100
0008F100
0008F100
0008F100
3109F100
EC0AD000
7ECB3000
ENDCHAR
STARTCHAR jcircumflex
ENCODING 309
SWIDTH 263 0
DWIDTH 5 0
BBX 7 17 -2 -4
BITMAP
0009F400
004D6D00
00B20580
00000000
004BE400
0004F400
0003F400
0003F400
0003F400
0003F400
0003F400
0003F400
0003F400
0003F400
0004F200
9D16C000
5DEB2000
ENDCHAR
STARTCHAR Kcommaaccent
ENCODING 310
SWIDTH 702 0
DWIDTH 13 0
BBX 13 17 0 -5
BITMAP
4DFFE908FFF900
00BF2000CC2000
009F1006B10000
009F006A000000
009F0790000000
009F8B00000000
009FAF70000000
009F19F8000000
009F008F900000
009F1008F90000
00BF2000CFA100
4DFFE908EFFE60
00000000000000
000009F4000000
000008F8000000
00000076000000
00000580000000
ENDCHAR
STARTCHAR kcommaaccent
ENCODING 311
SWIDTH 542 0
DWIDTH 10 0
BBX 10 18 0 -5
BITMAP
4AE4000000
05F4000000
03F4000000
03F4000000
03F40AFFC1
03F403E400
03F43B2000
03F7C10000
03FCF60000
03F49F4000
03F40BE300
04F501CE30
5EFE73EFF8
0000000000
0001EC0000
0001EF1000
00000C0000
0001940000
ENDCHAR
STARTCHAR kgreenlandic
ENCODING 312
SWIDTH 542 0
DWIDTH 10 0
BBX 10 9 0 0
BITMAP
3AE507FFD1
15F501D600
02F51B4000
02F6B30000
02FDF50000
02F5BF4000
02F50BE300
03F601CE30
5EFE83EFF9
ENDCHAR
STARTCHAR Lacute
ENCODING 313
SWIDTH 585 0
DWIDTH 11 0
BBX 11 16 0 0
BITMAP
000177000000
000AD4000000
006A10000000
000000000000
3DFFE9000000
00BF40000000
009F10000000
009F10000000
009F10000000
009F10000000
009F10000000
009F10000000
009F10000410
009F10000B10
00AF10006E00
29FFDBBDFB00
ENDCHAR
STARTCHAR lacute
ENCODING 314
SWIDTH 283 0
DWIDTH 5 0
BBX 5 17 0 0
BITMAP
002850
00CC20
098000
000000
3AE400
16F400
03F400
03F400
03F400
03F400
03F400
03F400
03F400
03F400
03F400
04F600
5EFE80
ENDCHAR
STARTCHAR Lcommaaccent
ENCODING 315
SWIDTH 585 0
DWIDTH 11 0
BBX 11 17 0 -5
BITMAP
3DFFE9000000
00BF40000000
009F10000000
009F10000000
009F10000000
009F10000000
009F10000000
009F10000000
009F10000410
009F10000B10
00AF10006E00
29FFDBBDFB00
000000000000
0000AE300000
0000AF600000
000009400000
000077000000
ENDCHAR
STARTCHAR lcommaaccent
ENCODING 316
SWIDTH 283 0
DWIDTH 5 0
BBX 5 18 0 -5
BITMAP
3AE400
16F400
03F400
03F400
03F400
03F400
03F400
03F400
03F400
03F400
03F400
04F600
5EFE80
000000
06F600
06EB00
004800
049100
ENDCHAR
STARTCHAR Lcaron
ENCODING 317
SWIDTH 585 0
DWIDTH 11 0
BBX 11 12 0 0
BITMAP
3DFFE905F200
00BF4006E000
009F10078000
009F10052000
009F10000000
009F10000000
009F10000000
009F10000000
009F10000410
009F10000B10
00AF10006E00
29FFDBBDFB00
ENDCHAR
STARTCHAR lcaron
ENCODING 318
SWIDTH 366 0
DWIDTH 7 0
BBX 7 13 0 0
BITMAP
3AE44F30
16F45E00
03F46900
03F44200
03F40000
03F40000
03F40000
03F40000
03F40000
03F40000
03F40000
04F60000
5EFE8000
ENDCHAR
STARTCHAR Ldot
ENCODING 319
SWIDTH 605 0
DWIDTH 11 0
BBX 11 12 0 0
BITMAP
3DFFE9000000
00BF40000000
009F10000000
009F10000000
009F10001000
009F1003F800
009F1003E700
009F10000000
009F10000410
009F10000B10
00AF10006E00
29FFDBBDFB00
ENDCHAR
STARTCHAR ldot
ENCODING 320
SWIDTH 357 0
DWIDTH 6 0
BBX 7 13 0 0
BITMAP
3AE40000
16F40000
03F40000
03F40000
03F40000
03F40100
03F42E90
03F42E80
03F40000
03F40000
03F40000
04F60000
5EFE8000
ENDCHAR
STARTCHAR Lslash
ENCODING 321
SWIDTH 590 0
DWIDTH 11 0
BBX 11 12 0 0
BITMAP
2CFFFB000000
00AF50000000
008F20000000
008F20310000
008F39810000
008FB3000000
04DF20000000
388F20000000
008F20000320
008F20000A20
009F30004F00
19FFEBBDFD00
ENDCHAR
STARTCHAR lslash
ENCODING 322
SWIDTH 290 0
DWIDTH 5 0
BBX 5 13 0 0
BITMAP
39D600
14F600
02F600
02F600
02F790
02FC20
09F600
86F600
02F600
02F600
02F600
03F700
4DFE90
ENDCHAR
STARTCHAR Nacute
ENCODING 323
SWIDTH 742 0
DWIDTH 13 0
BBX 13 16 0 0
BITMAP
00000028600000
000000BD300000
00000891000000
00000000000000
6EFD10004DFFB0
02EFB00000D700
00CEF70000A400
00C4EF4000A400
00C15FE100A400
00C108FB00A400
00C100BF80A400
00C1001DF4A400
00C10003EEC400
00C200005FF400
00E4000008F400
6DFE900000B400
ENDCHAR
STARTCHAR nacute
ENCODING 324
SWIDTH 576 0
DWIDTH 10 0
BBX 10 13 0 0
BITMAP
000008F300
00000E6000
0000590000
0000000000
3AE57AE900
03FB203F50
02F5000E90
02F5000DA0
02F5000DA0
02F5000DA0
02F5000DA0
04F6000EB0
5EFE82DFFC
ENDCHAR
STARTCHAR Ncommaaccent
ENCODING 325
SWIDTH 742 0
DWIDTH 13 0
BBX 13 17 0 -5
BITMAP
6EFD10004DFFB0
02EFB00000D700
00CEF70000A400
00C4EF4000A400
00C15FE100A400
00C108FB00A400
00C100BF80A400
00C1001DF4A400
00C10003EEC400
00C200005FF400
00E4000008F400
6DFE900000B400
00000000000000
000007F6000000
000007EA000000
00000058000000
00000491000000
ENDCHAR
STARTCHAR ncommaaccent
ENCODING 326
SWIDTH 576 0
DWIDTH 10 0
BBX 10 14 0 -5
BITMAP
3AE57AE900
03FB203F50
02F5000E90
02F5000DA0
02F5000DA0
02F5000DA0
02F5000DA0
04F6000EB0
5EFE82DFFC
0000000000
0000DD1000
0000CF4000
00000B2000
0000850000
ENDCHAR
STARTCHAR Ncaron
ENCODING 327
SWIDTH 742 0
DWIDTH 13 0
BBX 13 16 0 0
BITMAP
00005200420000
00002D58A00000
000003FD100000
00000000000000
6EFD10004DFFB0
02EFB00000D700
00CEF70000A400
00C4EF4000A400
00C15FE100A400
00C108FB00A400
00C100BF80A400
00C1001DF4A400
00C10003EEC400
00C200005FF400
00E4000008F400
6DFE900000B400
ENDCHAR
STARTCHAR ncaron
ENCODING 328
SWIDTH 576 0
DWIDTH 10 0
BBX 10 13 0 0
BITMAP
000A204900
0002D5D100
00007F5000
0000000000
3AE57AE900
03FB203F50
02F5000E90
02F5000DA0
02F5000DA0
02F5000DA0
02F5000DA0
04F6000EB0
5EFE82DFFC
ENDCHAR
STARTCHAR napostrophe
ENCODING 329
SWIDTH 576 0
DWIDTH 10 0
BBX 13 13 -3 0
BITMAP
7E600000000000
8FB00000000000
04900000000000
1A200000000000
3103AE57AE9000
00003FB203F500
00002F5000E900
00002F5000DA00
00002F5000DA00
00002F5000DA00
00002F5000DA00
00004F6000EB00
0005EFE82DFFC0
ENDCHAR
STARTCHAR Eng
ENCODING 330
SWIDTH 742 0
DWIDTH 13 0
BBX 13 16 0 -4
BITMAP
6EFD10004DFFB0
02EFA00000D700
00CEF70000A400
00C4EF3000A400
00C15FD100A400
00C109FA00A400
00C100CF70A400
00C1002EF3A400
00C10005FDB400
00C200009FF400
00E400000CF400
6DFE900002E400
0000000000A300
0000000000C200
000000BD13C000
0000007EEB2000
ENDCHAR
STARTCHAR eng
ENCODING 331
SWIDTH 559 0
DWIDTH 10 0
BBX 9 13 0 -4
BITMAP
3AE57AE900
03FB203F50
02F5000E90
02F5000DA0
02F5000DA0
02F5000DA0
02F5000DA0
04F6000DA0
5EFE800DA0
0000000D90
0000000D70
0003E41F20
0001CEC500
ENDCHAR
STARTCHAR Omacron
ENCODING 332
SWIDTH 738 0
DWIDTH 13 0
BBX 12 14 1 0
BITMAP
000BBBBB3000
000000000000
0039CBCB5000
05F70005EA00
3F9000006F70
9F2000000DE0
EE0000000AF4
FD00000008F5
FD00000008F5
EE00000009F3
AF3000000DD0
3F9000004F60
06F70003D900
003ACBBB5000
ENDCHAR
STARTCHAR omacron
ENCODING 333
SWIDTH 514 0
DWIDTH 9 0
BBX 9 11 0 0
BITMAP
00ABBBB400
0000000000
006CCD9100
07E201CC00
1F80005F50
4F50002F80
6F40000F90
4F50001F80
1F90004F40
08E300AB00
007DCC8100
ENDCHAR
STARTCHAR Obreve
ENCODING 334
SWIDTH 738 0
DWIDTH 13 0
BBX 12 17 1 0
BITMAP
000100001000
000900063000
0009301B0000
00019BA30000
000000000000
0039CBCB5000
05F70005EA00
3F9000006F70
9F2000000DE0
EE0000000AF4
FD00000008F5
FD00000008F5
EE00000009F3
AF3000000DD0
3F9000004F60
06F70003D900
003ACBBB5000
ENDCHAR
STARTCHAR obreve
ENCODING 335
SWIDTH 514 0
DWIDTH 9 0
BBX 9 14 0 0
BITMAP
0010000100
0090006300
008401A000
0019BB3000
0000000000
006CCD9100
07E201CC00
1F80005F50
4F50002F80
6F40000F90
4F50001F80
1F90004F40
08E300AB00
007DCC8100
ENDCHAR
STARTCHAR Ohungarumlaut
ENCODING 336
SWIDTH 738 0
DWIDTH 13 0
BBX 12 16 1 0
BITMAP
000002202100
00003F89D300
0000B44A1000
000000000000
0039CBCB5000
05F70005EA00
3F9000006F70
9F2000000DE0
EE0000000AF4
FD00000008F5
FD00000008F5
EE00000009F3
AF3000000DD0
3F9000004F60
06F70003D900
003ACBBB5000
ENDCHAR
STARTCHAR ohungarumlaut
ENCODING 337
SWIDTH 514 0
DWIDTH 9 0
BBX 9 13 0 0
BITMAP
0001C98C10
0006D2E500
000B268000
0000000000
006CCD9100
07E201CC00
1F80005F50
4F50002F80
6F40000F90
4F50001F80
1F90004F40
08E300AB00
007DCC8100
ENDCHAR
STARTCHAR OE
ENCODING 338
SWIDTH 945 0
DWIDTH 17 0
BBX 17 12 0 0
BITMAP
00039CCEFFBBBCFD00
005F8000DF00002D00
03FA0000AF00000500
0AF30000AF00027000
0EE00000AF00067000
1FC00000AFBBCF7000
1FD00000AF00037000
0EE00000AF00000000
0AF30000AF00000360
03F90000AF00000850
006F7000DF00003E30
0003ACBEFFBBBDFF10
ENDCHAR
STARTCHAR oe
ENCODING 339
SWIDTH 807 0
DWIDTH 15 0
BBX 14 9 0 0
BITMAP
006CCC604BBD60
07E202DAC105F4
1F80007F7000DA
4F50004FDBBBDB
6F40002F600000
4F50003F900000
1F90005FE10005
08E300CCFC4386
007DCC705CFD60
ENDCHAR
STARTCHAR Racute
ENCODING 340
SWIDTH 659 0
DWIDTH 12 0
BBX 12 16 0 0
BITMAP
000003840000
00001EB10000
0000B7000000
000000000000
2AFFCBDB5000
00AF101AF500
009F1002FB00
009F1000FC00
009F1003F900
009F104DC100
009FBEE50000
009F13FB0000
009F107F9000
009F100BF600
00BF2002EE30
2CFFEA005FFC
ENDCHAR
STARTCHAR racute
ENCODING 341
SWIDTH 380 0
DWIDTH 7 0
BBX 7 13 0 0
BITMAP
0006F500
000C8000
003A0000
00000000
29D46E80
16F99D90
02F90000
02F50000
02F50000
02F50000
02F50000
03F70000
6EFFC000
ENDCHAR
STARTCHAR Rcommaaccent
ENCODING 342
SWIDTH 659 0
DWIDTH 12 0
BBX 12 17 0 -5
BITMAP
2AFFCBDB5000
00AF101AF500
009F1002FB00
009F1000FC00
009F1003F900
009F104DC100
009FBEE50000
009F13FB0000
009F107F9000
009F100BF600
00BF2002EE30
2CFFEA005FFC
000000000000
00001EC00000
00001DF20000
000000C10000
000009400000
ENDCHAR
STARTCHAR rcommaaccent
ENCODING 343
SWIDTH 380 0
DWIDTH 7 0
BBX 7 14 0 -5
BITMAP
29D46E80
16F99D90
02F90000
02F50000
02F50000
02F50000
02F50000
03F70000
6EFFC000
00000000
02EB0000
02EF0000
001C0000
01A30000
ENDCHAR
STARTCHAR Rcaron
ENCODING 344
SWIDTH 659 0
DWIDTH 12 0
BBX 12 16 0 0
BITMAP
000610061000
0004C4B70000
00006FA00000
000000000000
2AFFCBDB5000
00AF101AF500
009F1002FB00
009F1000FC00
009F1003F900
009F104DC100
009FBEE50000
009F13FB0000
009F107F9000
009F100BF600
00BF2002EE30
2CFFEA005FFC
ENDCHAR
STARTCHAR rcaron
ENCODING 345
SWIDTH 380 0
DWIDTH 7 0
BBX 7 13 0 0
BITMAP
09302A00
01D5D200
006F7000
00000000
29D46E80
16F99D90
02F90000
02F50000
02F50000
02F50000
02F50000
03F70000
6EFFC000
ENDCHAR
STARTCHAR Sacute
ENCODING 346
SWIDTH 504 0
DWIDTH 9 0
BBX 9 16 0 0
BITMAP
0000483000
0002EA1000
001B500000
0000000000
019CCEFC00
0BB001BD00
1F70002D00
1FC1000A00
09FD400000
008FFA2000
0003CFE500
000006FF20
5500007F70
5A00004F60
4F60009E10
3FFDCCA200
ENDCHAR
STARTCHAR sacute
ENCODING 347
SWIDTH 394 0
DWIDTH 7 0
BBX 7 13 0 0
BITMAP
0005F600
000B9000
002B0000
00000000
05CBCB10
2F202E10
3F400810
1DF71000
02BFD400
0004DF40
45001F90
4C101E70
4ACBC800
ENDCHAR
STARTCHAR Scircumflex
ENCODING 348
SWIDTH 504 0
DWIDTH 9 0
BBX 9 16 0 0
BITMAP
0002830000
001DBD1000
00A505A000
0000000000
019CCEFC00
0BB001BD00
1F70002D00
1FC1000A00
09FD400000
008FFA2000
0003CFE500
000006FF20
5500007F70
5A00004F60
4F60009E10
3FFDCCA200
ENDCHAR
STARTCHAR scircumflex
ENCODING 349
SWIDTH 394 0
DWIDTH 7 0
BBX 7 13 0 0
BITMAP
004F8000
01D6D300
08502A00
00000000
05CBCB10
2F202E10
3F400810
1DF71000
02BFD400
0004DF40
45001F90
4C101E70
4ACBC800
ENDCHAR
STARTCHAR uni015E
ENCODING 350
SWIDTH 504 0
DWIDTH 9 0
BBX 9 16 0 -4
BITMAP
019CCEFC00
0BB001BD00
1F70002D00
1FC1000A00
09FD400000
008FFA2000
0003CFE500
000006FF20
5500007F70
5A00004F60
4F60009E10
3FFDCCA200
0002500000
0005CA0000
00000E2000
0009C80000
ENDCHAR
STARTCHAR uni015F
ENCODING 351
SWIDTH 394 0
DWIDTH 7 0
BBX 7 13 0 -4
BITMAP
05CBCB10
2F202E10
3F400810
1DF71000
02BFD400
0004DF40
45001F90
4C101E70
4ACBC800
00160000
004CB100
0000D300
008C9000
ENDCHAR
STARTCHAR Scaron
ENCODING 352
SWIDTH 504 0
DWIDTH 9 0
BBX 9 16 0 0
BITMAP
0061006000
004C4B6000
0007F90000
0000000000
019CCEFC00
0BB001BD00
1F70002D00
1FC1000A00
09FD400000
008FFA2000
0003CFE500
000006FF20
5500007F70
5A00004F60
4F60009E10
3FFDCCA200
ENDCHAR
STARTCHAR scaron
ENCODING 353
SWIDTH 394 0
DWIDTH 7 0
BBX 7 13 0 0
BITMAP
09402A00
01D5D200
005F7000
00000000
05CBCB10
2F202E10
3F400810
1DF71000
02BFD400
0004DF40
45001F90
4C101E70
4ACBC800
ENDCHAR
STARTCHAR uni0162
ENCODING 354
SWIDTH 603 0
DWIDTH 11 0
BBX 11 16 0 -4
BITMAP
8FDBDFCBDF70
96006F400870
A0006F400280
10006F400010
00006F400000
00006F400000
00006F400000
00006F400000
00006F400000
00006F400000
00008F600000
002CFFFC1000
000026000000
00004CA10000
000000E30000
00009C800000
ENDCHAR
STARTCHAR uni0163
ENCODING 355
SWIDTH 315 0
DWIDTH 6 0
BBX 6 16 0 -4
BITMAP
003100
00C200
07F200
3CFCB2
05F200
05F200
05F200
05F200
05F200
05F200
04F413
00BD91
003400
005CA0
0000F1
019C70
ENDCHAR
STARTCHAR Tcaron
ENCODING 356
SWIDTH 603 0
DWIDTH 11 0
BBX 11 16 0 0
BITMAP
000600060000
0006B4C40000
00009F700000
000000000000
8FDBDFCBDF70
96006F400870
A0006F400280
10006F400010
00006F400000
00006F400000
00006F400000
00006F400000
00006F400000
00006F400000
00008F600000
002CFFFC1000
ENDCHAR
STARTCHAR tcaron
ENCODING 357
SWIDTH 353 0
DWIDTH 6 0
BBX 7 13 0 0
BITMAP
00005F20
00316E00
00C27900
07F25200
3CFCB200
05F20000
05F20000
05F20000
05F20000
05F20000
05F20000
04F41300
00BD9100
ENDCHAR
STARTCHAR Tbar
ENCODING 358
SWIDTH 603 0
DWIDTH 11 0
BBX 11 12 0 0
BITMAP
8FDBDFCBDF70
96006F400870
A0006F400280
10006F400010
00006F400000
008BDFCB6000
00006F400000
00006F400000
00006F400000
00006F400000
00008F600000
002CFFFC1000
ENDCHAR
STARTCHAR tbar
ENCODING 359
SWIDTH 328 0
DWIDTH 6 0
BBX 6 12 0 0
BITMAP
003200
00B300
06F300
2CFCB3
04F300
04F300
3CFCB3
04F300
04F300
04F300
03F503
00BD92
ENDCHAR
STARTCHAR Utilde
ENCODING 360
SWIDTH 752 0
DWIDTH 14 0
BBX 14 15 0 0
BITMAP
00001AC8381000
00006129C60000
00000000000000
7EFFD6002DFFD2
01FE100000AA00
00DC0000008800
00DC0000008800
00DC0000008800
00DC0000008800
00DC0000008800
00DC0000008700
00CD0000008600
009F200000C200
002EB100089000
0003ADCBB60000
ENDCHAR
STARTCHAR utilde
ENCODING 361
SWIDTH 570 0
DWIDTH 10 0
BBX 10 12 0 0
BITMAP
002BB63800
00703BC300
0000000000
6CF204CE70
06F2002F70
05F2000F70
05F2000F70
05F2000F70
05F2000F70
05F3000F70
02F8008F70
006EC93EC5
ENDCHAR
STARTCHAR Umacron
ENCODING 362
SWIDTH 752 0
DWIDTH 14 0
BBX 14 14 0 0
BITMAP
00005BBBB90000
00000000000000
7EFFD6002DFFD2
01FE100000AA00
00DC0000008800
00DC0000008800
00DC0000008800
00DC0000008800
00DC0000008800
00DC0000008700
00CD0000008600
009F200000C200
002EB100089000
0003ADCBB60000
ENDCHAR
STARTCHAR umacron
ENCODING 363
SWIDTH 570 0
DWIDTH 10 0
BBX 10 11 0 0
BITMAP
007BBBB600
0000000000
6CF204CE70
06F2002F70
05F2000F70
05F2000F70
05F2000F70
05F2000F70
05F3000F70
02F8008F70
006EC93EC5
ENDCHAR
STARTCHAR Ubreve
ENCODING 364
SWIDTH 752 0
DWIDTH 14 0
BBX 14 17 0 0
BITMAP
00001000010000
00006300090000
00002A10660000
000004BB800000
00000000000000
7EFFD6002DFFD2
01FE100000AA00
00DC0000008800
00DC0000008800
00DC0000008800
00DC0000008800
00DC0000008800
00DC0000008700
00CD0000008600
009F200000C200
002EB100089000
0003ADCBB60000
ENDCHAR
STARTCHAR ubreve
ENCODING 365
SWIDTH 570 0
DWIDTH 10 0
BBX 10 14 0 0
BITMAP
0010000100
0080002700
0057009200
0007BB5000
0000000000
6CF204CE70
06F2002F70
05F2000F70
05F2000F70
05F2000F70
05F2000F70
05F3000F70
02F8008F70
006EC93EC5
ENDCHAR
STARTCHAR Uring
ENCODING 366
SWIDTH 752 0
DWIDTH 14 0
BBX 14 17 0 0
BITMAP
000002AB500000
00000941C00000
00000940D00000
000002AB500000
00000000000000
7EFFD6002DFFD2
01FE100000AA00
00DC0000008800
00DC0000008800
00DC0000008800
00DC0000008800
00DC0000008800
00DC0000008700
00CD0000008600
009F200000C200
002EB100089000
0003ADCBB60000
ENDCHAR
STARTCHAR uring
ENCODING 367
SWIDTH 570 0
DWIDTH 10 0
BBX 10 14 0 0
BITMAP
0003BB2000
000C12A000
000C12B000
0004BB3000
0000000000
6CF204CE70
06F2002F70
05F2000F70
05F2000F70
05F2000F70
05F2000F70
05F3000F70
02F8008F70
006EC93EC5
ENDCHAR
STARTCHAR Uhungarumlaut
ENCODING 368
SWIDTH 752 0
DWIDTH 14 0
BBX 14 16 0 0
BITMAP
00000012112000
0000009D4E9000
000005A1A50000
00000000000000
7EFFD6002DFFD2
01FE100000AA00
00DC0000008800
00DC0000008800
00DC0000008800
00DC0000008800
00DC0000008800
00DC0000008700
00CD0000008600
009F200000C200
002EB100089000
0003ADCBB60000
ENDCHAR
STARTCHAR uhungarumlaut
ENCODING 369
SWIDTH 570 0
DWIDTH 10 0
BBX 10 13 0 0
BITMAP
0000AB5D40
0002E3B900
000852B000
0000000000
6CF204CE70
06F2002F70
05F2000F70
05F2000F70
05F2000F70
05F2000F70
05F3000F70
02F8008F70
006EC93EC5
ENDCHAR
STARTCHAR Uogonek
ENCODING 370
SWIDTH 753 0
DWIDTH 14 0
BBX 14 16 0 -4
BITMAP
7EFFD6002DFFD2
01FE100000AA00
00DC0000008800
00DC0000008800
00DC0000008800
00DC0000008800
00DC0000008800
00DC0000008800
00CD0000008600
009F200000C400
002EB10008C000
0003ADCCEC2000
0000002C500000
000000B6000000
000000F4020000
0000008EA40000
ENDCHAR
STARTCHAR uogonek
ENCODING 371
SWIDTH 570 0
DWIDTH 10 0
BBX 10 13 0 -4
BITMAP
6CF204CE70
06F2002F70
05F2000F70
05F2000F70
05F2000F70
05F2000F70
05F3000F70
02F8008F70
006EC93FD4
0000009600
000006A000
00000A9021
000004DB70
ENDCHAR
STARTCHAR Wcircumflex
ENCODING 372
SWIDTH 944 0
DWIDTH 17 0
BBX 18 16 -1 0
BITMAP
000000004710000000
00000003ECB0000000
0000001B3078000000
000000000000000000
2EFFE51DFFE7009FFC
00CF5000AF500009A0
004F90003F90000B40
000DE1000DE0001D00
0007F6000EF5005800
0001FC0059FB00B300
0000AF30B2AF21D000
00004F92B04F768000
00000DE9500DDB3000
000007FE0007FC0000
000001F90002F70000
000000A30000B20000
ENDCHAR
STARTCHAR wcircumflex
ENCODING 373
SWIDTH 749 0
DWIDTH 13 0
BBX 15 13 -1 0
BITMAP
0000003FA0000000
000000C6C4000000
000007601B100000
0000000000000000
4EFF72EFF705EF90
02FA001EB0007900
009E1009E100B300
003F600CF601C000
000DC038CB066000
0007F3926F2B1000
0001F8A01F8A0000
0000AF500BF40000
00004E0005D00000
ENDCHAR
STARTCHAR Ycircumflex
ENCODING 374
SWIDTH 647 0
DWIDTH 12 0
BBX 13 16 -1 0
BITMAP
00000057000000
000005EC900000
00002B20960000
00000000000000
1DFFE9002DFF90
009FA00002E300
000CF300095000
0003FC003B0000
00008F60B20000
00000DE7800000
000004FD100000
000000EB000000
000000EB000000
000000EB000000
000001FD000000
00009EFFD60000
ENDCHAR
STARTCHAR ycircumflex
ENCODING 375
SWIDTH 483 0
DWIDTH 9 0
BBX 10 17 -1 -4
BITMAP
00003F9000
0000C6C400
0007501B10
0000000000
3EFF702DFB
02FB0004B0
009F100850
003F800C00
000BE13900
0004F68300
0000CCB000
00005F7000
00000F1000
00003A0000
0000B40000
09A9A00000
09EB100000
ENDCHAR
STARTCHAR Ydieresis
ENCODING 376
SWIDTH 647 0
DWIDTH 12 0
BBX 13 15 -1 0
BITMAP
0000AE10BD1000
0000AD10AD0000
00000000000000
1DFFE9002DFF90
009FA00002E300
000CF300095000
0003FC003B0000
00008F60B20000
00000DE7800000
000004FD100000
000000EB000000
000000EB000000
000000EB000000
000001FD000000
00009EFFD60000
ENDCHAR
STARTCHAR Zacute
ENCODING 377
SWIDTH 594 0
DWIDTH 11 0
BBX 11 16 0 0
BITMAP
000003850000
00001DB20000
0000A7000000
000000000000
0BFDBBBCFE10
0C50000AF500
0B00005FA000
010001EE1000
00000BF50000
00006FA00000
0002EE100000
000BF5000000
006FA0000210
02EE10000A10
0CF500004D00
6FFBBBBDFB00
ENDCHAR
STARTCHAR zacute
ENCODING 378
SWIDTH 458 0
DWIDTH 8 0
BBX 8 13 0 0
BITMAP
00009E20
0001E500
00077000
00000000
1FECCDF8
2C000DD1
26008F40
0003F900
000CD100
007F5000
03FA0019
0CE10088
5FECCDF7
ENDCHAR
STARTCHAR Zdotaccent
ENCODING 379
SWIDTH 594 0
DWIDTH 11 0
BBX 11 15 0 0
BITMAP
00003F800000
00003E700000
000000000000
0BFDBBBCFE10
0C50000AF500
0B00005FA000
010001EE1000
00000BF50000
00006FA00000
0002EE100000
000BF5000000
006FA0000210
02EE10000A10
0CF500004D00
6FFBBBBDFB00
ENDCHAR
STARTCHAR zdotaccent
ENCODING 380
SWIDTH 458 0
DWIDTH 8 0
BBX 8 13 0 0
BITMAP
00001000
0008F300
0007E200
00000000
1FECCDF8
2C000DD1
26008F40
0003F900
000CD100
007F5000
03FA0019
0CE10088
5FECCDF7
ENDCHAR
STARTCHAR Zcaron
ENCODING 381
SWIDTH 594 0
DWIDTH 11 0
BBX 11 16 0 0
BITMAP
000610051000
0003D4A80000
00006FB00000
000000000000
0BFDBBBCFE10
0C50000AF500
0B00005FA000
010001EE1000
00000BF50000
00006FA00000
0002EE100000
000BF5000000
006FA0000210
02EE10000A10
0CF500004D00
6FFBBBBDFB00
ENDCHAR
STARTCHAR zcaron
ENCODING 382
SWIDTH 458 0
DWIDTH 8 0
BBX 8 13 0 0
BITMAP
01B10580
004C5C00
0009F400
00000000
1FECCDF8
2C000DD1
26008F40
0003F900
000CD100
007F5000
03FA0019
0CE10088
5FECCDF7
ENDCHAR
STARTCHAR longs
ENCODING 383
SWIDTH 285 0
DWIDTH 5 0
BBX 7 13 0 0
BITMAP
001ADE60
00B70A90
01F50000
02F50000
6CF50000
02F50000
02F50000
02F50000
02F50000
02F50000
02F50000
04F70000
8EFFC200
ENDCHAR
STARTCHAR uni0180
ENCODING 384
SWIDTH 522 0
DWIDTH 9 0
BBX 9 13 0 0
BITMAP
7CE0000000
09E0000000
ADFBBB5000
08E0000000
08E49CD500
08F6009F20
08E0002F80
08E0000FB0
08E0000EB0
08E0000F90
08E0003F40
08F300AA00
03BEBB7000
ENDCHAR
STARTCHAR uni0188
ENCODING 392
SWIDTH 446 0
DWIDTH 8 0
BBX 10 12 0 0
BITMAP
0000005BE5
000000B076
000001A000
006CCEA000
07B109F400
1E4002B300
4F10000000
6F10000000
5F30000000
2F90000400
09F734B200
008EFC3000
ENDCHAR
STARTCHAR uni0190
ENCODING 400
SWIDTH 518 0
DWIDTH 9 0
BBX 9 12 0 0
BITMAP
007CCDD800
0BE200AF60
1FA0001B40
0EB0000000
03D6000000
003DFC6000
05F7000000
1EB0000000
4F80000000
3F90000030
0CE3000760
019DDBA300
ENDCHAR
STARTCHAR uni0192
ENCODING 402
SWIDTH 301 0
DWIDTH 5 0
BBX 9 17 -2 -4
BITMAP
00001ADE60
0000B60A90
0002F40000
0003F40000
007CFCB500
0003F40000
0003F40000
0003F40000
0003F40000
0003F40000
0003F40000
0003F40000
0003F40000
0003F30000
0003F20000
8D15D00000
3DDB300000
ENDCHAR
STARTCHAR uni0195
ENCODING 405
SWIDTH 798 0
DWIDTH 14 0
BBX 14 13 0 0
BITMAP
4AE40000000000
16F40000000000
03F40000000000
03F40000000000
03F58BE7000C90
03FB105F3009F2
03F4001F6001D6
03F4000F800077
03F4000F800057
03F4000F800055
03F4000E800071
04F6000BB00270
5EFE7002CCA800
ENDCHAR
STARTCHAR uni0199
ENCODING 409
SWIDTH 538 0
DWIDTH 10 0
BBX 10 13 0 0
BITMAP
0019BEB100
00A605D300
01F3000000
04F3000000
04F30BFFC0
04F304D300
04F33B1000
04F7B10000
04FCF50000
04F3AF3000
04F31CE200
05F401DD20
6EFE64EFE7
ENDCHAR
STARTCHAR uni019A
ENCODING 410
SWIDTH 287 0
DWIDTH 5 0
BBX 5 13 0 0
BITMAP
39D500
16F500
02F500
02F500
02F500
02F500
5CFD80
02F500
02F500
02F500
02F500
03F600
5EFE80
ENDCHAR
STARTCHAR uni019B
ENCODING 411
SWIDTH 495 0
DWIDTH 9 0
BBX 11 13 -1 0
BITMAP
04EE60020000
0274A8B30000
0005BD000000
00271B200000
00000A700000
00002FC00000
00009E830000
0002F8380000
0009F20C0000
001E90094000
008F20049000
01EC0000E100
2EFF800CFD10
ENDCHAR
STARTCHAR uni019E
ENCODING 414
SWIDTH 559 0
DWIDTH 10 0
BBX 11 13 0 -4
BITMAP
3AE57AE90000
03FB203F5000
02F5000E9000
02F5000DA000
02F5000DA000
02F5000DA000
02F5000DA000
04F6000DA000
5EFE800DA000
0000000DA000
0000000DA000
0000000DB000
0000000DFC10
ENDCHAR
STARTCHAR Ohorn
ENCODING 416
SWIDTH 737 0
DWIDTH 13 0
BBX 13 15 0 0
BITMAP
00000000000D80
00000000000BC0
00000000000980
00039CBDFFB800
006F70005FA000
03F9000006F700
0AF2000000EE00
0EE0000000AF30
1FC00000008F50
1FC00000008F40
0EE0000000AF20
0AF2000000DD00
03F9000004F500
006F70003D8000
0003ACBBB40000
ENDCHAR
STARTCHAR ohorn
ENCODING 417
SWIDTH 516 0
DWIDTH 9 0
BBX 10 12 0 0
BITMAP
00000006D0
00000004F1
00000002D0
006CCEFC40
07E201C900
1F80005F30
4F50002F80
6F40000F90
4F50001F80
1F90004F40
08E300AB00
007DCC8100
ENDCHAR
STARTCHAR uni01A5
ENCODING 421
SWIDTH 522 0
DWIDTH 9 0
BBX 9 17 0 -4
BITMAP
003ADE8000
01E109E000
05E0000000
08E0000000
08E49DD400
08F6009F20
08E0002F80
08E0000EB0
08E0000DB0
08E0000E90
08E0002F40
08F600BB00
08FACC8000
08E0000000
08E0000000
0AF1000000
BFFE800000
ENDCHAR
STARTCHAR uni01AA
ENCODING 426
SWIDTH 298 0
DWIDTH 5 0
BBX 10 17 -2 -4
BITMAP
04BC800000
0A01E40000
2800B90000
0B21BC0000
03AACC0000
0000AC0000
0000AC0000
0000AC0000
0000AC0000
0000AC0000
0000AC0000
0000AC0000
0000AC0000
00009C0000
00008D0000
00004E04E2
000008BEA1
ENDCHAR
STARTCHAR uni01AB
ENCODING 427
SWIDTH 321 0
DWIDTH 6 0
BBX 6 16 0 -4
BITMAP
003100
00C200
07F200
3CFCB2
05F200
05F200
05F200
05F200
05F200
05F200
04F414
00BDB9
000039
000038
02C166
00BCA1
ENDCHAR
STARTCHAR uni01AD
ENCODING 429
SWIDTH 315 0
DWIDTH 6 0
BBX 8 13 0 0
BITMAP
002ACEB1
00C406D2
03F20000
07F20000
3DFCB200
05F20000
05F20000
05F20000
05F20000
05F20000
05F20000
04F41300
00BD9100
ENDCHAR
STARTCHAR Uhorn
ENCODING 431
SWIDTH 762 0
DWIDTH 14 0
BBX 15 16 0 0
BITMAP
0000000000000530
0000000000000FB0
0000000000000AA0
0000000000000830
7EFFD6002DFE5100
01FE100000A90000
00DC000000880000
00DC000000880000
00DC000000880000
00DC000000880000
00DC000000880000
00DC000000870000
00CD000000860000
009F200000C20000
002EA10007800000
0003ADCBB6000000
ENDCHAR
STARTCHAR uhorn
ENCODING 432
SWIDTH 574 0
DWIDTH 10 0
BBX 11 12 0 0
BITMAP
000000000610
000000001E60
000000000C40
5CE204BED800
18F2015F7000
05F2000F7000
05F2000F7000
05F2000F7000
05F2000F7000
05F3000F7000
02F8007F7000
007EC93EC500
ENDCHAR
STARTCHAR uni01B5
ENCODING 437
SWIDTH 594 0
DWIDTH 11 0
BBX 11 12 0 0
BITMAP
0BFDBBBCFE10
0C50000AF500
0A00005F9000
000002ED1000
00000BF30000
00BBDFDB9000
0002ED000000
000CF4000000
007F90000210
02ED10000A10
0CF400004E00
6FFBBBBDFC00
ENDCHAR
STARTCHAR uni01BA
ENCODING 442
SWIDTH 430 0
DWIDTH 8 0
BBX 7 13 0 -4
BITMAP
6FCBCFA0
6600BD10
4109E200
006F3000
02EEB810
00016EB0
00000AF0
00000BD0
0002AD30
04B94000
2A000620
3A006F60
08CCD910
ENDCHAR
STARTCHAR uni01BB
ENCODING 443
SWIDTH 508 0
DWIDTH 9 0
BBX 9 13 0 0
BITMAP
007ADC6000
083007F500
260000EC00
000000DD00
000000EA00
000004F300
1BBBBEDB60
00008A0000
0005C10000
003C100130
01C2000850
1CEDDDDF20
6FFFFFFE00
ENDCHAR
STARTCHAR uni01BE
ENCODING 446
SWIDTH 406 0
DWIDTH 7 0
BBX 7 12 0 0
BITMAP
00230000
00A50000
06F50000
3CFDB600
02F50000
018B9200
00009E30
00000E90
00000CB0
55000DA0
4C102F50
4ACCC700
ENDCHAR
STARTCHAR uni01C0
ENCODING 448
SWIDTH 250 0
DWIDTH 5 0
BBX 2 13 1 0
BITMAP
7F
7F
7F
7F
7F
7F
7F
7F
7F
7F
7F
7F
7F
ENDCHAR
STARTCHAR uni01C1
ENCODING 449
SWIDTH 423 0
DWIDTH 8 0
BBX 6 13 1 0
BITMAP
7F05F1
7F05F1
7F05F1
7F05F1
7F05F1
7F05F1
7F05F1
7F05F1
7F05F1
7F05F1
7F05F1
7F05F1
7F05F1
ENDCHAR
STARTCHAR uni01C2
ENCODING 450
SWIDTH 422 0
DWIDTH 8 0
BBX 7 13 0 0
BITMAP
000E8000
000E8000
000E8000
000E8000
3BBFDBA0
000E8000
000E8000
3BBFDBA0
000E8000
000E8000
000E8000
000E8000
000E8000
ENDCHAR
STARTCHAR uni01C3
ENCODING 451
SWIDTH 245 0
DWIDTH 4 0
BBX 3 13 1 0
BITMAP
7D00
AF10
9F00
8E00
7D00
6C00
5B00
4A00
3900
1600
0000
AE20
9E10
ENDCHAR
STARTCHAR uni01DE
ENCODING 478
SWIDTH 718 0
DWIDTH 13 0
BBX 13 16 0 0
BITMAP
0003BBBBB00000
0007F307F30000
0006E307E30000
00000000000000
000003E0000000
00000AF6000000
00001CDC000000
0000867F400000
0000D12FB00000
0005900AF20000
000C2004F90000
003EBBBBFE1000
00A600007F7000
02D000001FE000
09A000000CF700
CFFA0000CFFFB0
ENDCHAR
STARTCHAR uni01DF
ENCODING 479
SWIDTH 480 0
DWIDTH 9 0
BBX 9 14 0 0
BITMAP
05BBBB9000
0000000000
0AE10BE100
09D10AD100
0000000000
019BDB2000
0BB01DA000
0D800AD000
010009E000
0038ACE000
08D309E000
3F5009E000
3F701AE010
09EB64EA30
ENDCHAR
STARTCHAR uni01F0
ENCODING 496
SWIDTH 263 0
DWIDTH 5 0
BBX 7 17 -2 -4
BITMAP
00B20580
004C5C00
0009F400
00000000
004BE400
0004F400
0003F400
0003F400
0003F400
0003F400
0003F400
0003F400
0003F400
0003F400
0004F200
9D16C000
5DEB2000
ENDCHAR
STARTCHAR Aringacute
ENCODING 506
SWIDTH 718 0
DWIDTH 13 0
BBX 13 20 0 0
BITMAP
00000058300000
000004F8000000
00001C40000000
000009B7000000
0000670B200000
0000670B200000
000019B7000000
00000000000000
000003E0000000
00000AF6000000
00001CDC000000
0000867F400000
0000D12FB00000
0005900AF20000
000C2004F90000
003EBBBBFE1000
00A600007F7000
02D000001FE000
09A000000CF700
CFFA0000CFFFB0
ENDCHAR
STARTCHAR aringacute
ENCODING 507
SWIDTH 480 0
DWIDTH 9 0
BBX 9 17 0 0
BITMAP
0000781000
0007E60000
003C200000
002AB40000
00941C0000
00941C0000
002BB50000
0000000000
019BDB2000
0BB01DA000
0D800AD000
010009E000
0038ACE000
08D309E000
3F5009E000
3F701AE010
09EB64EA30
ENDCHAR
STARTCHAR AEacute
ENCODING 508
SWIDTH 894 0
DWIDTH 16 0
BBX 17 16 -1 0
BITMAP
000000000007810000
00000000007E600000
0000000004B2000000
000000000000000000
0000008FFFCCCDFE00
0000000D9F10003E00
000000678F10000A00
000001D18F10000000
000008708F10019000
00002D108F10059000
0000ADBBDFCBCF9000
0003E1008F10039000
000C50008F10000140
005B00009F10000660
02D50000AF10002E40
5EFE604CFFCCCDFF20
ENDCHAR
STARTCHAR aeacute
ENCODING 509
SWIDTH 709 0
DWIDTH 13 0
BBX 13 13 0 0
BITMAP
000002F9000000
000008C0000000
00001C10000000
00000000000000
03BBD92ABD8000
0E901EF302E700
08400CC000AE00
00016DEBBBCD10
019B5CB0000000
0C900BD0000000
4F4009F3000410
3F702BFD537900
08EA704CFE8000
ENDCHAR
STARTCHAR Oslashacute
ENCODING 510
SWIDTH 737 0
DWIDTH 13 0
BBX 13 16 0 0
BITMAP
00000038400000
000001EB100000
00000B70000000
00000000000000
00039CBCB4A200
006F70006FB000
03F900003DF600
0AF20002B1EE00
0EE0000B20BF30
1FC00094009F50
1FD00670008F40
0EE0490000AF30
0AF4B10000DD00
04FE200004F600
00CF70003D9000
0673ACBBB40000
ENDCHAR
STARTCHAR oslashacute
ENCODING 511
SWIDTH 514 0
DWIDTH 9 0
BBX 9 13 0 0
BITMAP
00009E2000
0001E50000
0007700000
0000000000
006CCD8A00
07E202EB00
1F80089F50
4F50572F80
5F42A00F90
4F6B101F80
1EE3004F40
0AE200AB00
296CBC8100
ENDCHAR
STARTCHAR uni0218
ENCODING 536
SWIDTH 504 0
DWIDTH 9 0
BBX 9 17 0 -5
BITMAP
019CCEFC00
0BB001BD00
1F70002D00
1FC1000A00
09FD400000
008FFA2000
0003CFE500
000006FF20
5500007F70
5A00004F60
4F60009E10
3FFDCCA200
0000000000
0008F50000
0008F90000
0000670000
0005900000
ENDCHAR
STARTCHAR uni0219
ENCODING 537
SWIDTH 394 0
DWIDTH 7 0
BBX 7 14 0 -5
BITMAP
05CBCB10
2F202E10
3F400810
1DF71000
02BFD400
0004DF40
45001F90
4C101E70
4ACBC800
00000000
007F5000
007EA000
00058000
00491000
ENDCHAR
STARTCHAR uni021A
ENCODING 538
SWIDTH 603 0
DWIDTH 11 0
BBX 11 17 0 -5
BITMAP
8FDBDFCBDF70
96006F400870
A0006F400280
10006F400010
00006F400000
00006F400000
00006F400000
00006F400000
00006F400000
00006F400000
00008F600000
002CFFFC1000
000000000000
00007F500000
00007F900000
000006700000
000059000000
ENDCHAR
STARTCHAR uni021B
ENCODING 539
SWIDTH 315 0
DWIDTH 6 0
BBX 6 17 0 -5
BITMAP
003100
00C200
07F200
3CFCB2
05F200
05F200
05F200
05F200
05F200
05F200
04F413
00BD91
000000
009F40
008F80
000760
005800
ENDCHAR
STARTCHAR uni0221
ENCODING 545
SWIDTH 674 0
DWIDTH 12 0
BBX 13 16 0 -3
BITMAP
000005BE000000
000001AF000000
0000008F000000
0000008F000000
004BCCCF000000
05D201DF000000
0E70008F000000
4F40008F000000
6F30008F000000
5F40008F000000
3F80008F04BB10
0CF734BF480920
02BED72BEBB600
00000008300000
00000019000000
00000032000000
ENDCHAR
STARTCHAR uni0228
ENCODING 552
SWIDTH 626 0
DWIDTH 11 0
BBX 11 16 0 -4
BITMAP
3AFFCCCDEF20
00AF10001B20
009F10000310
009F10009000
009F1003B000
009FBBCEB000
009F1001A000
009F10000010
009F100000A0
009F10000590
00AF10002C70
3AFFCCCDFF50
000008000000
00000CC30000
000000980000
00006BB20000
ENDCHAR
STARTCHAR uni0229
ENCODING 553
SWIDTH 464 0
DWIDTH 8 0
BBX 8 13 0 -4
BITMAP
007BCC40
089008E2
1F3001F8
4FCBBBD9
6F200000
4F400000
1FB00005
08FA33A4
007DFD40
00043000
0006C900
00001F00
0019C600
ENDCHAR
STARTCHAR uni0234
ENCODING 564
SWIDTH 399 0
DWIDTH 7 0
BBX 8 16 0 -3
BITMAP
6BE00000
2BE00000
08E00000
08E00000
08E00000
08E00000
08E00000
08E00000
08E00000
08E00000
08E04BB1
07F570A3
01BEBB70
00830000
02900000
04200000
ENDCHAR
STARTCHAR uni0235
ENCODING 565
SWIDTH 702 0
DWIDTH 13 0
BBX 13 12 0 -3
BITMAP
3AE56BE7000000
03FC206F300000
02F5001F600000
02F5000F700000
02F5000F700000
02F5000F700000
02F5000F719C50
04F6000E893190
5EFE8007EDBA20
00000001900000
00000008300000
00000006000000
ENDCHAR
STARTCHAR uni0236
ENCODING 566
SWIDTH 406 0
DWIDTH 7 0
BBX 8 15 0 -3
BITMAP
00310000
00C20000
07F20000
3CFCB400
05F20000
05F20000
05F20000
05F20000
05F20000
05F23BB2
04F59165
009FCB80
00560000
00A00000
02400000
ENDCHAR
STARTCHAR uni0237
ENCODING 567
SWIDTH 263 0
DWIDTH 5 0
BBX 6 13 -2 -4
BITMAP
004BE4
0004F4
0003F4
0003F4
0003F4
0003F4
0003F4
0003F4
0003F4
0003F4
0004F2
9D16C0
5DEB20
ENDCHAR
STARTCHAR uni0250
ENCODING 592
SWIDTH 475 0
DWIDTH 9 0
BBX 8 9 0 0
BITMAP
6DB29DD3
16F400DC
05F200CB
05F206E3
05F9A710
05F30010
05F300E6
02F702F4
006DCB60
ENDCHAR
STARTCHAR uni0251
ENCODING 593
SWIDTH 542 0
DWIDTH 10 0
BBX 10 9 0 0
BITMAP
004BCC8E00
05E201DE00
0E70008E00
4F40008E00
6F20008E00
5F30008E00
3F60008E00
0CD100AF00
02BEA9AE71
ENDCHAR
STARTCHAR uni0252
ENCODING 594
SWIDTH 544 0
DWIDTH 10 0
BBX 10 9 0 0
BITMAP
29E89BE900
03F8003F80
03F4000AE0
03F40007F2
03F40006F2
03F40007F0
03F5000BA0
03FA005E20
03B9CCA200
ENDCHAR
STARTCHAR uni0253
ENCODING 595
SWIDTH 518 0
DWIDTH 9 0
BBX 8 13 1 0
BITMAP
03ADE700
1E10AD00
7D000000
9D000000
9D49DD40
9F500AE2
9D0003F7
9D0000FA
9D0000FA
9D0001F8
9D0004F3
9E201B90
4BEBB700
ENDCHAR
STARTCHAR uni0254
ENCODING 596
SWIDTH 454 0
DWIDTH 8 0
BBX 8 9 0 0
BITMAP
02BEE910
1B537FB0
410007F3
000001F7
000000E8
000000E6
2C3002F2
2FA00A90
06DCC700
ENDCHAR
STARTCHAR uni0255
ENCODING 597
SWIDTH 447 0
DWIDTH 8 0
BBX 8 11 0 -2
BITMAP
006CCD80
07B108F4
1E300172
4F100000
6F100000
5F305BA1
2FA49066
0AFD1075
01BEDA80
00A00000
03700000
ENDCHAR
STARTCHAR uni0256
ENCODING 598
SWIDTH 528 0
DWIDTH 10 0
BBX 12 17 0 -4
BITMAP
000006BE0000
000001AF0000
0000008F0000
0000008F0000
004BCCCF0000
05E201DF0000
0E70008F0000
4F40008F0000
6F30008F0000
5F30008F0000
3F60008F0000
0CD100AF0000
02BEA9AF0000
0000007F0000
0000006F0000
0000002F12E4
00000006CEC2
ENDCHAR
STARTCHAR uni0257
ENCODING 599
SWIDTH 542 0
DWIDTH 10 0
BBX 12 13 0 0
BITMAP
00000004BDD4
0000001E21C8
0000005F0000
0000007E0000
004BCCCE0000
05E201DE0000
0E70008E0000
4F40008E0000
6F30008E0000
5F30008E0000
3F60008E0000
0CD100AF0000
02BEB9AE7200
ENDCHAR
STARTCHAR uni0258
ENCODING 600
SWIDTH 466 0
DWIDTH 8 0
BBX 8 9 0 0
BITMAP
008CBB30
09D104E1
2F7000C7
4DCBBBEA
000000BB
000000DA
320005F6
0B636ED1
01AEEA10
ENDCHAR
STARTCHAR uni0259
ENCODING 601
SWIDTH 464 0
DWIDTH 8 0
BBX 8 9 0 0
BITMAP
01AEE910
0B536ED0
320005F6
000000EA
000000CB
4DCBBBEA
2F6000D6
0AC004D1
019CBA20
ENDCHAR
STARTCHAR uni025A
ENCODING 602
SWIDTH 642 0
DWIDTH 12 0
BBX 12 9 0 0
BITMAP
01AEE9100000
0B636ED05402
320005FBB726
000000EA2CA1
000000CB0000
4DCBBBEA0000
2F6000D60000
0AC004D10000
019CBA200000
ENDCHAR
STARTCHAR uni025B
ENCODING 603
SWIDTH 399 0
DWIDTH 7 0
BBX 7 9 0 0
BITMAP
04BCDB20
1E701EA0
2F400330
0AA10000
01BEC100
1C900000
5F400000
3F700160
06CCB910
ENDCHAR
STARTCHAR uni025C
ENCODING 604
SWIDTH 398 0
DWIDTH 7 0
BBX 7 9 0 0
BITMAP
1ADCC600
7F305F30
24002F50
00008C10
00BEC200
00007E20
00001F70
52004F50
09CBC700
ENDCHAR
STARTCHAR uni025D
ENCODING 605
SWIDTH 575 0
DWIDTH 10 0
BBX 11 9 0 0
BITMAP
1ADBC6000000
7E205F341000
12002FAD4530
00007705C900
00BED6000000
00007F500000
00001F700000
52004F400000
09CBC6000000
ENDCHAR
STARTCHAR uni025E
ENCODING 606
SWIDTH 500 0
DWIDTH 9 0
BBX 9 9 0 0
BITMAP
004BBCB300
05E3008E10
1E70005F20
4F3001AA00
5F20CEB100
4F30009C10
1E70004F50
06E2009F30
004BBCC600
ENDCHAR
STARTCHAR uni025F
ENCODING 607
SWIDTH 272 0
DWIDTH 5 0
BBX 7 13 -2 -4
BITMAP
003AE500
0002F500
0002F500
007DFD90
0002F500
0002F500
0002F500
0002F500
0002F500
0002F400
0103F200
8E25C000
4DEB2000
ENDCHAR
STARTCHAR uni0260
ENCODING 608
SWIDTH 541 0
DWIDTH 10 0
BBX 12 17 0 -4
BITMAP
00000003ADE8
0000001E20AE
0000006E0000
0000008E0000
004BBBCE0000
05D201DE0000
0E60009E0000
4F30008E0000
6F30008E0000
5F40008E0000
3F80008E0000
0BF635DE0000
02BFD79E0000
0000009D0000
031000BB0000
0EC103F40000
05CEBB400000
ENDCHAR
STARTCHAR uni0261
ENCODING 609
SWIDTH 521 0
DWIDTH 9 0
BBX 8 13 0 -4
BITMAP
004BBC8C
05D201DE
0E60009E
4F30008E
6F30008E
5F40008E
3F80008E
0BF635DE
02BFD79E
0000009D
031000BA
0EC103F4
05CEBB40
ENDCHAR
STARTCHAR uni0262
ENCODING 610
SWIDTH 535 0
DWIDTH 10 0
BBX 10 9 0 0
BITMAP
004BCCFF50
06F4002D50
1E90000550
4F60000000
6F4003DDD3
5F60002F60
1F90001F50
08F5003F50
006CDBC600
ENDCHAR
STARTCHAR uni0263
ENCODING 611
SWIDTH 479 0
DWIDTH 9 0
BBX 10 13 -1 -4
BITMAP
3EFF602DFD
02FA0004C0
009E100850
003F600D00
000CC05800
0006F3B200
0001F9A000
0000AF4000
00006F6000
0000BBC000
000295F100
000483F100
0001CD9000
ENDCHAR
STARTCHAR uni0264
ENCODING 612
SWIDTH 466 0
DWIDTH 8 0
BBX 9 9 0 0
BITMAP
6DC94AD900
E709E13F30
411AC90600
00835F2000
00A00E7000
02800CA000
03800CA000
01B01E6000
006CC80000
ENDCHAR
STARTCHAR uni0265
ENCODING 613
SWIDTH 553 0
DWIDTH 10 0
BBX 10 13 0 -4
BITMAP
5BE2018D80
18F2003F80
05F2000F80
05F2000F80
05F2000F80
05F2000F80
04F3000F80
01F8007F80
006EB93F80
0000000F80
0000000F80
0000000F90
0000000FFB
ENDCHAR
STARTCHAR uni0266
ENCODING 614
SWIDTH 577 0
DWIDTH 10 0
BBX 10 13 0 0
BITMAP
0019BEB200
009605E400
01F4000000
03F4000000
03F57AE900
03FB103F50
03F4000E90
03F4000CA0
03F4000CA0
03F4000CA0
03F4000CA0
04F6000DB0
5EFE71DFFC
ENDCHAR
STARTCHAR uni0267
ENCODING 615
SWIDTH 562 0
DWIDTH 10 0
BBX 9 17 0 -4
BITMAP
0019BEB200
009605E400
01F4000000
03F4000000
03F57AE900
03FB103F50
03F4000E90
03F4000CA0
03F4000CA0
03F4000CA0
03F4000CA0
04F6000CA0
5EFE700CA0
0000000CA0
0000000D70
0003E41E30
0001CEC600
ENDCHAR
STARTCHAR uni0268
ENCODING 616
SWIDTH 295 0
DWIDTH 5 0
BBX 5 13 0 0
BITMAP
02E700
03F800
001000
000000
29D600
15F600
01F600
01F600
5CFD80
01F600
01F600
02F700
4DFE80
ENDCHAR
STARTCHAR uni0269
ENCODING 617
SWIDTH 286 0
DWIDTH 5 0
BBX 6 9 0 0
BITMAP
5BE200
18F200
05F200
05F200
05F200
05F200
05F200
04F313
00BD91
ENDCHAR
STARTCHAR uni026A
ENCODING 618
SWIDTH 287 0
DWIDTH 5 0
BBX 5 9 0 0
BITMAP
5EFE70
03F600
02F500
02F500
02F500
02F500
02F500
03F600
5EFE70
ENDCHAR
STARTCHAR uni026B
ENCODING 619
SWIDTH 290 0
DWIDTH 5 0
BBX 6 13 0 0
BITMAP
3AE500
15F500
02F500
02F500
02F500
5CF552
72FD80
12F500
02F500
02F500
02F500
04F600
5EFE80
ENDCHAR
STARTCHAR uni026C
ENCODING 620
SWIDTH 318 0
DWIDTH 6 0
BBX 7 13 -1 0
BITMAP
008CD000
000BD000
000AD000
000AD000
05CED000
0E1AD000
1E1AD160
0ACCEC20
004CD000
000AD000
000AD000
000BE000
00BFFD30
ENDCHAR
STARTCHAR uni026D
ENCODING 621
SWIDTH 248 0
DWIDTH 4 0
BBX 7 17 0 -4
BITMAP
7BE00000
1AE00000
08E00000
08E00000
08E00000
08E00000
08E00000
08E00000
08E00000
08E00000
08E00000
08E00000
08E00000
08E00000
06E00000
02F24F40
005CEC10
ENDCHAR
STARTCHAR uni026E
ENCODING 622
SWIDTH 590 0
DWIDTH 11 0
BBX 11 17 0 -4
BITMAP
4AE400000000
05F400000000
03F400000000
03F400000000
03FCBBBBFE00
03F40006F600
03F4002EA000
03F400BE1000
03F407F50000
03F41ED40000
03F4025CD300
04F60001CE10
5EFE80006F40
000000005F50
000320008F20
000DC004E700
0005DCBA3000
ENDCHAR
STARTCHAR uni026F
ENCODING 623
SWIDTH 846 0
DWIDTH 15 0
BBX 15 9 0 0
BITMAP
5BE204BE402AD600
17F2006F4003F600
05F2004F4001F600
05F2004F4001F600
05F2004F4001F600
05F2004F4001F600
05F2004F4001F600
02F601BF8019F700
007EB817EB82FC50
ENDCHAR
STARTCHAR uni0270
ENCODING 624
SWIDTH 826 0
DWIDTH 15 0
BBX 15 13 0 -4
BITMAP
5BE204AE402AD600
18F2016F4004F600
05F2004F4001F600
05F2004F4001F600
05F2004F4001F600
05F2004F4001F600
05F2004F4001F600
02F601AF8019F600
007EB827EB82F600
000000000000F600
000000000000F600
000000000000F700
000000000000FFA0
ENDCHAR
STARTCHAR uni0271
ENCODING 625
SWIDTH 835 0
DWIDTH 15 0
BBX 14 13 0 -4
BITMAP
3AE57AEA17AEA0
03FC204FD302F6
02F5000F8000E9
02F5000F8000D9
02F5000F8000D9
02F5000F8000D9
02F5000F8000D9
03F6001F9000D9
5EFE84DFFB00D9
000000000000D9
000000000000E7
000000004E41F2
000000002CEC50
ENDCHAR
STARTCHAR uni0272
ENCODING 626
SWIDTH 574 0
DWIDTH 10 0
BBX 12 13 -2 -4
BITMAP
003AE46AE900
0003FB204F50
0003F5000E80
0003F4000D90
0003F4000D90
0003F4000D90
0003F4000D90
0003F4000EB0
0003F402DFFB
0003F4000000
0003F2000000
8C16C0000000
5EDB20000000
ENDCHAR
STARTCHAR uni0273
ENCODING 627
SWIDTH 563 0
DWIDTH 10 0
BBX 12 13 0 -4
BITMAP
3AE57AE90000
03FB104F5000
03F5000E8000
03F5000DA000
03F5000DA000
03F5000DA000
03F5000DA000
04F6000DA000
5EFE800DA000
0000000CA000
0000000AA000
00000005C07D
000000008CE9
ENDCHAR
STARTCHAR uni0274
ENCODING 628
SWIDTH 568 0
DWIDTH 10 0
BBX 10 9 0 0
BITMAP
8FF5005EFC
07FE2003C0
05BFC101A0
0567FA01A0
0560AF61A0
05601CF4A0
056002EEA0
0780003FA0
8EF80006A0
ENDCHAR
STARTCHAR uni0275
ENCODING 629
SWIDTH 514 0
DWIDTH 9 0
BBX 9 9 0 0
BITMAP
006CCD9100
07E301DC00
1F80005F50
4F50002F80
6FCBBBBF90
4F60001F80
1F90003F40
08E300AB00
007CCC8100
ENDCHAR
STARTCHAR uni0276
ENCODING 630
SWIDTH 732 0
DWIDTH 13 0
BBX 13 9 0 0
BITMAP
006CCDFEBBDF10
07E300DB000A20
1F9000CB000310
4F6000CB009000
6F5000CEBCF000
5F6000CB009000
1F9000CB000160
08E300DB000860
006CCCFEBBDF40
ENDCHAR
STARTCHAR uni0277
ENCODING 631
SWIDTH 672 0
DWIDTH 12 0
BBX 12 9 0 0
BITMAP
0017CBBC8100
01DA10019D20
0BC000000BC0
2F70089005F3
5F500EF003F6
6F500BD003F7
3F7008A005F4
0BD00AA00CC0
01ADB42ACA10
ENDCHAR
STARTCHAR uni0278
ENCODING 632
SWIDTH 658 0
DWIDTH 12 0
BBX 12 17 0 -4
BITMAP
00018C900000
00001D900000
00000C900000
00000C900000
004BCEDDB400
05F60C909F50
0EA00C900DD0
4F600C9008F2
5F400C9007F3
5F600C9008F1
1FA00C900BB0
08F40C905E30
006CAEDAA200
00000C900000
00000C900000
00000DB00000
0001CFFC0000
ENDCHAR
STARTCHAR uni0279
ENCODING 633
SWIDTH 380 0
DWIDTH 7 0
BBX 7 9 0 0
BITMAP
02CFFD40
0009F100
0007F000
0007F000
0007F000
0007F000
000BF000
BB99F300
AE57D810
ENDCHAR
STARTCHAR uni027A
ENCODING 634
SWIDTH 374 0
DWIDTH 7 0
BBX 7 13 0 0
BITMAP
006BE000
0019F000
0007F000
0007F000
0007F000
0007F000
0007F000
0007F000
0007F000
0007F000
000BF000
BB99F300
AE57D810
ENDCHAR
STARTCHAR uni027B
ENCODING 635
SWIDTH 375 0
DWIDTH 7 0
BBX 9 13 0 -4
BITMAP
02CFFD4000
0009F10000
0007F00000
0007F00000
0007F00000
0007F00000
000BF00000
BB99F00000
AE57F00000
0006F00000
0004F00000
0001E33E50
00004CEC20
ENDCHAR
STARTCHAR uni027C
ENCODING 636
SWIDTH 378 0
DWIDTH 7 0
BBX 7 13 0 -4
BITMAP
29D47E70
16F99D80
03FA0000
03F40000
03F40000
03F40000
03F40000
03F40000
03F40000
03F40000
03F40000
04F60000
6EFFB000
ENDCHAR
STARTCHAR uni027D
ENCODING 637
SWIDTH 373 0
DWIDTH 7 0
BBX 7 13 0 -4
BITMAP
4AE39E60
06F96C50
04F70000
04F30000
04F30000
04F30000
04F30000
04F30000
04F30000
04F30000
02F40000
00C61D80
003BED40
ENDCHAR
STARTCHAR uni027E
ENCODING 638
SWIDTH 371 0
DWIDTH 7 0
BBX 7 9 0 0
BITMAP
002ADD40
00B61B50
02F40000
04F30000
04F30000
04F30000
04F30000
05F50000
7EFEA000
ENDCHAR
STARTCHAR uni027F
ENCODING 639
SWIDTH 371 0
DWIDTH 7 0
BBX 7 9 0 0
BITMAP
8EB80000
970B6000
0009C000
0008E000
0008F000
0008F000
0008F000
000AF100
02CFFD30
ENDCHAR
STARTCHAR uni0280
ENCODING 640
SWIDTH 494 0
DWIDTH 9 0
BBX 10 9 0 0
BITMAP
2BFCAC8000
03F502F700
02F500E900
02F506E300
02FDEB2000
02F58F3000
02F51DD100
03F503FA00
5EFE609FD2
ENDCHAR
STARTCHAR uni0281
ENCODING 641
SWIDTH 494 0
DWIDTH 9 0
BBX 10 9 0 0
BITMAP
5EFE609FD2
03F503FA00
02F51DD100
02F58E3000
02FDEB2000
02F506E300
02F500E900
03F502F700
3BFDBC8000
ENDCHAR
STARTCHAR uni0282
ENCODING 642
SWIDTH 395 0
DWIDTH 7 0
BBX 7 13 0 -4
BITMAP
05BBBB10
2F201E10
3F400810
1DF81000
02BFE500
1005DF40
46001F90
4C101E70
4CBAB800
48000000
29000000
0B096000
06BD3000
ENDCHAR
STARTCHAR uni0283
ENCODING 643
SWIDTH 253 0
DWIDTH 5 0
BBX 9 17 -2 -4
BITMAP
00004BEC20
0001E22E60
0004F10000
0006F00000
0007F00000
0007F00000
0007F00000
0007F00000
0007F00000
0007F00000
0007F00000
0007F00000
0007F00000
0007F00000
0007D00000
C909900000
6ECB100000
ENDCHAR
STARTCHAR uni0284
ENCODING 644
SWIDTH 286 0
DWIDTH 5 0
BBX 9 17 -2 -4
BITMAP
00001ACE50
0000980960
0000E50000
0002F50000
0003F50000
0003F50000
0003F50000
0003F50000
0003F50000
0003F50000
0003F50000
0003F50000
007CFD9000
0003F50000
0003F20000
3915C00000
4DDA200000
ENDCHAR
STARTCHAR uni0285
ENCODING 645
SWIDTH 361 0
DWIDTH 7 0
BBX 9 13 0 -4
BITMAP
6EC9000000
B809700000
0007C00000
0007E00000
0007F00000
0007F00000
0007F00000
0007F00000
0007F00000
0007F00000
0005F00000
0002F22E50
00005BEB20
ENDCHAR
STARTCHAR uni0286
ENCODING 646
SWIDTH 253 0
DWIDTH 5 0
BBX 9 17 -2 -4
BITMAP
00004BEC30
0001E22E60
0005F10000
0006F00000
0007F00000
0007F00000
0007F00000
0007F00000
0007F00000
0007F00000
0007F00000
0007F00000
0007F00000
07BDF10000
7708EB4000
840A902000
2BCA100000
ENDCHAR
STARTCHAR uni0287
ENCODING 647
SWIDTH 315 0
DWIDTH 6 0
BBX 5 12 0 -3
BITMAP
3AE700
409E00
007F00
007F00
007F00
007F00
007F00
007F00
6BDFA0
007E20
007700
004100
ENDCHAR
STARTCHAR uni0288
ENCODING 648
SWIDTH 309 0
DWIDTH 6 0
BBX 7 16 0 -4
BITMAP
00320000
00B30000
05F30000
2DFDC300
04F30000
04F30000
04F30000
04F30000
04F30000
04F30000
04F30000
04F30000
03F30000
01F40000
00C61D80
002BED40
ENDCHAR
STARTCHAR uni0289
ENCODING 649
SWIDTH 580 0
DWIDTH 10 0
BBX 10 9 0 0
BITMAP
4BE303AE80
04F3000E80
04F3000E80
6CFCBBBFD9
04F3000E80
04F3000E80
03F5000E80
01EA008F90
005DC93DD5
ENDCHAR
STARTCHAR uni028A
ENCODING 650
SWIDTH 548 0
DWIDTH 10 0
BBX 10 9 0 0
BITMAP
0CEC00EEB0
0094006800
04D0001E30
0C90000BA0
2F700009E0
3F700009F1
1FA0000CD0
08F3005F50
006CCCB400
ENDCHAR
STARTCHAR uni028B
ENCODING 651
SWIDTH 530 0
DWIDTH 10 0
BBX 9 9 0 0
BITMAP
5CF2009B00
06F2006F50
05F2000B90
05F20004A0
05F20002A0
05F2000280
04F3000630
01F9003800
004CCB7000
ENDCHAR
STARTCHAR uni028C
ENCODING 652
SWIDTH 495 0
DWIDTH 9 0
BBX 10 9 -1 0
BITMAP
00003F1000
00009F7000
0001BBD000
000675F400
000C11E900
003A009E10
0095004F60
01E0000EC0
2EFC009FFD
ENDCHAR
STARTCHAR uni028D
ENCODING 653
SWIDTH 764 0
DWIDTH 14 0
BBX 15 9 -1 0
BITMAP
00004E0005D00000
0000AF500BF40000
0001ACA029EA0000
000667F1849F1000
000C12F6B03F7000
003A00BE700CD000
0085006F3006F400
01E1002F9001FB00
1DFC00CFFA0CFFC0
ENDCHAR
STARTCHAR uni028E
ENCODING 654
SWIDTH 492 0
DWIDTH 9 0
BBX 10 13 -1 0
BITMAP
0000002CE7
000000D8B6
0000068000
00000C1000
00004C0000
00009F2000
0001AE9000
000669E100
000B13F800
002B00BE10
0086004F70
01E1000DD1
1DFC00AFFD
ENDCHAR
STARTCHAR uni028F
ENCODING 655
SWIDTH 454 0
DWIDTH 8 0
BBX 10 9 -1 0
BITMAP
3EFE404EE5
02E9000940
006F303800
000BD0A100
0002EB6000
00009E0000
00008E0000
00009F0000
000AFFD300
ENDCHAR
STARTCHAR uni0290
ENCODING 656
SWIDTH 458 0
DWIDTH 8 0
BBX 11 13 0 -4
BITMAP
1FDBBDF70000
2C000DD10000
25008F400000
0003F9000000
000CE1000000
007F50000000
02FA00190000
0CE100780000
5FEBBDF70000
000000570000
000000470000
0000002A0A50
00000007BD30
ENDCHAR
STARTCHAR uni0291
ENCODING 657
SWIDTH 458 0
DWIDTH 8 0
BBX 8 12 0 -3
BITMAP
1FDBBDF7
2C000DD1
26008F40
0003F900
000CE100
007F5000
02FA07C9
0CE1950C
5FECEBA6
000B1000
00570000
00810000
ENDCHAR
STARTCHAR uni0292
ENCODING 658
SWIDTH 443 0
DWIDTH 8 0
BBX 8 13 0 -4
BITMAP
4FDBBEF5
49002EB0
3300BE10
0007F500
003F9000
00AF8300
00017E90
000006F5
000000FA
000000FA
370003F6
8F401BB0
1BDBB600
ENDCHAR
STARTCHAR uni0293
ENCODING 659
SWIDTH 443 0
DWIDTH 8 0
BBX 8 16 0 -7
BITMAP
4FDBBEF5
49002EB0
3300BE10
0007F500
003F9000
00AF8300
00017E90
000006F5
000002F9
1BB201F9
662B03F5
4A056BC0
06BBF910
00004800
00000A20
00000250
ENDCHAR
STARTCHAR uni0294
ENCODING 660
SWIDTH 383 0
DWIDTH 7 0
BBX 7 13 0 0
BITMAP
06CCC700
5F203F60
5C000CB0
00000CC0
00000EA0
00005F40
0006D500
02E70000
03F40000
03F40000
03F40000
04F60000
6EFEA000
ENDCHAR
STARTCHAR uni0295
ENCODING 661
SWIDTH 383 0
DWIDTH 7 0
BBX 7 13 0 0
BITMAP
06CBC700
6F204F40
CB001D40
EA000000
CC000000
6F300000
06D50000
0019E100
0006F100
0006F100
0006F100
0008F300
00BFFE50
ENDCHAR
STARTCHAR uni0296
ENCODING 662
SWIDTH 408 0
DWIDTH 7 0
BBX 7 13 0 0
BITMAP
29D70000
13F70000
00F70000
00F70000
00F70000
00F80000
0017D400
00005F30
00000EA0
00000CC0
4A000CB0
6F101F50
08A8A600
ENDCHAR
STARTCHAR uni0297
ENCODING 663
SWIDTH 437 0
DWIDTH 8 0
BBX 8 12 0 -3
BITMAP
004BCD70
03E209F4
0C8002C4
2F400000
4F200000
6F100000
6F100000
5F200000
2F500000
0CA00003
04F50083
004BCA30
ENDCHAR
STARTCHAR uni0298
ENCODING 664
SWIDTH 736 0
DWIDTH 13 0
BBX 13 13 0 0
BITMAP
00029CBCB40000
006E60004E9000
03F6000003F700
0CC00000009F10
2F700000004F60
5F5005E7001F80
6F4006F9000FA0
5F500020001F90
2F700000004F60
0CC00000009E10
03F5000003F700
005E60004E9000
00029CBCA40000
ENDCHAR
STARTCHAR uni0299
ENCODING 665
SWIDTH 485 0
DWIDTH 9 0
BBX 9 9 0 0
BITMAP
4CFDCD9000
03F503F700
02F500F900
02F505D300
02FDDE7000
02F503EC00
02F5009F10
03F500BD00
4CFDCCA200
ENDCHAR
STARTCHAR uni029A
ENCODING 666
SWIDTH 500 0
DWIDTH 9 0
BBX 9 9 0 0
BITMAP
03BCBB4000
1E8003E500
2F40007E10
0AA1003F40
01BEC02F50
1C90003F40
5F40007E10
3F9002E600
06CCBB4000
ENDCHAR
STARTCHAR uni029B
ENCODING 667
SWIDTH 536 0
DWIDTH 10 0
BBX 12 12 0 0
BITMAP
000000009CD2
000000039093
000000066000
004BCCEF6000
06F4001C6000
1E9000034000
4F6000000000
5F5002DDD300
4F60002F7000
1F90001F6000
08F5003F6000
006CDBC71000
ENDCHAR
STARTCHAR uni029C
ENCODING 668
SWIDTH 599 0
DWIDTH 11 0
BBX 11 9 0 0
BITMAP
5EFE70AFFD20
04F60009F100
02F50008E000
02F50008E000
02FDBBBDE000
02F50008E000
02F50008E000
03F60008F000
5EFE709FFD20
ENDCHAR
STARTCHAR uni029D
ENCODING 669
SWIDTH 263 0
DWIDTH 5 0
BBX 7 16 -2 -4
BITMAP
0005E500
0006F600
00001000
004BE400
0004F400
0003F400
0003F400
0003F400
0003F400
0003F400
0003F400
0003F400
05BCF500
3B04FA70
4806D020
0ABC3000
ENDCHAR
STARTCHAR uni029E
ENCODING 670
SWIDTH 542 0
DWIDTH 10 0
BBX 10 13 0 -4
BITMAP
CFFD0AFFD2
05F9009F00
006F708E00
0008F58E00
0000AFCE00
00003C9E00
0004B18E00
006D108E00
3DFF708E00
0000008E00
0000008E00
0000008F10
0000008FD4
ENDCHAR
STARTCHAR uni029F
ENCODING 671
SWIDTH 440 0
DWIDTH 8 0
BBX 8 9 0 0
BITMAP
7EFE6000
07F30000
05F20000
05F20000
05F20000
05F20000
05F20006
06F20067
5DFCABF5
ENDCHAR
STARTCHAR uni02A0
ENCODING 672
SWIDTH 541 0
DWIDTH 10 0
BBX 12 17 0 -4
BITMAP
00000003ADE8
0000001E209E
0000005E0000
0000008E0000
004BCCDE0000
05D201DE0000
0E60009E0000
4F30008E0000
6F30008E0000
5F40008E0000
3F80008E0000
0BF635DE0000
02BFD79E0000
0000008E0000
0000008E0000
000000AF0000
00003CFFD100
ENDCHAR
STARTCHAR uni02A1
ENCODING 673
SWIDTH 393 0
DWIDTH 7 0
BBX 7 13 0 0
BITMAP
05CBC800
4F402E70
4E100BC0
00000AE0
00000CC0
00002F60
0003C800
01CA2000
02F60000
5CFDB500
02F60000
03F70000
5EFFB000
ENDCHAR
STARTCHAR uni02A2
ENCODING 674
SWIDTH 393 0
DWIDTH 7 0
BBX 7 13 0 0
BITMAP
05CBC700
4F303F50
AD000E50
CB000000
BD000000
6F300000
08D30000
0029C200
0005F300
04BCFC60
0005F300
0006F400
00AEFE60
ENDCHAR
STARTCHAR uni02A3
ENCODING 675
SWIDTH 830 0
DWIDTH 15 0
BBX 15 13 0 0
BITMAP
000005BE00000000
000001AF00000000
0000008F00000000
0000008F00000000
004BCDDFCCCCEF40
05E301CF0002FC00
0E70008F000BE200
4F40008F005F6000
6F30008F01DB0000
5F30008F08E20000
3F60008F3F600430
0CD100AFCB000B40
02BEA9AFFDCCEF30
ENDCHAR
STARTCHAR uni02A4
ENCODING 676
SWIDTH 838 0
DWIDTH 15 0
BBX 15 17 0 -4
BITMAP
000005BE00000000
000001AF00000000
0000008F00000000
0000008F00000000
004BCCDFBBBBDF70
05E301CF0001DE10
0E70008F0008F500
4F40008F002FB000
6F30008F00BE2000
5F30008F05F70000
3F60008F06AD9200
0CD100AF0001BE30
02BEA9AE81001F90
0000000000000EB0
0000000140001F80
00000007F3008D10
00000001BC9A7100
ENDCHAR
STARTCHAR uni02A5
ENCODING 677
SWIDTH 829 0
DWIDTH 15 0
BBX 15 16 0 -3
BITMAP
000005BE00000000
000001AF00000000
0000008F00000000
0000008F00000000
004BCCDFBBBBEF40
05E300CF0002FB00
0E70008F000BE200
4F40008F005F6000
6F30008F01EB0000
5F30008F09E20000
3F60008F3F62AC50
0CD100AFCB1A2290
02BEA9AFFCDCAA30
0000000003900000
000000000A100000
0000000016000000
ENDCHAR
STARTCHAR uni02A6
ENCODING 678
SWIDTH 614 0
DWIDTH 11 0
BBX 11 12 0 0
BITMAP
003100000000
00B200000000
04F200000000
1BFCBFECCC10
05F24F102E10
05F24F300810
05F20DE70000
05F2019FD400
05F20003CF30
05F300001F70
01EA10006F40
002ADCBCA400
ENDCHAR
STARTCHAR uni02A7
ENCODING 679
SWIDTH 513 0
DWIDTH 9 0
BBX 12 17 0 -4
BITMAP
00000008BEA0
0010005C05D1
00A200AB0000
06F200CB0000
3DFCBBEB0000
05F200CB0000
05F200CB0000
05F200CB0000
05F200CB0000
05F200CB0000
05F200CB0000
04F403CB0000
00BD91CB0000
000000CA0000
000000C80000
001E40E50000
000AEB800000
ENDCHAR
STARTCHAR uni02A8
ENCODING 680
SWIDTH 687 0
DWIDTH 12 0
BBX 12 12 0 0
BITMAP
003100000000
00B200000000
05F200000000
2CFCB23BBDB2
05F202D203FA
05F20A800033
05F20E600000
05F21F600000
05F20EA05BB3
05F30BFA601B
04F506FC1029
00BEA76CDB91
ENDCHAR
STARTCHAR uni02A9
ENCODING 681
SWIDTH 866 0
DWIDTH 16 0
BBX 15 17 0 -4
BITMAP
002ADE6000000000
00A70BA000000000
01F5000000000000
02F5000000000000
6DFDCCDFC39CD400
02F5000AE700AD00
02F5000AD0006F20
02F5000AD0005F30
02F5000AD0005F30
02F5000AD0005F30
02F5000AD0005F30
04F7000BE0005F30
8EFFC2BFFD205F30
0000000000005F20
0000000000005F00
000000000AB08A00
0000000006EDA100
ENDCHAR
STARTCHAR uni02AA
ENCODING 682
SWIDTH 595 0
DWIDTH 11 0
BBX 11 13 0 0
BITMAP
6BE000000000
1AE000000000
08E000000000
08E000000000
08E008CCAA00
08E07C006B00
08E09D100900
08E04FD50000
08E004DFB200
08E00007ED00
08E000006F30
05F300019E10
006BBBBC8200
ENDCHAR
STARTCHAR uni02AB
ENCODING 683
SWIDTH 580 0
DWIDTH 10 0
BBX 10 13 0 0
BITMAP
4AE4000000
05F4000000
03F4000000
03F4000000
03FDCCCDF9
03F4000BE1
03F4005F60
03F401DC00
03F408F300
03F42F8000
03F4BD100A
03FAF50069
4CFFFCCDF9
ENDCHAR
STARTCHAR uni02AC
ENCODING 684
SWIDTH 599 0
DWIDTH 11 0
BBX 11 13 0 0
BITMAP
AFD1DF909F80
0C801F402900
05E13CB08200
00C882F49000
005E70AD3000
000810370000
ADD1DD909D80
1E703F301B00
08C00F805500
02F359D09100
00C881F49000
006D70BC4000
001F306D0000
ENDCHAR
STARTCHAR uni02AD
ENCODING 685
SWIDTH 479 0
DWIDTH 9 0
BBX 7 12 1 0
BITMAP
BFFFFF50
B6222A50
B4000A50
B4000A50
B4000A50
83000740
00000000
BFFFFF50
B6333B50
B4000A50
B4000A50
B4000A50
ENDCHAR
STARTCHAR uni02AE
ENCODING 686
SWIDTH 595 0
DWIDTH 11 0
BBX 12 13 -1 -4
BITMAP
5EC900039E40
5A0A70017F40
0007C0003F40
0007F0003F40
0007F0003F40
0007F0003F40
0006F2003F40
0003F601AF40
00007EA85F40
000000003F40
000000003F40
000000003F50
000000003FE8
ENDCHAR
STARTCHAR uni02AF
ENCODING 687
SWIDTH 600 0
DWIDTH 11 0
BBX 14 13 -1 -4
BITMAP
5EC900039E4000
5A0A70017F4000
0007C0003F4000
0007F0003F4000
0007F0003F4000
0007F0003F4000
0006F2003F4000
0003F601AF4000
00007EA85F4000
000000003F4000
000000001F4000
000000000B71D9
0000000002BDD4
ENDCHAR
STARTCHAR uni02B0
ENCODING 688
SWIDTH 488 0
DWIDTH 9 0
BBX 9 10 0 5
BITMAP
5DC0000000
07C0000000
07C0000000
07C5DE8000
07E617F200
07C001F400
07C000F400
07C000F400
07D001F500
4DF80AFC30
ENDCHAR
STARTCHAR uni02B1
ENCODING 689
SWIDTH 488 0
DWIDTH 9 0
BBX 9 11 0 5
BITMAP
0028BA1000
01D12E6000
05C0000000
07C0000000
07C5DE8000
07E617F200
07C001F400
07C000F400
07C000F400
07D001F500
4DF80AFC30
ENDCHAR
STARTCHAR uni02B2
ENCODING 690
SWIDTH 222 0
DWIDTH 4 0
BBX 5 13 -2 2
BITMAP
0008D0
0006A0
000000
004CD0
0007D0
0007D0
0007D0
0007D0
0007D0
0007D0
0007C0
2B1890
1CDA10
ENDCHAR
STARTCHAR uni02B3
ENCODING 691
SWIDTH 325 0
DWIDTH 6 0
BBX 6 7 0 5
BITMAP
4CC4E7
07E785
07D000
07C000
07C000
07D000
4DF910
ENDCHAR
STARTCHAR uni02B4
ENCODING 692
SWIDTH 325 0
DWIDTH 6 0
BBX 6 7 0 5
BITMAP
008EE5
000B90
000A90
000A90
000B90
496D90
5E5AD5
ENDCHAR
STARTCHAR uni02B5
ENCODING 693
SWIDTH 325 0
DWIDTH 6 0
BBX 8 9 0 3
BITMAP
008EE600
000B9000
000A9000
000A9000
000B9000
4A7D9000
5E599000
0006A041
00007AA1
ENDCHAR
STARTCHAR uni02B6
ENCODING 694
SWIDTH 443 0
DWIDTH 8 0
BBX 8 7 0 5
BITMAP
3CF807E7
07D03F50
07D1D800
07EBD400
07D01E70
07D00CA0
3CEABB30
ENDCHAR
STARTCHAR uni02B7
ENCODING 695
SWIDTH 653 0
DWIDTH 12 0
BBX 12 7 0 5
BITMAP
AFB17FD308F7
0D8009C00390
07E009F20830
01F519C80B00
00AB746E5600
004FA01FC100
000D700AA000
ENDCHAR
STARTCHAR uni02B8
ENCODING 696
SWIDTH 427 0
DWIDTH 8 0
BBX 8 10 0 2
BITMAP
AFC20AE6
0DA00480
06F20920
00D80A00
007E5500
001EC000
00098000
000B2000
47690000
7EA10000
ENDCHAR
STARTCHAR uni02B9
ENCODING 697
SWIDTH 296 0
DWIDTH 5 0
BBX 4 6 1 7
BITMAP
05D1
0AD0
0E60
4D00
8600
6000
ENDCHAR
STARTCHAR uni02BA
ENCODING 698
SWIDTH 456 0
DWIDTH 8 0
BBX 6 6 1 7
BITMAP
05D16C
0AD0CB
0E62F4
4D06B0
860A40
600600
ENDCHAR
STARTCHAR uni02BB
ENCODING 699
SWIDTH 245 0
DWIDTH 4 0
BBX 3 5 1 9
BITMAP
0330
4900
C200
EF60
8E50
ENDCHAR
STARTCHAR uni02BC
ENCODING 700
SWIDTH 244 0
DWIDTH 4 0
BBX 4 6 0 8
BITMAP
0100
1EE2
0DF5
00A3
0490
0500
ENDCHAR
STARTCHAR uni02BD
ENCODING 701
SWIDTH 244 0
DWIDTH 4 0
BBX 3 6 1 8
BITMAP
0100
AF50
EF50
C100
4900
0230
ENDCHAR
STARTCHAR uni02BE
ENCODING 702
SWIDTH 203 0
DWIDTH 4 0
BBX 4 4 0 9
BITMAP
5C60
01D2
01D2
5C60
ENDCHAR
STARTCHAR uni02BF
ENCODING 703
SWIDTH 203 0
DWIDTH 4 0
BBX 4 4 0 9
BITMAP
1AC1
7900
7900
1AC1
ENDCHAR
STARTCHAR uni02C0
ENCODING 704
SWIDTH 364 0
DWIDTH 7 0
BBX 6 7 0 7
BITMAP
05A860
2F40B8
03008D
00009D
0004E5
00EA30
00F500
ENDCHAR
STARTCHAR uni02C1
ENCODING 705
SWIDTH 364 0
DWIDTH 7 0
BBX 6 7 0 7
BITMAP
028892
1E50BA
5F1012
5F2000
0BA100
006D80
000B90
ENDCHAR
STARTCHAR uni02C2
ENCODING 706
SWIDTH 324 0
DWIDTH 6 0
BBX 6 6 0 8
BITMAP
000052
003BB1
18D500
2D8100
018D50
0002B3
ENDCHAR
STARTCHAR uni02C3
ENCODING 707
SWIDTH 324 0
DWIDTH 6 0
BBX 6 6 0 8
BITMAP
340000
2CA200
006D70
001AD1
06D700
5A2000
ENDCHAR
STARTCHAR uni02C4
ENCODING 708
SWIDTH 324 0
DWIDTH 6 0
BBX 6 5 0 9
BITMAP
003200
01DC00
088A60
2D12D1
B50089
ENDCHAR
STARTCHAR uni02C5
ENCODING 709
SWIDTH 324 0
DWIDTH 6 0
BBX 6 5 0 9
BITMAP
710036
6A00C4
0C46A0
03DD20
009700
ENDCHAR
STARTCHAR circumflex
ENCODING 710
SWIDTH 342 0
DWIDTH 6 0
BBX 6 3 0 10
BITMAP
00CE10
07A8A0
2A0084
ENDCHAR
STARTCHAR caron
ENCODING 711
SWIDTH 342 0
DWIDTH 6 0
BBX 6 3 0 10
BITMAP
2A0084
07A8A0
00CE10
ENDCHAR
STARTCHAR uni02C8
ENCODING 712
SWIDTH 284 0
DWIDTH 5 0
BBX 1 5 2 9
BITMAP
B0
B0
B0
B0
B0
ENDCHAR
STARTCHAR uni02C9
ENCODING 713
SWIDTH 350 0
DWIDTH 6 0
BBX 6 1 0 10
BITMAP
5BBBB9
ENDCHAR
STARTCHAR uni02CA
ENCODING 714
SWIDTH 222 0
DWIDTH 4 0
BBX 4 3 0 10
BITMAP
06F4
0C80
4A00
ENDCHAR
STARTCHAR uni02CB
ENCODING 715
SWIDTH 222 0
DWIDTH 4 0
BBX 4 3 0 10
BITMAP
4F60
08C0
00A4
ENDCHAR
STARTCHAR uni02CC
ENCODING 716
SWIDTH 284 0
DWIDTH 5 0
BBX 1 5 2 -4
BITMAP
B0
B0
B0
B0
B0
ENDCHAR
STARTCHAR uni02CD
ENCODING 717
SWIDTH 342 0
DWIDTH 6 0
BBX 6 1 0 -3
BITMAP
9BBBBB
ENDCHAR
STARTCHAR uni02CE
ENCODING 718
SWIDTH 222 0
DWIDTH 4 0
BBX 4 3 0 -3
BITMAP
4F60
08C0
00A4
ENDCHAR
STARTCHAR uni02CF
ENCODING 719
SWIDTH 223 0
DWIDTH 4 0
BBX 4 3 0 -3
BITMAP
06F4
0C80
4A00
ENDCHAR
STARTCHAR uni02D0
ENCODING 720
SWIDTH 341 0
DWIDTH 6 0
BBX 4 8 1 0
BITMAP
3FF5
0DE1
08A0
0000
0000
08A0
0DE1
3FF5
ENDCHAR
STARTCHAR uni02D1
ENCODING 721
SWIDTH 341 0
DWIDTH 6 0
BBX 4 3 1 6
BITMAP
3FF5
0DE1
08A0
ENDCHAR
STARTCHAR uni02D2
ENCODING 722
SWIDTH 341 0
DWIDTH 6 0
BBX 4 6 1 1
BITMAP
8C80
00A8
004C
004D
00A8
8C80
ENDCHAR
STARTCHAR uni02D3
ENCODING 723
SWIDTH 341 0
DWIDTH 6 0
BBX 4 6 1 1
BITMAP
06C9
6B10
B600
B600
6B10
06C9
ENDCHAR
STARTCHAR uni02D4
ENCODING 724
SWIDTH 341 0
DWIDTH 6 0
BBX 6 4 0 3
BITMAP
003400
005600
005600
1BCCB2
ENDCHAR
STARTCHAR uni02D5
ENCODING 725
SWIDTH 341 0
DWIDTH 6 0
BBX 6 4 0 3
BITMAP
1BCCB2
005600
005600
004500
ENDCHAR
STARTCHAR uni02D6
ENCODING 726
SWIDTH 341 0
DWIDTH 6 0
BBX 4 4 1 3
BITMAP
0460
0460
8CDA
0460
ENDCHAR
STARTCHAR uni02D7
ENCODING 727
SWIDTH 341 0
DWIDTH 6 0
BBX 4 1 1 4
BITMAP
8BBA
ENDCHAR
STARTCHAR breve
ENCODING 728
SWIDTH 353 0
DWIDTH 6 0
BBX 6 4 0 10
BITMAP
100001
530009
2A0066
04BB80
ENDCHAR
STARTCHAR dotaccent
ENCODING 729
SWIDTH 194 0
DWIDTH 3 0
BBX 3 3 0 10
BITMAP
0100
2F90
2E80
ENDCHAR
STARTCHAR ring
ENCODING 730
SWIDTH 265 0
DWIDTH 5 0
BBX 5 4 0 10
BITMAP
09B700
680B20
680B20
09B700
ENDCHAR
STARTCHAR ogonek
ENCODING 731
SWIDTH 277 0
DWIDTH 5 0
BBX 5 4 0 -4
BITMAP
048000
2D0000
6D1220
2CE800
ENDCHAR
STARTCHAR tilde
ENCODING 732
SWIDTH 381 0
DWIDTH 7 0
BBX 7 2 0 10
BITMAP
08C83720
4318C800
ENDCHAR
STARTCHAR hungarumlaut
ENCODING 733
SWIDTH 350 0
DWIDTH 6 0
BBX 6 3 0 10
BITMAP
06D4C8
0D77D1
4A0C20
ENDCHAR
STARTCHAR uni02DE
ENCODING 734
SWIDTH 205 0
DWIDTH 4 0
BBX 5 3 -1 4
BITMAP
052010
6C6350
03CA10
ENDCHAR
STARTCHAR uni02DF
ENCODING 735
SWIDTH 302 0
DWIDTH 5 0
BBX 5 5 0 9
BITMAP
010010
3D2790
05EB00
07CD20
2B1690
ENDCHAR
STARTCHAR uni02E0
ENCODING 736
SWIDTH 413 0
DWIDTH 7 0
BBX 8 10 0 2
BITMAP
BFC10BE4
0D900660
07E10A00
01E63800
009C8200
003F9000
000E9000
0049E100
0081E300
0059B100
ENDCHAR
STARTCHAR uni02E1
ENCODING 737
SWIDTH 244 0
DWIDTH 4 0
BBX 4 10 0 5
BITMAP
4CD0
07D0
07D0
07D0
07D0
07D0
07D0
07D0
07D0
4DF8
ENDCHAR
STARTCHAR uni02E2
ENCODING 738
SWIDTH 337 0
DWIDTH 6 0
BBX 6 7 0 5
BITMAP
0AAAB2
5C00A2
3F8121
05DE70
4207F6
6700C8
6BAAA1
ENDCHAR
STARTCHAR uni02E3
ENCODING 739
SWIDTH 445 0
DWIDTH 8 0
BBX 8 7 0 5
BITMAP
4DF81CD3
02E70A10
006E8300
000CD000
0067D900
03A04F50
6EA04EE6
ENDCHAR
STARTCHAR uni02E4
ENCODING 740
SWIDTH 364 0
DWIDTH 7 0
BBX 7 10 0 5
BITMAP
02A8AA10
0D701E70
3F300310
3F300000
0CA00000
02AB7100
0004F100
0003F100
0004F200
004CFA30
ENDCHAR
STARTCHAR uni02E5
ENCODING 741
SWIDTH 423 0
DWIDTH 8 0
BBX 7 13 0 0
BITMAP
1BBBBBC0
000001D0
000001D0
000001D0
000001D0
000001D0
000001D0
000001D0
000001D0
000001D0
000001D0
000001D0
00000050
ENDCHAR
STARTCHAR uni02E6
ENCODING 742
SWIDTH 414 0
DWIDTH 7 0
BBX 7 13 0 0
BITMAP
00000270
000003B0
000003B0
000003B0
3BBBBCB0
000003B0
000003B0
000003B0
000003B0
000003B0
000003B0
000003B0
00000390
ENDCHAR
STARTCHAR uni02E7
ENCODING 743
SWIDTH 414 0
DWIDTH 7 0
BBX 7 14 0 0
BITMAP
00000010
000003B0
000003B0
000003B0
000003B0
000003B0
000003B0
3BBBBCB0
000003B0
000003B0
000003B0
000003B0
000003B0
00000390
ENDCHAR
STARTCHAR uni02E8
ENCODING 744
SWIDTH 414 0
DWIDTH 7 0
BBX 7 14 0 -1
BITMAP
00000010
000003B0
000003B0
000003B0
000003B0
000003B0
000003B0
000003B0
000003B0
3BBBBCB0
000003B0
000003B0
000003B0
00000140
ENDCHAR
STARTCHAR uni02E9
ENCODING 745
SWIDTH 414 0
DWIDTH 7 0
BBX 7 13 0 0
BITMAP
00000270
000003B0
000003B0
000003B0
000003B0
000003B0
000003B0
000003B0
000003B0
000003B0
000003B0
000003B0
3BBBBCA0
ENDCHAR
STARTCHAR uni02EC
ENCODING 748
SWIDTH 341 0
DWIDTH 6 0
BBX 6 4 0 -3
BITMAP
5E10C6
0B86C0
02EE30
007900
ENDCHAR
STARTCHAR uni02ED
ENCODING 749
SWIDTH 380 0
DWIDTH 7 0
BBX 7 3 0 10
BITMAP
4BBBBB20
00000000
4BBBBB20
ENDCHAR
STARTCHAR uni02F7
ENCODING 759
SWIDTH 381 0
DWIDTH 7 0
BBX 7 2 0 -3
BITMAP
08C83720
4318C800
ENDCHAR
STARTCHAR uni0300
ENCODING 768
SWIDTH 0 0
DWIDTH 0 0
BBX 3 3 -6 10
BITMAP
DC00
3E30
0590
ENDCHAR
STARTCHAR uni0301
ENCODING 769
SWIDTH 0 0
DWIDTH 0 0
BBX 3 3 -5 10
BITMAP
1FA0
7C10
C200
ENDCHAR
STARTCHAR uni0302
ENCODING 770
SWIDTH 0 0
DWIDTH 0 0
BBX 6 3 -7 10
BITMAP
02EC00
0B8B60
5801A2
ENDCHAR
STARTCHAR uni0303
ENCODING 771
SWIDTH 0 0
DWIDTH 0 0
BBX 6 2 -7 10
BITMAP
3BB537
704BB2
ENDCHAR
STARTCHAR uni0304
ENCODING 772
SWIDTH 0 0
DWIDTH 0 0
BBX 6 1 -7 10
BITMAP
8BBBB5
ENDCHAR
STARTCHAR uni0305
ENCODING 773
SWIDTH 0 0
DWIDTH 0 0
BBX 8 1 -8 10
BITMAP
2BBBBBBB
ENDCHAR
STARTCHAR uni0306
ENCODING 774
SWIDTH 0 0
DWIDTH 0 0
BBX 6 4 -7 10
BITMAP
100001
900035
6600A1
08BB40
ENDCHAR
STARTCHAR uni0307
ENCODING 775
SWIDTH 0 0
DWIDTH 0 0
BBX 3 2 -6 10
BITMAP
1EB0
1DA0
ENDCHAR
STARTCHAR uni0308
ENCODING 776
SWIDTH 0 0
DWIDTH 0 0
BBX 7 2 -8 10
BITMAP
1EB01EA0
0DA01D90
ENDCHAR
STARTCHAR uni0309
ENCODING 777
SWIDTH 0 0
DWIDTH 0 0
BBX 4 4 -6 10
BITMAP
39A3
546A
0087
0650
ENDCHAR
STARTCHAR uni030A
ENCODING 778
SWIDTH 0 0
DWIDTH 0 0
BBX 4 4 -6 10
BITMAP
4BA2
D149
D149
5BB2
ENDCHAR
STARTCHAR uni030B
ENCODING 779
SWIDTH 0 0
DWIDTH 0 0
BBX 6 3 -6 10
BITMAP
0BB6D3
4E2D80
944A00
ENDCHAR
STARTCHAR uni030C
ENCODING 780
SWIDTH 0 0
DWIDTH 0 0
BBX 6 3 -7 10
BITMAP
5800A2
0B7B60
02EC00
ENDCHAR
STARTCHAR uni030D
ENCODING 781
SWIDTH 0 0
DWIDTH 0 0
BBX 2 4 -5 10
BITMAP
A5
A5
A5
A5
ENDCHAR
STARTCHAR uni030E
ENCODING 782
SWIDTH 0 0
DWIDTH 0 0
BBX 4 4 -6 10
BITMAP
E16A
E16A
E16A
E16A
ENDCHAR
STARTCHAR uni030F
ENCODING 783
SWIDTH 0 0
DWIDTH 0 0
BBX 6 3 -8 10
BITMAP
7D4C70
0C86E0
01C085
ENDCHAR
STARTCHAR uni0310
ENCODING 784
SWIDTH 0 0
DWIDTH 0 0
BBX 6 4 -7 10
BITMAP
01EA00
70DA25
750092
08BB50
ENDCHAR
STARTCHAR uni0311
ENCODING 785
SWIDTH 0 0
DWIDTH 0 0
BBX 6 3 -7 10
BITMAP
08BB40
7701B1
800044
ENDCHAR
STARTCHAR uni0312
ENCODING 786
SWIDTH 0 0
DWIDTH 0 0
BBX 3 4 -6 10
BITMAP
0770
3900
6FB0
2EB0
ENDCHAR
STARTCHAR uni0313
ENCODING 787
SWIDTH 0 0
DWIDTH 0 0
BBX 4 4 -6 10
BITMAP
2EB0
2EF1
00C0
1A30
ENDCHAR
STARTCHAR uni0314
ENCODING 788
SWIDTH 0 0
DWIDTH 0 0
BBX 3 4 -6 10
BITMAP
2EC0
5FC0
3A00
0680
ENDCHAR
STARTCHAR uni0315
ENCODING 789
SWIDTH 0 0
DWIDTH 0 0
BBX 3 4 -5 9
BITMAP
3F40
4F10
5A00
4300
ENDCHAR
STARTCHAR uni0316
ENCODING 790
SWIDTH 0 0
DWIDTH 0 0
BBX 3 3 -6 -4
BITMAP
DC00
3E30
0590
ENDCHAR
STARTCHAR uni0317
ENCODING 791
SWIDTH 0 0
DWIDTH 0 0
BBX 3 3 -5 -4
BITMAP
0DD0
4E20
A400
ENDCHAR
STARTCHAR uni0318
ENCODING 792
SWIDTH 0 0
DWIDTH 0 0
BBX 4 4 -6 -5
BITMAP
0092
0092
5BE2
0092
ENDCHAR
STARTCHAR uni0319
ENCODING 793
SWIDTH 0 0
DWIDTH 0 0
BBX 4 4 -6 -5
BITMAP
6500
6500
6CB2
6500
ENDCHAR
STARTCHAR uni031A
ENCODING 794
SWIDTH 0 0
DWIDTH 0 0
BBX 5 4 -7 9
BITMAP
1BBCA0
0003C0
0003C0
000140
ENDCHAR
STARTCHAR uni031B
ENCODING 795
SWIDTH 0 0
DWIDTH 0 0
BBX 4 4 -4 8
BITMAP
0066
009D
004A
3882
ENDCHAR
STARTCHAR uni031C
ENCODING 796
SWIDTH 0 0
DWIDTH 0 0
BBX 3 4 -6 -5
BITMAP
1AA0
7600
7700
1AA0
ENDCHAR
STARTCHAR uni031D
ENCODING 797
SWIDTH 0 0
DWIDTH 0 0
BBX 4 4 -6 -4
BITMAP
0100
0840
0840
ACB7
ENDCHAR
STARTCHAR uni031E
ENCODING 798
SWIDTH 0 0
DWIDTH 0 0
BBX 4 3 -6 -4
BITMAP
ACC7
0840
0630
ENDCHAR
STARTCHAR uni031F
ENCODING 799
SWIDTH 0 0
DWIDTH 0 0
BBX 4 4 -6 -5
BITMAP
0830
0830
ADC7
0830
ENDCHAR
STARTCHAR uni0320
ENCODING 800
SWIDTH 0 0
DWIDTH 0 0
BBX 4 1 -6 -3
BITMAP
ABB7
ENDCHAR
STARTCHAR uni0321
ENCODING 801
SWIDTH 0 0
DWIDTH 0 0
BBX 6 6 -8 -4
BITMAP
000010
0004F4
0004F3
0004F1
9D17B0
4CD910
ENDCHAR
STARTCHAR uni0322
ENCODING 802
SWIDTH 0 0
DWIDTH 0 0
BBX 6 6 -5 -4
BITMAP
010000
3F4000
3F4000
1F5000
0A81DA
019DC5
ENDCHAR
STARTCHAR uni0323
ENCODING 803
SWIDTH 0 0
DWIDTH 0 0
BBX 3 3 -6 -3
BITMAP
0100
1EB0
1DA0
ENDCHAR
STARTCHAR uni0324
ENCODING 804
SWIDTH 0 0
DWIDTH 0 0
BBX 7 2 -8 -3
BITMAP
1EB01EA0
0DA01D90
ENDCHAR
STARTCHAR uni0325
ENCODING 805
SWIDTH 0 0
DWIDTH 0 0
BBX 4 4 -6 -5
BITMAP
4BA2
D149
D149
5BB2
ENDCHAR
STARTCHAR uni0326
ENCODING 806
SWIDTH 0 0
DWIDTH 0 0
BBX 4 4 -6 -5
BITMAP
2EB0
2EF1
00C0
1A30
ENDCHAR
STARTCHAR uni0327
ENCODING 807
SWIDTH 0 0
DWIDTH 0 0
BBX 4 4 -6 -4
BITMAP
0800
0BC4
0079
5BB2
ENDCHAR
STARTCHAR uni0328
ENCODING 808
SWIDTH 0 0
DWIDTH 0 0
BBX 4 4 -6 -4
BITMAP
0930
9700
D704
7EC3
ENDCHAR
STARTCHAR uni0329
ENCODING 809
SWIDTH 0 0
DWIDTH 0 0
BBX 2 3 -5 -4
BITMAP
A5
A5
A5
ENDCHAR
STARTCHAR uni032A
ENCODING 810
SWIDTH 0 0
DWIDTH 0 0
BBX 6 3 -7 -4
BITMAP
5CBBC1
650091
220030
ENDCHAR
STARTCHAR uni032B
ENCODING 811
SWIDTH 0 0
DWIDTH 0 0
BBX 6 3 -7 -3
BITMAP
705216
C0A539
5C9BB2
ENDCHAR
STARTCHAR uni032C
ENCODING 812
SWIDTH 0 0
DWIDTH 0 0
BBX 6 3 -7 -4
BITMAP
5800A2
0B7B60
02EC00
ENDCHAR
STARTCHAR uni032D
ENCODING 813
SWIDTH 0 0
DWIDTH 0 0
BBX 6 3 -7 -4
BITMAP
02EC00
0B8B60
5801A2
ENDCHAR
STARTCHAR uni032E
ENCODING 814
SWIDTH 0 0
DWIDTH 0 0
BBX 6 4 -7 -4
BITMAP
100001
900035
6600A1
08BB40
ENDCHAR
STARTCHAR uni032F
ENCODING 815
SWIDTH 0 0
DWIDTH 0 0
BBX 6 3 -7 -4
BITMAP
19BB60
830083
300012
ENDCHAR
STARTCHAR uni0330
ENCODING 816
SWIDTH 0 0
DWIDTH 0 0
BBX 6 2 -7 -3
BITMAP
5CA446
706CB1
ENDCHAR
STARTCHAR uni0331
ENCODING 817
SWIDTH 0 0
DWIDTH 0 0
BBX 6 1 -7 -3
BITMAP
8BBBB5
ENDCHAR
STARTCHAR uni0332
ENCODING 818
SWIDTH 0 0
DWIDTH 0 0
BBX 10 1 -9 -3
BITMAP
8BBBBBBBB5
ENDCHAR
STARTCHAR uni0333
ENCODING 819
SWIDTH 0 0
DWIDTH 0 0
BBX 10 3 -9 -5
BITMAP
8BBBBBBBB5
0000000000
8BBBBBBBB5
ENDCHAR
STARTCHAR uni0334
ENCODING 820
SWIDTH 0 0
DWIDTH 0 0
BBX 7 2 -8 4
BITMAP
05CA5380
1705BC30
ENDCHAR
STARTCHAR uni0335
ENCODING 821
SWIDTH 0 0
DWIDTH 0 0
BBX 6 1 -7 4
BITMAP
BBBBB8
ENDCHAR
STARTCHAR uni0336
ENCODING 822
SWIDTH 0 0
DWIDTH 0 0
BBX 10 1 -9 4
BITMAP
8BBBBBBBB5
ENDCHAR
STARTCHAR uni0337
ENCODING 823
SWIDTH 0 0
DWIDTH 0 0
BBX 6 5 -7 4
BITMAP
000051
001980
03B400
5A1000
100000
ENDCHAR
STARTCHAR uni0338
ENCODING 824
SWIDTH 0 0
DWIDTH 0 0
BBX 8 16 -8 -3
BITMAP
00000025
00000096
000001D0
00000780
00000D20
00005A00
0000B400
0002C000
00096000
001D1000
00780000
00D20000
04B00000
0B400000
2D000000
87000000
ENDCHAR
STARTCHAR uni0339
ENCODING 825
SWIDTH 0 0
DWIDTH 0 0
BBX 4 4 -6 -5
BITMAP
2B70
00B2
00B2
2B70
ENDCHAR
STARTCHAR uni033A
ENCODING 826
SWIDTH 0 0
DWIDTH 0 0
BBX 6 3 -7 -3
BITMAP
430061
650091
5CBBC1
ENDCHAR
STARTCHAR uni033B
ENCODING 827
SWIDTH 0 0
DWIDTH 0 0
BBX 4 4 -6 -4
BITMAP
ABC6
B047
B047
ABC6
ENDCHAR
STARTCHAR uni033C
ENCODING 828
SWIDTH 0 0
DWIDTH 0 0
BBX 6 3 -7 -4
BITMAP
9B69B5
10B701
002000
ENDCHAR
STARTCHAR uni033D
ENCODING 829
SWIDTH 0 0
DWIDTH 0 0
BBX 4 4 -6 9
BITMAP
9585
0DA0
87A5
1001
ENDCHAR
STARTCHAR uni033E
ENCODING 830
SWIDTH 0 0
DWIDTH 0 0
BBX 3 7 -6 9
BITMAP
0020
0870
0F10
0C60
06B0
05A0
1810
ENDCHAR
STARTCHAR uni033F
ENCODING 831
SWIDTH 0 0
DWIDTH 0 0
BBX 8 3 -8 9
BITMAP
8BBBBBB5
00000000
8BBBBBB5
ENDCHAR
STARTCHAR uni0346
ENCODING 838
SWIDTH 0 0
DWIDTH 0 0
BBX 6 3 -7 9
BITMAP
ACBBC6
B40087
410032
ENDCHAR
STARTCHAR uni0347
ENCODING 839
SWIDTH 0 0
DWIDTH 0 0
BBX 6 3 -7 -4
BITMAP
BBBBB8
000000
BBBBB8
ENDCHAR
STARTCHAR uni034C
ENCODING 844
SWIDTH 0 0
DWIDTH 0 0
BBX 6 4 -7 10
BITMAP
6ABBB5
000000
3BB537
704BB2
ENDCHAR
STARTCHAR uni034D
ENCODING 845
SWIDTH 0 0
DWIDTH 0 0
BBX 10 5 -9 -6
BITMAP
0020002000
0470001920
3FEBBBBFD1
0580000A20
0021002100
ENDCHAR
STARTCHAR uni0359
ENCODING 857
SWIDTH 0 0
DWIDTH 0 0
BBX 6 6 -7 -7
BITMAP
009500
9784B5
39BA71
28B971
A784B5
009500
ENDCHAR
STARTCHAR uni035C
ENCODING 860
SWIDTH 0 0
DWIDTH 0 0
BBX 14 4 -7 -4
BITMAP
01000000000010
190000000000A1
07B51000015C70
0028BCBBCB8200
ENDCHAR
STARTCHAR uni0360
ENCODING 864
SWIDTH 0 0
DWIDTH 0 0
BBX 10 2 -5 10
BITMAP
19BC840024
420049CB91
ENDCHAR
STARTCHAR uni0361
ENCODING 865
SWIDTH 0 0
DWIDTH 0 0
BBX 10 3 -5 10
BITMAP
038BBBB820
2B200003B1
2100000012
ENDCHAR
STARTCHAR uni0362
ENCODING 866
SWIDTH 0 0
DWIDTH 0 0
BBX 14 5 -7 -6
BITMAP
00000000000110
000000000001A1
8BBBBBBBBBBBEC
000000000001A1
00000000000110
ENDCHAR
STARTCHAR uni037E
ENCODING 894
SWIDTH 261 0
DWIDTH 5 0
BBX 3 12 1 -3
BITMAP
6E40
8F50
0200
0000
0000
0000
0000
3820
8FB0
04A0
0A30
4200
ENDCHAR
STARTCHAR tonos
ENCODING 900
SWIDTH 165 0
DWIDTH 3 0
BBX 3 3 0 10
BITMAP
4F50
5D00
6700
ENDCHAR
STARTCHAR dieresistonos
ENCODING 901
SWIDTH 426 0
DWIDTH 8 0
BBX 7 3 0 10
BITMAP
272BC470
4E4C68D0
000C1000
ENDCHAR
STARTCHAR Alphatonos
ENCODING 902
SWIDTH 718 0
DWIDTH 13 0
BBX 13 12 0 0
BITMAP
0DB003E0000000
0F400AF6000000
1C001CDC000000
0000867F400000
0000D12FB00000
0005900AF20000
000C2004F90000
003EBBBBFE1000
00A600007F7000
02D000001FE000
09A000000CF700
CFFA0000CFFFB0
ENDCHAR
STARTCHAR anoteleia
ENCODING 903
SWIDTH 261 0
DWIDTH 5 0
BBX 3 3 1 6
BITMAP
6E40
8F50
0200
ENDCHAR
STARTCHAR Epsilontonos
ENCODING 904
SWIDTH 745 0
DWIDTH 13 0
BBX 14 12 -1 0
BITMAP
0F929FFDCCDEF4
1F2008F30000A4
3A0007F3000022
000007F3000900
000007F3001C00
000007FCBCED00
000007F3000A00
000007F3000001
000007F300000A
000007F300002B
000008F30001B9
00029FFDCCDFF7
ENDCHAR
STARTCHAR Etatonos
ENCODING 905
SWIDTH 896 0
DWIDTH 16 0
BBX 17 12 -1 0
BITMAP
0F92CFFEB008EFFD60
1F2009F400001FD000
3A0007F300000EB000
000007F300000EB000
000007F300000EB000
000007FCBBBBBFB000
000007F300000EB000
000007F300000EB000
000007F300000EB000
000007F300000EB000
000009F500001FD000
0002CFFEB008DFFD60
ENDCHAR
STARTCHAR Iotatonos
ENCODING 906
SWIDTH 478 0
DWIDTH 9 0
BBX 9 12 -1 0
BITMAP
0F92CFFEB0
1F2008F500
3A0007F300
000007F300
000007F300
000007F300
000007F300
000007F300
000007F300
000007F300
000008F500
0002CFFEB0
ENDCHAR
STARTCHAR Omicrontonos
ENCODING 908
SWIDTH 806 0
DWIDTH 15 0
BBX 15 12 -1 0
BITMAP
0F90018CBCC70000
1F203EA1003DC100
3A01DC000003FB00
0006F6000000AF30
000AF20000006F70
000CF10000005F90
000CF10000005F80
000BF20000006F60
0006F60000009F20
0001EC000001E900
00004E91002BB100
0000028CBBB60000
ENDCHAR
STARTCHAR Upsilontonos
ENCODING 910
SWIDTH 787 0
DWIDTH 14 0
BBX 16 12 -1 0
BITMAP
6F37FFFD3008EFD3
7C002EF300009900
850004FA0002C000
000000AF500A4000
0000001ED14A0000
00000006F8C20000
00000000BF700000
000000007F300000
000000007F300000
000000007F300000
000000008F600000
0000003CFFFC1000
ENDCHAR
STARTCHAR Omegatonos
ENCODING 911
SWIDTH 830 0
DWIDTH 15 0
BBX 15 12 -1 0
BITMAP
0F90018CEEC81000
1F203EFD99DFE300
3A01DF700008FD00
0006FC000000CF50
0008F70000008F70
0009F50000006F80
0007F60000007F50
0001EA000000BD00
00007F200003F510
002808B0001C70A0
000E98DA00BC89D0
000DFFFE00FFFFC0
ENDCHAR
STARTCHAR iotadieresistonos
ENCODING 912
SWIDTH 259 0
DWIDTH 5 0
BBX 7 13 -1 0
BITMAP
004F5000
CA6D4E50
64761720
00000000
00BD0000
00BB0000
00CA0000
00C80000
00D60000
00D50000
00C50000
00BB5600
004EC100
ENDCHAR
STARTCHAR Alpha
ENCODING 913
SWIDTH 718 0
DWIDTH 13 0
BBX 13 12 0 0
BITMAP
000003E0000000
00000AF6000000
00001CDC000000
0000867F400000
0000D12FB00000
0005900AF20000
000C2004F90000
003EBBBBFE1000
00A600007F7000
02D000001FE000
09A000000CF700
CFFA0000CFFFB0
ENDCHAR
STARTCHAR Beta
ENCODING 914
SWIDTH 618 0
DWIDTH 11 0
BBX 11 12 0 0
BITMAP
3AFFCCDC7000
00AF1007F800
009F1000ED00
009F1000EC00
009F1007F500
009FBCFC3000
009F1017E600
009F10009F30
009F10006F70
009F10008F60
00BF1003ED10
3BFFCCCD8100
ENDCHAR
STARTCHAR Gamma
ENCODING 915
SWIDTH 569 0
DWIDTH 10 0
BBX 10 12 0 0
BITMAP
2AFFDDDEFC
00AF00006C
009F00000B
009F000003
009F000000
009F000000
009F000000
009F000000
009F000000
009F100000
00CF400000
3EFFFC0000
ENDCHAR
STARTCHAR Delta
ENCODING 916
SWIDTH 667 0
DWIDTH 12 0
BBX 12 12 0 0
BITMAP
000008900000
00001EE10000
00006BF70000
0000D1DD0000
0005907F5000
000C302FB000
004B000AF300
00A40004F900
02C00000DF10
096000008F70
1E8777779FD0
7FFFFFFFFFF4
ENDCHAR
STARTCHAR Epsilon
ENCODING 917
SWIDTH 626 0
DWIDTH 11 0
BBX 11 12 0 0
BITMAP
3AFFCCCDEF20
00AF10001B20
009F10000310
009F10009000
009F1003B000
009FBBCEB000
009F1001A000
009F10000010
009F100000A0
009F10000590
00AF10002C70
3AFFCCCDFF50
ENDCHAR
STARTCHAR Zeta
ENCODING 918
SWIDTH 594 0
DWIDTH 11 0
BBX 11 12 0 0
BITMAP
0BFDBBBCFE10
0C50000AF500
0B00005FA000
010001EE1000
00000BF50000
00006FA00000
0002EE100000
000BF5000000
006FA0000210
02EE10000A10
0CF500004D00
6FFBBBBDFB00
ENDCHAR
STARTCHAR Eta
ENCODING 919
SWIDTH 777 0
DWIDTH 14 0
BBX 14 12 0 0
BITMAP
4DFFE9009EFFD4
00BF200002FB00
009F100001F900
009F100001F900
009F100001F900
009FBBBBBBF900
009F100001F900
009F100001F900
009F100001F900
009F100001F900
00BF200002FB00
4CFFE9009EFFC4
ENDCHAR
STARTCHAR Theta
ENCODING 920
SWIDTH 738 0
DWIDTH 13 0
BBX 13 12 0 0
BITMAP
00039DFEB40000
006FFB9AEF9000
03FE30001CF600
0AF6000002FD00
0EF1810090BF30
1FD09FFFD09F50
1FE09A89C09F50
0EF1700070BF40
0AF7000001FE00
03FE30001BF700
006FFB9AEFA000
00039DFEB50000
ENDCHAR
STARTCHAR Iota
ENCODING 921
SWIDTH 357 0
DWIDTH 6 0
BBX 6 12 0 0
BITMAP
4DFFE9
00BF20
009F10
009F00
009F00
009F00
009F00
009F00
009F00
009F10
00BF20
4DFFE9
ENDCHAR
STARTCHAR Kappa
ENCODING 922
SWIDTH 702 0
DWIDTH 13 0
BBX 13 12 0 0
BITMAP
4DFFE908FFF900
00BF2000CC2000
009F1006B10000
009F006A000000
009F0790000000
009F8B00000000
009FAF70000000
009F19F8000000
009F008F900000
009F1008F90000
00BF2000CFA100
4DFFE908EFFE60
ENDCHAR
STARTCHAR Lambda
ENCODING 923
SWIDTH 710 0
DWIDTH 13 0
BBX 13 12 0 0
BITMAP
000005C0000000
00000BF4000000
00002BEB000000
0000949F200000
0001C03F900000
0006700CE10000
000C2006F70000
004B0001ED0000
00A500009F5000
02D000003FC000
0AA000000EF600
DFFC0002EFFFA0
ENDCHAR
STARTCHAR Mu
ENCODING 924
SWIDTH 895 0
DWIDTH 16 0
BBX 16 12 0 0
BITMAP
5DFF60000005FFD3
01DFD000000CFD00
00CCF400003DEB00
00C6FA000097DB00
00C1DF2001E1DB00
00C16F800690DB00
00C11EE00D30DB00
00C108F54C00DB00
00C102FBA500DB00
00C200AFD000DB00
00E4003F7001ED00
6DFE800C106DFFD3
ENDCHAR
STARTCHAR Nu
ENCODING 925
SWIDTH 742 0
DWIDTH 13 0
BBX 13 12 0 0
BITMAP
6EFD10004DFFB0
02EFB00000D700
00CEF70000A400
00C4EF4000A400
00C15FE100A400
00C108FB00A400
00C100BF80A400
00C1001DF4A400
00C10003EEC400
00C200005FF400
00E4000008F400
6DFE900000B400
ENDCHAR
STARTCHAR Xi
ENCODING 926
SWIDTH 648 0
DWIDTH 12 0
BBX 11 12 0 0
BITMAP
0CFFFFFFFF70
0CA888889C70
060000000150
002700008000
002B0002B000
002FFFFFC000
002D9889B000
000000000000
270000000080
1B00000001B0
0FB999999DA0
0FFFFFFFFFA0
ENDCHAR
STARTCHAR Omicron
ENCODING 927
SWIDTH 738 0
DWIDTH 13 0
BBX 12 12 1 0
BITMAP
0039CBCB5000
05F70005EA00
3F9000006F70
9F2000000DE0
EE0000000AF4
FD00000008F5
FD00000008F5
EE00000009F3
AF3000000DD0
3F9000004F60
06F70003D900
003ACBBB5000
ENDCHAR
STARTCHAR Pi
ENCODING 928
SWIDTH 759 0
DWIDTH 14 0
BBX 13 12 0 0
BITMAP
3AFFDCCCCDFE90
00AF100006F500
009F100006F400
009F100006F400
009F100006F400
009F100006F400
009F100006F400
009F100006F400
009F100006F400
009F100006F400
00CF400008F700
5EFFFA01EFFFE0
ENDCHAR
STARTCHAR Rho
ENCODING 929
SWIDTH 569 0
DWIDTH 10 0
BBX 10 12 0 0
BITMAP
1AFFCCDA50
00AF101AF5
009F1002FB
009F1000FB
009F1002F8
009F102BD1
009FBBB610
009F100000
009F100000
009F100000
00BF300000
2CFFEA0000
ENDCHAR
STARTCHAR Sigma
ENCODING 931
SWIDTH 604 0
DWIDTH 11 0
BBX 11 12 0 0
BITMAP
5FFDDDDEFB00
09F800006B00
00BF50000B00
001DE3000100
0002ED100000
00004F600000
00006B000000
0004C1000000
002D20000440
01C400000B30
0BD88889CF00
6FFFFFFFFD00
ENDCHAR
STARTCHAR Tau
ENCODING 932
SWIDTH 603 0
DWIDTH 11 0
BBX 11 12 0 0
BITMAP
8FDBDFCBDF70
96006F400870
A0006F400280
10006F400010
00006F400000
00006F400000
00006F400000
00006F400000
00006F400000
00006F400000
00008F600000
002CFFFC1000
ENDCHAR
STARTCHAR Upsilon
ENCODING 933
SWIDTH 647 0
DWIDTH 12 0
BBX 13 12 -1 0
BITMAP
1DFFE9002DFF90
009FA00002E300
000CF300095000
0003FC003B0000
00008F60B20000
00000DE7800000
000004FD100000
000000EB000000
000000EB000000
000000EB000000
000001FD000000
00009EFFD60000
ENDCHAR
STARTCHAR Phi
ENCODING 934
SWIDTH 718 0
DWIDTH 13 0
BBX 13 12 0 0
BITMAP
0002EFFFE00000
000019F8100000
018EBBFBCE8100
0BE306F406FA00
3F9006F400BF20
5F7006F4009F40
5F8006F4009F30
1FC006F400CE00
07F916F408F500
0039BCFCB82000
000009F7000000
0002EFFFE00000
ENDCHAR
STARTCHAR Chi
ENCODING 935
SWIDTH 664 0
DWIDTH 12 0
BBX 12 12 0 0
BITMAP
8EFFD405EFE9
02DF40007D20
004FB001D200
0008F60A5000
0000DE780000
00003FE00000
00003EF60000
0001C2CE2000
000B503FC000
00890008F800
06E00002FF40
CFFC002CFFFB
ENDCHAR
STARTCHAR Psi
ENCODING 936
SWIDTH 720 0
DWIDTH 13 0
BBX 13 12 0 0
BITMAP
CC21EFFFE12CC0
0EB008F700BD00
0CD005F500EB00
0CD005F500DB00
0CE005F500EB00
0BF205F503FA00
05FC35F53DF400
007FFFFFFF7000
00016AFA620000
000005F5000000
000007F7000000
0002EFFFE10000
ENDCHAR
STARTCHAR Omega
ENCODING 937
SWIDTH 777 0
DWIDTH 14 0
BBX 14 12 0 0
BITMAP
00017CEED81000
003DFD99DFE300
00DF800007FD00
05FC000000CF50
08F80000007F80
08F60000006F80
06F70000007F60
01EB000000BE10
016F200002F610
1908B0000C8091
0E98CB00BD89E0
0DFFFF00EFFFC0
ENDCHAR
STARTCHAR Iotadieresis
ENCODING 938
SWIDTH 357 0
DWIDTH 6 0
BBX 7 15 0 0
BITMAP
9E209E10
8E209E10
00000000
4DFFE900
00BF2000
009F1000
009F0000
009F0000
009F0000
009F0000
009F0000
009F0000
009F1000
00BF2000
4DFFE900
ENDCHAR
STARTCHAR Upsilondieresis
ENCODING 939
SWIDTH 647 0
DWIDTH 12 0
BBX 13 15 -1 0
BITMAP
0000AE10BD1000
0000AD10AD0000
00000000000000
1DFFE9002DFF90
009FA00002E300
000CF300095000
0003FC003B0000
00008F60B20000
00000DE7800000
000004FD100000
000000EB000000
000000EB000000
000000EB000000
000001FD000000
00009EFFD60000
ENDCHAR
STARTCHAR alphatonos
ENCODING 940
SWIDTH 561 0
DWIDTH 10 0
BBX 10 13 0 0
BITMAP
00007F2000
00009A0000
0000A30000
0000000000
006DEA07F5
07E86B6CC0
0E2000BF40
490000AA00
570000B500
570001E600
3C00097900
0DB6A75E79
03DE801EC3
ENDCHAR
STARTCHAR epsilontonos
ENCODING 941
SWIDTH 381 0
DWIDTH 7 0
BBX 7 13 0 0
BITMAP
0000EA00
0000F400
0001C000
00000000
019DEC40
0CE99D30
0F100000
0A333000
03BDA000
1D100000
3E100310
1FD9AF40
04CED800
ENDCHAR
STARTCHAR etatonos
ENCODING 942
SWIDTH 510 0
DWIDTH 9 0
BBX 9 17 -1 -4
BITMAP
000001F800
000002F200
000003A000
0000000000
04EA04DD20
0CAF2E9D90
120D8603D0
000CB000E0
000C7000E0
000F4000E0
002F3000F0
005F3001F0
007F2004E0
00000006E0
00000008D0
0000000BC0
0000000DA0
ENDCHAR
STARTCHAR iotatonos
ENCODING 943
SWIDTH 259 0
DWIDTH 5 0
BBX 4 13 1 0
BITMAP
0F80
2F20
3A00
0000
BD00
BB00
CA00
C800
D600
D500
C500
BB56
4EC1
ENDCHAR
STARTCHAR upsilondieresistonos
ENCODING 944
SWIDTH 491 0
DWIDTH 9 0
BBX 9 13 -1 0
BITMAP
00007F2000
01E79A6E20
0073A33700
0000000000
05EC006700
0BCF100B50
114F0005C0
005C0004F0
00690004F0
00770007D0
0068001D90
003FA9EE20
0008EEB200
ENDCHAR
STARTCHAR alpha
ENCODING 945
SWIDTH 561 0
DWIDTH 10 0
BBX 10 9 0 0
BITMAP
006DEA07F5
07E86B6CC0
0E2000BF40
490000AA00
570000B500
570001E600
3C00097900
0DB6A75E79
03DE801EC3
ENDCHAR
STARTCHAR beta
ENCODING 946
SWIDTH 530 0
DWIDTH 10 0
BBX 9 18 0 -4
BITMAP
0001AEE600
001DD9BF20
007A000A60
00D2000850
02D0000B10
05A0019400
0783FE7000
0970607800
0A70000B40
0B700006A0
0CA00006C0
0DE2000AB0
0E8DA9CF50
0E73CFC500
0F70000000
1F80000000
2F80000000
2B40000000
ENDCHAR
STARTCHAR gamma
ENCODING 947
SWIDTH 466 0
DWIDTH 8 0
BBX 8 13 0 -4
BITMAP
4EC100DE
BAF603F8
208A08E1
003C0D80
000D2F10
000C7900
000AB200
000BA000
000C5000
001F4000
006F4000
009F2000
007D0000
ENDCHAR
STARTCHAR delta
ENCODING 948
SWIDTH 479 0
DWIDTH 9 0
BBX 8 14 0 0
BITMAP
005DEC40
00EAAEF6
00C102C5
004C2000
0005E600
0029EF60
03ED9BF2
0C7000DA
3A00007D
5600005E
6700006D
3D1001C8
0DD9AED1
02BEE910
ENDCHAR
STARTCHAR epsilon
ENCODING 949
SWIDTH 381 0
DWIDTH 7 0
BBX 7 9 0 0
BITMAP
019DEC40
0CE99D30
0F100000
0A333000
03BDA000
1D100000
3E100310
1FD9AF40
04CED800
ENDCHAR
STARTCHAR zeta
ENCODING 950
SWIDTH 386 0
DWIDTH 7 0
BBX 8 20 0 -6
BITMAP
00010000
002B0000
008A02C4
005E6EF5
0007F920
004F6000
01E70000
08900000
0D100000
38000000
56000000
57000000
3F720000
0BFFD810
006BEFB0
000004E0
000000B0
00289C30
003FA200
00010000
ENDCHAR
STARTCHAR eta
ENCODING 951
SWIDTH 510 0
DWIDTH 9 0
BBX 9 13 -1 -4
BITMAP
04EA04DD20
0CAF2E9D90
120D8603D0
000CB000E0
000C7000E0
000F4000E0
002F3000F0
005F3001F0
007F2004E0
00000006E0
00000008D0
0000000BC0
0000000DA0
ENDCHAR
STARTCHAR theta
ENCODING 952
SWIDTH 514 0
DWIDTH 9 0
BBX 9 14 0 0
BITMAP
0019ED5000
00AE9BF300
04D1008A00
0950001E00
0C00000B30
0C00000940
1FFFFFFF60
2E88888C60
1D00000950
0E10000A30
0B50001E00
06C1008A00
01DD9BF200
002BEC4000
ENDCHAR
STARTCHAR iota
ENCODING 953
SWIDTH 259 0
DWIDTH 5 0
BBX 4 9 1 0
BITMAP
BD00
BB00
CA00
C800
D600
D500
C500
BB56
4EC1
ENDCHAR
STARTCHAR kappa
ENCODING 954
SWIDTH 495 0
DWIDTH 9 0
BBX 10 9 -1 0
BITMAP
04ED1005D4
1CAF508FE1
110E55F700
000D5E4000
000DAB0000
000E993000
000F64B000
002F40DC99
005F303ED2
ENDCHAR
STARTCHAR lambda
ENCODING 955
SWIDTH 506 0
DWIDTH 9 0
BBX 10 14 0 0
BITMAP
0038200000
02EFC00000
0423E20000
0000950000
0000670000
0000990000
0002EB0000
00098C0000
002F2C1000
009C0B3000
02F6097000
09E107C001
2F9004FBB2
9F4000AE60
ENDCHAR
STARTCHAR mu
ENCODING 956
SWIDTH 552 0
DWIDTH 10 0
BBX 10 13 0 -4
BITMAP
0AF0007F20
0AD0007F00
0AB0007C00
0A80007A00
0A6000A700
0A6001E700
0BA0089900
0DE88C4E79
0F5DD30DD3
1F30000000
2F40000000
3F50000000
2B30000000
ENDCHAR
STARTCHAR nu
ENCODING 957
SWIDTH 453 0
DWIDTH 8 0
BBX 9 10 -1 -1
BITMAP
06EA004C20
1CBF300EA0
110D600DB0
0009700E90
0007704F40
000670BB00
000575E300
00058E6000
0006F70000
0001400000
ENDCHAR
STARTCHAR xi
ENCODING 958
SWIDTH 390 0
DWIDTH 7 0
BBX 8 18 0 -4
BITMAP
00200000
03C00000
04D35BD0
006FC850
05D40000
09700000
03A16810
01ACEE20
09300000
47000000
68000000
4F941000
0AFFFA20
005AEFD0
000004D2
000000A1
00189C60
000DB400
ENDCHAR
STARTCHAR omicron
ENCODING 959
SWIDTH 475 0
DWIDTH 9 0
BBX 8 9 0 0
BITMAP
005CFD50
06FB9CF3
0E40009A
4A00001C
5700000D
5800001C
2E200098
0BEA9DE2
019EEB20
ENDCHAR
STARTCHAR pi
ENCODING 960
SWIDTH 591 0
DWIDTH 11 0
BBX 11 9 0 0
BITMAP
05CEFFFFFF40
4C9AB88E8810
4006501B0000
0009304A0000
000D10690000
004D00880000
00A9009A0000
03F6009FAA00
0AF2003ED300
ENDCHAR
STARTCHAR rho
ENCODING 961
SWIDTH 515 0
DWIDTH 9 0
BBX 8 13 1 -4
BITMAP
007DEB30
09EA9DE1
2E2000B6
78000058
A6000049
B8000077
CD2002E3
D8E9AEA0
D67EE800
D7000000
E8000000
EA000000
B7000000
ENDCHAR
STARTCHAR uni03C2
ENCODING 962
SWIDTH 377 0
DWIDTH 7 0
BBX 7 13 0 -4
BITMAP
006DFE50
08EA9B40
1C100000
47000000
57000000
4C100000
0ED61000
04EFE700
0028EF70
000006C0
000001A0
0028AD30
001DA200
ENDCHAR
STARTCHAR sigma
ENCODING 963
SWIDTH 545 0
DWIDTH 10 0
BBX 10 9 0 0
BITMAP
005CEFFFFC
06FC98D885
0E60007500
4B00001D00
5800000F20
5A00002F10
2E30009D00
0BEA9DF500
01AEEB4000
ENDCHAR
STARTCHAR tau
ENCODING 964
SWIDTH 392 0
DWIDTH 7 0
BBX 8 9 0 0
BITMAP
19EFFFF1
AA9D9880
400C1000
000D0000
002D0000
004D0000
005E0000
004FBA20
000BE600
ENDCHAR
STARTCHAR upsilon
ENCODING 965
SWIDTH 491 0
DWIDTH 9 0
BBX 9 9 -1 0
BITMAP
05EC006700
0BCF100B50
114F0005C0
005C0004F0
00690004F0
00770007D0
0068001D90
003FA9EE20
0008EEB200
ENDCHAR
STARTCHAR phi
ENCODING 966
SWIDTH 603 0
DWIDTH 11 0
BBX 11 14 0 -4
BITMAP
000130000000
009F90AEC200
08E728E9DA00
1E200E301D10
48003D000A20
57005B000B20
3B005A002E00
0D926A16E800
03EFFFFF9000
0017CE830000
00008C000000
00009D000000
0000AE000000
000053000000
ENDCHAR
STARTCHAR chi
ENCODING 967
SWIDTH 462 0
DWIDTH 8 0
BBX 10 13 -1 -4
BITMAP
07E90004FA
1BAF400CE1
2106A05F50
0000D0D900
0000A9D100
00007F4000
0000BB0000
0006DC0000
002E6B2000
00BC077000
06F504D000
2EC000EB95
AF40005EB0
ENDCHAR
STARTCHAR psi
ENCODING 968
SWIDTH 620 0
DWIDTH 11 0
BBX 12 17 -1 -4
BITMAP
000000DB0000
000000C90000
000000B80000
000000B60000
04EC10B60A20
0BBF20B505C0
113F10C500F2
004C00C400D4
005900C400E5
006700D303F2
005C00D32CC0
001DD9ECFE30
0002BEFD9200
000001F30000
000002F40000
000003F50000
000003B30000
ENDCHAR
STARTCHAR omega
ENCODING 969
SWIDTH 660 0
DWIDTH 12 0
BBX 12 10 0 0
BITMAP
000110001000
007E30007700
07FA10000C40
1E500BC005C0
4A000DC001F1
57000D9000F3
48000B5001F3
1D100B4007F1
0AD9C8D9BF90
01BE905DE900
ENDCHAR
STARTCHAR iotadieresis
ENCODING 970
SWIDTH 259 0
DWIDTH 5 0
BBX 7 12 -1 0
BITMAP
8E209E20
37104700
00000000
00BD0000
00BB0000
00CA0000
00C80000
00D60000
00D50000
00C50000
00BB5600
004EC100
ENDCHAR
STARTCHAR upsilondieresis
ENCODING 971
SWIDTH 491 0
DWIDTH 9 0
BBX 9 12 -1 0
BITMAP
00BD00CC00
0056005600
0000000000
05EC006700
0BCF100B50
114F0005C0
005C0004F0
00690004F0
00770007D0
0068001D90
003FA9EE20
0008EEB200
ENDCHAR
STARTCHAR omicrontonos
ENCODING 972
SWIDTH 475 0
DWIDTH 9 0
BBX 8 13 0 0
BITMAP
00007F20
00008A00
00009300
00000000
005CFD50
06FB9CF3
0E40009A
4A00001C
5700000D
5800001C
2E200098
0BEA9DE2
019EEB20
ENDCHAR
STARTCHAR upsilontonos
ENCODING 973
SWIDTH 491 0
DWIDTH 9 0
BBX 9 13 -1 0
BITMAP
00000DB000
00000E4000
00001C0000
0000000000
05EC006700
0BCF100B50
114F0005C0
005C0004F0
00690004F0
00770007D0
0068001D90
003FA9EE20
0008EEB200
ENDCHAR
STARTCHAR omegatonos
ENCODING 974
SWIDTH 660 0
DWIDTH 12 0
BBX 12 13 0 0
BITMAP
000004F40000
000006D00000
000007600000
000110001000
007E30007700
07FA10000C40
1E500BC005C0
4A000DC001F1
57000D9000F3
48000B5001F3
1D100B4007F1
0AD9C8D9BF90
01BE905DE900
ENDCHAR
STARTCHAR uni03D0
ENCODING 976
SWIDTH 438 0
DWIDTH 8 0
BBX 7 14 1 0
BITMAP
002BE900
01DB9E30
09800460
2E100270
7DA21940
B6BFFC00
E3067100
F3586000
FDFFF900
FB412B20
C8000540
8E100830
2ED9BD10
03CEC300
ENDCHAR
STARTCHAR uni03D1
ENCODING 977
SWIDTH 541 0
DWIDTH 10 0
BBX 10 14 0 0
BITMAP
0008ED4000
007E9CE200
00C300A700
00B0002C00
00A0000D00
0092000A20
002C4108C1
0003DFFFF1
0BE5058B70
7AE9000850
2099000B30
0069003E00
004E9AF800
0008EE9000
ENDCHAR
STARTCHAR uni03D2
ENCODING 978
SWIDTH 616 0
DWIDTH 11 0
BBX 12 12 0 0
BITMAP
1AED4003CE80
89CFE11DBDF1
0008F56A0AE0
0000E8C20120
00009CC00000
00006F900000
00005F600000
00005F500000
00005F500000
00005F500000
00007F800000
002EFFFE3000
ENDCHAR
STARTCHAR uni03D5
ENCODING 981
SWIDTH 575 0
DWIDTH 10 0
BBX 10 17 0 -4
BITMAP
00002F7000
00002F6000
00002F4000
00003F3000
003AEFE910
04EECFBFC0
0D804E02D6
3C005D0059
57006C002A
58006B0049
2E307A01C5
09FABC9EB0
008EFFE800
0000B90000
0000D80000
0000F80000
0002F70000
ENDCHAR
STARTCHAR uni03D6
ENCODING 982
SWIDTH 821 0
DWIDTH 15 0
BBX 15 9 0 0
BITMAP
19EFFFFFFFFFFFB0
9B9DE988888EA850
401D200420089000
0058000FA004D000
0075001F8003F000
0076000F3004F000
004B001E2009D000
000DC9D7D9CF6000
0003DE707EE70000
ENDCHAR
STARTCHAR uni03D8
ENCODING 984
SWIDTH 627 0
DWIDTH 11 0
BBX 11 12 0 0
BITMAP
0029DFEB5000
04EFB9BFF800
0DF50002EF30
4FB000007F80
5F8000004FA0
4F9000005F80
1EC000007F30
05F60002E800
003ACABB5000
00003F600000
00004F700000
0009DFE92000
ENDCHAR
STARTCHAR uni03D9
ENCODING 985
SWIDTH 475 0
DWIDTH 9 0
BBX 8 14 0 -5
BITMAP
005CFD50
06FB9CF3
0E400099
3A00001C
5700000D
5800001C
3D100079
0CD87BE2
02BFFB30
00079000
0009A000
000AC000
000CB000
00010000
ENDCHAR
STARTCHAR uni03DA
ENCODING 986
SWIDTH 578 0
DWIDTH 10 0
BBX 10 12 0 0
BITMAP
0029DFFFF8
04EFB9AEF8
0DF30001C8
3F90000048
5F80000000
4FA0000000
1EF6000000
04FFD99300
0029DFF500
000005F500
000006F600
00019EFE91
ENDCHAR
STARTCHAR uni03DB
ENCODING 987
SWIDTH 490 0
DWIDTH 9 0
BBX 9 13 0 -4
BITMAP
0028DEFFC0
04ECA98970
0C20000000
4700000000
5600000000
4C10000000
0ED5000000
05FFD40000
0029EF3000
0000198000
0000056000
0059AC1000
004D810000
ENDCHAR
STARTCHAR uni03DC
ENCODING 988
SWIDTH 588 0
DWIDTH 11 0
BBX 11 12 0 0
BITMAP
3AFFDDDDEF40
00BF10001A40
009F10000220
009F1000A000
009F1003A000
009FBBCFA000
009F1001A000
009F10000000
009F10000000
009F10000000
00BF30000000
4DFFEB000000
ENDCHAR
STARTCHAR uni03DD
ENCODING 989
SWIDTH 386 0
DWIDTH 7 0
BBX 9 14 -2 -5
BITMAP
0008FFFFC0
0008D88850
0008A00000
0008900000
0007900000
0007CBE900
0007A68400
0008700000
0009500000
000B200000
000D000000
418A000000
BFF3000000
2830000000
ENDCHAR
STARTCHAR uni03DE
ENCODING 990
SWIDTH 525 0
DWIDTH 9 0
BBX 9 12 0 0
BITMAP
00AFFF2000
000A900000
003B000000
00B2000000
0760000000
2FFFFFFFE0
5888888D60
0000002C00
000000B300
0000069000
00004E3000
0009FFE300
ENDCHAR
STARTCHAR uni03DF
ENCODING 991
SWIDTH 434 0
DWIDTH 8 0
BBX 9 12 -1 0
BITMAP
09E6000000
5ADB000000
104B000000
0039000000
0055002200
00848CF500
00EFEAC100
028300A000
0000049000
0000078010
000008E980
000004EB10
ENDCHAR
STARTCHAR uni03E0
ENCODING 992
SWIDTH 697 0
DWIDTH 13 0
BBX 13 12 0 0
BITMAP
0000BF30000000
00004FA0000000
00000BF3000000
00000DFB000000
000078CF300000
0001D14FB00000
0009706FF30000
002D11D5FB0000
00A60880BF3000
04D02D104FB000
0C50A6001FF500
5C04D003EFFF80
ENDCHAR
STARTCHAR uni03E1
ENCODING 993
SWIDTH 458 0
DWIDTH 8 0
BBX 9 17 -1 -5
BITMAP
4E81000000
2CFD200000
008FD20000
0005EC0000
00003F8000
00002BE100
018CE5C700
04FB206D00
0020001F20
000049DE40
0009FC3A60
0002600870
0000000770
0000000860
0000000940
0000000B00
0000000800
ENDCHAR
STARTCHAR uni03F0
ENCODING 1008
SWIDTH 504 0
DWIDTH 9 0
BBX 10 9 0 0
BITMAP
3DC0002FD0
AAF400BE30
00A606F500
00662E9000
0055CF2000
007BEA0000
00CF594000
06F906E8A3
3FD100AE90
ENDCHAR
STARTCHAR uni03F1
ENCODING 1009
SWIDTH 467 0
DWIDTH 8 0
BBX 7 13 1 -4
BITMAP
02BEE700
1EB9BF40
77000890
C00002B0
E10003A0
FA213C70
E9FFFD10
C6586100
5F810000
05EE6000
0005D000
068A9000
06D70000
ENDCHAR
STARTCHAR uni03F4
ENCODING 1012
SWIDTH 737 0
DWIDTH 13 0
BBX 13 12 0 0
BITMAP
00039DFEB50000
006FFB9BEFA000
03FD20001BF700
0AF3000001EE00
0EE0000000AF30
1FFDDDDDDDEF50
1FD00000009F40
0EF1000000BF30
0AF7000002FD00
03FE30001BF600
006FFB9AEF9000
0003ADFEB40000
ENDCHAR
STARTCHAR uni03F5
ENCODING 1013
SWIDTH 380 0
DWIDTH 7 0
BBX 7 9 0 0
BITMAP
007DEC30
07D99C20
0A000000
3C899300
5FFFF200
4A000000
1E200310
0AE9AF40
01AEE900
ENDCHAR
STARTCHAR uni03F6
ENCODING 1014
SWIDTH 382 0
DWIDTH 7 0
BBX 7 9 0 0
BITMAP
4CFD6000
3C99D600
00001A00
04998D10
04FFFF30
00000B20
11003E00
6E9AE800
1BEE8000
ENDCHAR
STARTCHAR uni0400
ENCODING 1024
SWIDTH 626 0
DWIDTH 11 0
BBX 11 16 0 0
BITMAP
000186000000
00007F600000
000003C30000
000000000000
3AFFCCCDEF20
00AF10001B20
009F10000310
009F10009000
009F1003B000
009FBBCEB000
009F1001A000
009F10000010
009F100000A0
009F10000590
00AF10002C70
3AFFCCCDFF50
ENDCHAR
STARTCHAR uni0401
ENCODING 1025
SWIDTH 626 0
DWIDTH 11 0
BBX 11 15 0 0
BITMAP
002E902E9000
001E902E8000
000000000000
3AFFCCCDEF20
00AF10001B20
009F10000310
009F10009000
009F1003B000
009FBBCEB000
009F1001A000
009F10000010
009F100000A0
009F10000590
00AF10002C70
3AFFCCCDFF50
ENDCHAR
STARTCHAR uni0402
ENCODING 1026
SWIDTH 731 0
DWIDTH 13 0
BBX 13 12 0 0
BITMAP
7FDBDFCBCFA000
87006F4005B000
91006F4000A000
20006F40002000
00006F40000000
00006F9ABC9200
00006F6002CE10
00006F40004F70
00006F40002F90
00006F40002F70
00007F4AB05E20
002AEF46EAA300
ENDCHAR
STARTCHAR uni0403
ENCODING 1027
SWIDTH 548 0
DWIDTH 10 0
BBX 10 16 0 0
BITMAP
0000048400
00002EA100
0000B60000
0000000000
2AFFDDDFF6
00AF1001B6
009F100057
009F100025
009F100000
009F100000
009F100000
009F100000
009F100000
009F100000
00BF300000
2DFFEB0000
ENDCHAR
STARTCHAR uni0404
ENCODING 1028
SWIDTH 668 0
DWIDTH 12 0
BBX 12 12 0 0
BITMAP
00039CBDFFE0
006E50003DE0
04F6000003E0
0AE0000000B0
0FC000000000
1FEBBBBB6000
1FC000000000
0FD000000000
0BF200000000
04F800000051
007F70001880
0004ACBBA400
ENDCHAR
STARTCHAR uni0405
ENCODING 1029
SWIDTH 504 0
DWIDTH 9 0
BBX 9 12 0 0
BITMAP
019CCEFC00
0BB001BD00
1F70002D00
1FC1000A00
09FD400000
008FFA2000
0003CFE500
000006FF20
5500007F70
5A00004F60
4F60009E10
3FFDCCA200
ENDCHAR
STARTCHAR uni0406
ENCODING 1030
SWIDTH 357 0
DWIDTH 6 0
BBX 6 12 0 0
BITMAP
4DFFE9
00BF20
009F10
009F00
009F00
009F00
009F00
009F00
009F00
009F10
00BF20
4DFFE9
ENDCHAR
STARTCHAR uni0407
ENCODING 1031
SWIDTH 357 0
DWIDTH 6 0
BBX 7 15 0 0
BITMAP
9E209E10
8E209E10
00000000
4DFFE900
00BF2000
009F1000
009F0000
009F0000
009F0000
009F0000
009F0000
009F0000
009F1000
00BF2000
4DFFE900
ENDCHAR
STARTCHAR uni0408
ENCODING 1032
SWIDTH 396 0
DWIDTH 7 0
BBX 7 12 0 0
BITMAP
04CFFE90
000AF400
0009F100
0008F100
0008F100
0008F100
0008F100
0008F100
0008F100
3109F100
EC0AD000
7ECB3000
ENDCHAR
STARTCHAR uni0409
ENCODING 1033
SWIDTH 924 0
DWIDTH 17 0
BBX 18 12 -1 0
BITMAP
0004AFDCCFFB500000
00000C200DD0000000
00000C100DC0000000
00000C000DC0000000
00000C000DC0000000
00002B000DEBCCA400
000048000DC002BF60
000085000DC0001EE0
0000C2000DC0000CF1
0103C0000DC0000EE0
3FCE40000EC0008F60
2DE70004BFEBCDB400
ENDCHAR
STARTCHAR uni040A
ENCODING 1034
SWIDTH 1013 0
DWIDTH 18 0
BBX 18 12 0 0
BITMAP
4DFFE900CFFFC20000
00BF200006F7000000
009F100004F6000000
009F100004F6000000
009F100004F6000000
009FBBBBBCFDBDC820
009F100004F6005EE2
009F100004F60006F9
009F100004F60003FA
009F100004F60005F8
00BF300006F6002DE2
4CFFE900AFFDBCD920
ENDCHAR
STARTCHAR uni040B
ENCODING 1035
SWIDTH 761 0
DWIDTH 14 0
BBX 14 12 0 0
BITMAP
7FDBDFCBCFA000
87006F4005B000
91006F4000A000
20006F40002000
00006F40000000
00006F9ABCA200
00006F7002EC00
00006F4000AF00
00006F40009F10
00006F40009F10
00008F6000BF20
002CFFE90CFFE5
ENDCHAR
STARTCHAR uni040C
ENCODING 1036
SWIDTH 658 0
DWIDTH 12 0
BBX 13 16 0 0
BITMAP
00000048400000
000002EA100000
00000B60000000
00000000000000
2CFFE8002CE600
00BF3000CEF900
009F1004B03100
009F1009500000
009F102C000000
009FCCF4000000
009F11CD100000
009F104F800000
009F100BF20000
009F1004FA0000
00BF3000BF4000
2CFFE9004FFC10
ENDCHAR
STARTCHAR uni040D
ENCODING 1037
SWIDTH 780 0
DWIDTH 14 0
BBX 14 16 0 0
BITMAP
00018700000000
00006E70000000
000002C3000000
00000000000000
4DFFE9009EFFD4
00BF200002FB00
009F100006FA00
009F10004BFA00
009F1002B1FA00
009F101B20FA00
009F10B300FA00
009F1A5000FA00
009F870000FA00
009F900000FA00
00BF200002FC00
4CFFE9009EFFD4
ENDCHAR
STARTCHAR uni040E
ENCODING 1038
SWIDTH 625 0
DWIDTH 11 0
BBX 13 17 -1 0
BITMAP
00004500440000
0000DC00BE0000
0000C9009D0000
000019BB920000
00000000000000
1DFFE7004EFF70
008F600003F300
001DC000068000
0006F5000C1000
0000DD00580000
00005F60B20000
00000BD4900000
000003FE200000
000000AA000000
000100C2000000
006FBC80000000
003DE800000000
ENDCHAR
STARTCHAR uni040F
ENCODING 1039
SWIDTH 759 0
DWIDTH 14 0
BBX 13 16 0 -4
BITMAP
4DFFE800CFFFC0
00BF300008F600
009F100006F400
009F100006F400
009F100006F400
009F100006F400
009F100006F400
009F100006F400
009F100006F400
009F100006F400
00AF100006F500
39FFBBBBBDFD80
00000094000000
000000C7000000
000001FB000000
000000D8000000
ENDCHAR
STARTCHAR uni0410
ENCODING 1040
SWIDTH 718 0
DWIDTH 13 0
BBX 13 12 0 0
BITMAP
000003E0000000
00000AF6000000
00001CDC000000
0000867F400000
0000D12FB00000
0005900AF20000
000C2004F90000
003EBBBBFE1000
00A600007F7000
02D000001FE000
09A000000CF700
CFFA0000CFFFB0
ENDCHAR
STARTCHAR uni0411
ENCODING 1041
SWIDTH 617 0
DWIDTH 11 0
BBX 11 12 0 0
BITMAP
2AFFDDDEF900
00AF10008900
009F10002900
009F10000200
009F10000000
009FBCDB6000
009F1018FA00
009F1000BF30
009F10008F50
009F10009F30
00BF1005FA00
2AFFCCDC6000
ENDCHAR
STARTCHAR uni0412
ENCODING 1042
SWIDTH 618 0
DWIDTH 11 0
BBX 11 12 0 0
BITMAP
3AFFCCDC7000
00AF1007F800
009F1000ED00
009F1000EC00
009F1007F500
009FBCFC3000
009F1017E600
009F10009F30
009F10006F70
009F10008F60
00BF1003ED10
3BFFCCCD8100
ENDCHAR
STARTCHAR uni0413
ENCODING 1043
SWIDTH 548 0
DWIDTH 10 0
BBX 10 12 0 0
BITMAP
2AFFDDDFF6
00AF1001B6
009F100057
009F100025
009F100000
009F100000
009F100000
009F100000
009F100000
009F100000
00BF300000
2DFFEB0000
ENDCHAR
STARTCHAR uni0414
ENCODING 1044
SWIDTH 663 0
DWIDTH 12 0
BBX 12 16 0 -4
BITMAP
008DECCDFF92
00068002F800
00067002F800
00076002F800
00094002F800
000C2002F800
001E0002F800
004A0002F800
00950002F800
01D10002F800
0A800002F900
DFCBBBBCFFB2
F810000006F3
F100000000D2
B00000000092
200000000020
ENDCHAR
STARTCHAR uni0415
ENCODING 1045
SWIDTH 626 0
DWIDTH 11 0
BBX 11 12 0 0
BITMAP
3AFFCCCDEF20
00AF10001B20
009F10000310
009F10009000
009F1003B000
009FBBCEB000
009F1001A000
009F10000010
009F100000A0
009F10000590
00AF10002C70
3AFFCCCDFF50
ENDCHAR
STARTCHAR uni0416
ENCODING 1046
SWIDTH 937 0
DWIDTH 17 0
BBX 18 12 -1 0
BITMAP
05EC201CFFEB003DE4
09FEB0007F5000DEF7
0130C2005F3005A041
000068005F300A4000
00001C205F303C0000
000006FCDFCCF40000
00001EB05F30CD0000
00009F205F304F7000
0003F9005F300BE100
000BF2005F3004F900
005F90007F5000BF30
1CFF201CFFEB004FEB
ENDCHAR
STARTCHAR uni0417
ENCODING 1047
SWIDTH 545 0
DWIDTH 10 0
BBX 10 12 0 0
BITMAP
0B7CCDC500
0DB1009F50
0C20003FA0
0900003F80
000003CB10
0008EF9000
000002BD40
0000001EE1
0000000BF3
2200000CF1
1A40006F70
007ABDB500
ENDCHAR
STARTCHAR uni0418
ENCODING 1048
SWIDTH 780 0
DWIDTH 14 0
BBX 14 12 0 0
BITMAP
4DFFE9009EFFD4
00BF200002FB00
009F100006FA00
009F10004BFA00
009F1002B1FA00
009F101B20FA00
009F10B300FA00
009F1A5000FA00
009F870000FA00
009F900000FA00
00BF200002FC00
4CFFE9009EFFD4
ENDCHAR
STARTCHAR uni0419
ENCODING 1049
SWIDTH 780 0
DWIDTH 14 0
BBX 14 16 0 0
BITMAP
0000BB00BB0000
0000D9009E0000
000029BB920000
00000000000000
4DFFE9009EFFD4
00BF200002FB00
009F100006FA00
009F10004BFA00
009F1002B1FA00
009F101B20FA00
009F10B300FA00
009F1A5000FA00
009F870000FA00
009F900000FA00
00BF200002FC00
4CFFE9009EFFD4
ENDCHAR
STARTCHAR uni041A
ENCODING 1050
SWIDTH 658 0
DWIDTH 12 0
BBX 13 12 0 0
BITMAP
2CFFE8002CE600
00BF3000CEF900
009F1004B03100
009F1009500000
009F102C000000
009FCCF4000000
009F11CD100000
009F104F800000
009F100BF20000
009F1004FA0000
00BF3000BF4000
2CFFE9004FFC10
ENDCHAR
STARTCHAR uni041B
ENCODING 1051
SWIDTH 684 0
DWIDTH 12 0
BBX 13 12 -1 0
BITMAP
0004AFDCCEFC60
00000C200BE000
00000C100BE000
00000C000BE000
00000C000BE000
00002B000BE000
000048000BE000
000085000BE000
0000C2000BE000
0103C0000BE000
3FCE40000DF100
2DE70006DFFE70
ENDCHAR
STARTCHAR uni041C
ENCODING 1052
SWIDTH 895 0
DWIDTH 16 0
BBX 16 12 0 0
BITMAP
5DFF60000005FFD3
01DFD000000CFD00
00CCF400003DEB00
00C6FA000097DB00
00C1DF2001E1DB00
00C16F800690DB00
00C11EE00D30DB00
00C108F54C00DB00
00C102FBA500DB00
00C200AFD000DB00
00E4003F7001ED00
6DFE800C106DFFD3
ENDCHAR
STARTCHAR uni041D
ENCODING 1053
SWIDTH 777 0
DWIDTH 14 0
BBX 14 12 0 0
BITMAP
4DFFE9009EFFD4
00BF200002FB00
009F100001F900
009F100001F900
009F100001F900
009FBBBBBBF900
009F100001F900
009F100001F900
009F100001F900
009F100001F900
00BF200002FB00
4CFFE9009EFFC4
ENDCHAR
STARTCHAR uni041E
ENCODING 1054
SWIDTH 738 0
DWIDTH 13 0
BBX 12 12 1 0
BITMAP
0039CBCB5000
05F70005EA00
3F9000006F70
9F2000000DE0
EE0000000AF4
FD00000008F5
FD00000008F5
EE00000009F3
AF3000000DD0
3F9000004F60
06F70003D900
003ACBBB5000
ENDCHAR
STARTCHAR uni041F
ENCODING 1055
SWIDTH 759 0
DWIDTH 14 0
BBX 13 12 0 0
BITMAP
3AFFDCCCCDFE90
00AF100006F500
009F100006F400
009F100006F400
009F100006F400
009F100006F400
009F100006F400
009F100006F400
009F100006F400
009F100006F400
00CF400008F700
5EFFFA01EFFFE0
ENDCHAR
STARTCHAR uni0420
ENCODING 1056
SWIDTH 569 0
DWIDTH 10 0
BBX 10 12 0 0
BITMAP
1AFFCCDA50
00AF101AF5
009F1002FB
009F1000FB
009F1002F8
009F102BD1
009FBBB610
009F100000
009F100000
009F100000
00BF300000
2CFFEA0000
ENDCHAR
STARTCHAR uni0421
ENCODING 1057
SWIDTH 670 0
DWIDTH 12 0
BBX 12 12 0 0
BITMAP
00029CBDFFF0
005E80003DF0
03F9000003F0
09F2000000C0
0ED000000000
1FC000000000
1FC000000000
0ED000000000
0AF200000000
03FA00000032
006F910006A0
0003ADCBA500
ENDCHAR
STARTCHAR uni0422
ENCODING 1058
SWIDTH 603 0
DWIDTH 11 0
BBX 11 12 0 0
BITMAP
8FDBDFCBDF70
96006F400870
A0006F400280
10006F400010
00006F400000
00006F400000
00006F400000
00006F400000
00006F400000
00006F400000
00008F600000
002CFFFC1000
ENDCHAR
STARTCHAR uni0423
ENCODING 1059
SWIDTH 625 0
DWIDTH 11 0
BBX 13 12 -1 0
BITMAP
1DFFE7004EFF70
008F600003F300
001DC000068000
0006F5000C1000
0000DD00580000
00005F60B20000
00000BD4900000
000003FE200000
000000AA000000
000100C2000000
006FBC80000000
003DE800000000
ENDCHAR
STARTCHAR uni0424
ENCODING 1060
SWIDTH 725 0
DWIDTH 13 0
BBX 13 12 0 0
BITMAP
0001CFFFC10000
000017F7100000
006CCBFBDD7000
08F604F406FA00
2FA004F400AF30
5F6004F4006F60
5F7004F4006F50
1EC004F400AE10
06F804F406F600
0039CBFBB93000
000006F7000000
0001CFFFC10000
ENDCHAR
STARTCHAR uni0425
ENCODING 1061
SWIDTH 664 0
DWIDTH 12 0
BBX 12 12 0 0
BITMAP
8EFFD405EFE9
02DF40007D20
004FB001D200
0008F60A5000
0000DE780000
00003FE00000
00003EF60000
0001C2CE2000
000B503FC000
00890008F800
06E00002FF40
CFFC002CFFFB
ENDCHAR
STARTCHAR uni0426
ENCODING 1062
SWIDTH 756 0
DWIDTH 14 0
BBX 13 16 0 -4
BITMAP
4DFFE802CFFFB0
00BF300009F500
009F100007F300
009F100007F300
009F100007F300
009F100007F300
009F100007F300
009F100007F300
009F100007F300
009F100007F300
00AF100007F400
3AFFBBBBBDFEA0
00000000001AD0
000000000003C0
000000000000B0
00000000000020
ENDCHAR
STARTCHAR uni0427
ENCODING 1063
SWIDTH 650 0
DWIDTH 12 0
BBX 12 12 0 0
BITMAP
AFFE70BFFFC1
09F50007F600
07F30005F500
07F30005F500
06F40005F500
03FA1007F500
005BCA99F500
00000005F500
00000005F500
00000005F500
00000007F600
000002CFFFC1
ENDCHAR
STARTCHAR uni0428
ENCODING 1064
SWIDTH 1053 0
DWIDTH 19 0
BBX 19 12 0 0
BITMAP
4DFFE60BFFFA07EFFD40
00BF20007F60002FA000
009F00005F40001F9000
009F00005F40001F8000
009F00005F40001F8000
009F00005F40001F8000
009F00005F40001F8000
009F00005F40001F8000
009F00005F40001F8000
009F00005F40001F8000
00AF00005F40001F9000
38EFBBBBDFCBBBBFE820
ENDCHAR
STARTCHAR uni0429
ENCODING 1065
SWIDTH 1044 0
DWIDTH 19 0
BBX 19 16 0 -4
BITMAP
4DFFE60CFFE90AFFFC10
00BF20008F50006F7000
009F00007F30004F5000
009F00007F30004F5000
009F00007F30004F5000
009F00007F30004F5000
009F00007F30004F5000
009F00007F30004F5000
009F00007F30004F5000
009F00007F30004F5000
00AF00007F30004F6000
39FFBBBBDFCBBBCFEB10
00000000000000008F10
00000000000000001F00
00000000000000000B00
00000000000000000200
ENDCHAR
STARTCHAR uni042A
ENCODING 1066
SWIDTH 723 0
DWIDTH 13 0
BBX 13 12 0 0
BITMAP
8FEDDFE9100000
97005F60000000
A1005F50000000
20005F50000000
00005F50000000
00005FCCDB7100
00005F5006FC00
00005F50009F50
00005F50006F70
00005F50008F40
00006F5003EB00
0008EFDBCC7100
ENDCHAR
STARTCHAR uni042B
ENCODING 1067
SWIDTH 887 0
DWIDTH 16 0
BBX 16 12 0 0
BITMAP
5DFFE90000AEFFC4
00BF20000003FA00
009F10000001F900
009F10000001F900
009F10000001F900
009FBCDA4001F900
009F102AF501F900
009F1001ED01F900
009F1000CF01F900
009F1000ED01F900
00BF1007F503FA00
2DFFBBCA30AEFFC4
ENDCHAR
STARTCHAR uni042C
ENCODING 1068
SWIDTH 606 0
DWIDTH 11 0
BBX 11 12 0 0
BITMAP
5DFFE9000000
00BF20000000
009F10000000
009F10000000
009F10000000
009FBCCB6000
009F1018FA00
009F1000BF30
009F10008F50
009F10009F30
00AF1005FA00
29FFBBDC7000
ENDCHAR
STARTCHAR uni042D
ENCODING 1069
SWIDTH 667 0
DWIDTH 12 0
BBX 12 12 0 0
BITMAP
0DFFDCCA4000
0DD30006F900
0E3000007F50
0B0000001FC0
000000000CF0
0007BBBBBEF1
000000000CF0
000000000DD0
000000002F90
150000008E20
08810007E500
004ABBC92000
ENDCHAR
STARTCHAR uni042E
ENCODING 1070
SWIDTH 1042 0
DWIDTH 19 0
BBX 18 12 0 0
BITMAP
4DFFE90005BCBC9200
00BF20009E5001AE40
009F0006F600000CE1
009F000DE0000005F7
009F002FA0000001FB
009FBBCF90000000FC
009F003F90000000FC
009F001FA0000001FA
009F000BE0000004F6
009F1004F500000AD1
00BF20008E40007E30
4CFFE90004BBBC9200
ENDCHAR
STARTCHAR uni042F
ENCODING 1071
SWIDTH 654 0
DWIDTH 12 0
BBX 12 12 -1 0
BITMAP
00007CCBCFE8
000AF5004F60
002FB0004F60
003F90004F60
001ED0004F60
0006FA104F60
00003DFCCF60
00006F804F60
0002ED004F60
000AF4004F60
005FC0006F80
1DFF401CEFFB
ENDCHAR
STARTCHAR uni0430
ENCODING 1072
SWIDTH 480 0
DWIDTH 9 0
BBX 9 9 0 0
BITMAP
019BDB2000
0BB01DA000
0D800AD000
010009E000
0038ACE000
08D309E000
3F5009E000
3F701AE010
09EB64EA30
ENDCHAR
STARTCHAR uni0431
ENCODING 1073
SWIDTH 520 0
DWIDTH 9 0
BBX 9 14 0 0
BITMAP
0000000230
0000159E30
002AEFE600
02DD840000
0A90000000
0D29BDB200
3AC400AD10
4DB0003F70
4F80000F90
3F70000EB0
1F80000F90
0CC0002F50
04F500AC00
004CCC8100
ENDCHAR
STARTCHAR uni0432
ENCODING 1074
SWIDTH 505 0
DWIDTH 9 0
BBX 9 9 0 0
BITMAP
4CFDCDB400
03F500BE00
02F5007F10
02F501C900
02FDCEB100
02F501AE20
02F5004F60
03F5007F30
4CFDBCC600
ENDCHAR
STARTCHAR uni0433
ENCODING 1075
SWIDTH 429 0
DWIDTH 8 0
BBX 8 9 0 0
BITMAP
3CFCACF5
03F500A5
02F50055
02F50011
02F50000
02F50000
02F50000
03F60000
5EFFA000
ENDCHAR
STARTCHAR uni0434
ENCODING 1076
SWIDTH 530 0
DWIDTH 10 0
BBX 10 13 0 -4
BITMAP
04BEBBFE80
001A00DA00
001900D900
003800D900
006500D900
00A200D900
01C000D900
0A6000DA00
DFCBBBFFC1
F7000006F1
E1000000E1
B0000000B0
2000000020
ENDCHAR
STARTCHAR uni0435
ENCODING 1077
SWIDTH 464 0
DWIDTH 8 0
BBX 8 9 0 0
BITMAP
007BCC40
089008E2
1F3001F8
4FCBBBD9
6F200000
4F400000
1FB00005
08FA33A4
007DFD40
ENDCHAR
STARTCHAR uni0436
ENCODING 1078
SWIDTH 754 0
DWIDTH 14 0
BBX 15 9 -1 0
BITMAP
07E901DFF802DD20
0467400F90094810
0001900E80190000
0000A20E80840000
00007FCFDDE10000
0003F80E81DB0000
000CD10E805F6000
007F500F800CE200
1CFC01DFF803FE70
ENDCHAR
STARTCHAR uni0437
ENCODING 1079
SWIDTH 435 0
DWIDTH 8 0
BBX 8 9 0 0
BITMAP
2BBCDA10
2D102FA0
27000CB0
00003C30
005CF810
00002DC0
000009F1
55001CC0
07BBD910
ENDCHAR
STARTCHAR uni0438
ENCODING 1080
SWIDTH 609 0
DWIDTH 11 0
BBX 11 9 0 0
BITMAP
5EFE607EFE40
03F60007F300
02F5003DF200
02F502B7F200
02F51B16F200
02F6A206F200
02FD2006F200
03F60007F300
5EFE607EFE40
ENDCHAR
STARTCHAR uni0439
ENCODING 1081
SWIDTH 609 0
DWIDTH 11 0
BBX 11 13 0 0
BITMAP
005E304E4000
007F102F6000
0007BBB60000
000000000000
5EFE607EFE40
03F60007F300
02F5003DF200
02F502B7F200
02F51B16F200
02F6A206F200
02FD2006F200
03F60007F300
5EFE607EFE40
ENDCHAR
STARTCHAR uni043A
ENCODING 1082
SWIDTH 521 0
DWIDTH 9 0
BBX 10 9 0 0
BITMAP
5EFE704EC1
03F600A480
02F5047000
02F50A2000
02FDDD0000
02F53F8000
02F509F300
03F601ED10
5EFE707FD6
ENDCHAR
STARTCHAR uni043B
ENCODING 1083
SWIDTH 553 0
DWIDTH 10 0
BBX 11 9 -1 0
BITMAP
0008DCBCFB30
00007506F200
00008306F200
0000A206F200
0000C006F200
0001B006F200
00066006F200
1C9D1007F300
1DE5008EFD40
ENDCHAR
STARTCHAR uni043C
ENCODING 1084
SWIDTH 697 0
DWIDTH 13 0
BBX 12 9 0 0
BITMAP
7EFA00003FFC
06FF20009FC0
05AF8001CCB0
057BE1076CB0
0575F60C1CB0
0570DD580CB0
05706FD20CB0
06801EA00DB0
8EF90840CFFC
ENDCHAR
STARTCHAR uni043D
ENCODING 1085
SWIDTH 605 0
DWIDTH 11 0
BBX 11 9 0 0
BITMAP
5EFE708FFD40
03F60008F200
02F50007F100
02F50007F100
02FDBBBDF100
02F50007F100
02F50007F100
03F60008F200
5EFE708EFD40
ENDCHAR
STARTCHAR uni043E
ENCODING 1086
SWIDTH 514 0
DWIDTH 9 0
BBX 9 9 0 0
BITMAP
006CCD9100
07E201CC00
1F80005F50
4F50002F80
6F40000F90
4F50001F80
1F90004F40
08E300AB00
007DCC8100
ENDCHAR
STARTCHAR uni043F
ENCODING 1087
SWIDTH 591 0
DWIDTH 11 0
BBX 11 9 0 0
BITMAP
4CFCBBBEF910
03F5000BC000
02F5000BC000
02F5000BC000
02F5000BC000
02F5000BC000
02F5000BC000
03F6000BD000
5EFE70BFFC10
ENDCHAR
STARTCHAR uni0440
ENCODING 1088
SWIDTH 537 0
DWIDTH 10 0
BBX 9 13 0 -4
BITMAP
39E48BE700
05F9005F60
04F3000DC0
04F3000AF0
04F30009F0
04F3000AD0
04F3000D80
04FA007D10
04FBDCA200
04F3000000
04F3000000
06F5000000
7EFFB00000
ENDCHAR
STARTCHAR uni0441
ENCODING 1089
SWIDTH 446 0
DWIDTH 8 0
BBX 8 9 0 0
BITMAP
006CCD70
07B109F4
1E4002B3
4F100000
6F100000
5F300000
2F900004
09F734B2
008EFC30
ENDCHAR
STARTCHAR uni0442
ENCODING 1090
SWIDTH 456 0
DWIDTH 8 0
BBX 9 9 0 0
BITMAP
BECEFBEF00
C30AD01D00
900AD00810
100AD00100
000AD00000
000AD00000
000AD00000
000BE00000
01CFFD3000
ENDCHAR
STARTCHAR uni0443
ENCODING 1091
SWIDTH 483 0
DWIDTH 9 0
BBX 10 13 -1 -4
BITMAP
3EFF702DFB
02FB0004B0
009F100850
003F800C00
000BE13900
0004F68300
0000CCB000
00005F7000
00000F1000
00003A0000
0000B40000
09A9A00000
09EB100000
ENDCHAR
STARTCHAR uni0444
ENCODING 1092
SWIDTH 710 0
DWIDTH 13 0
BBX 13 17 0 -4
BITMAP
00005AE1000000
000006F1000000
000005F1000000
000005F1000000
009DB8F6BD8000
08D10BF702E600
1F8005F100BC00
3F6005F1009F00
4F5005F1008F10
3F6005F1009E00
1F8005F100BB00
09D10AF602F500
01ADB9F8BD7000
000005F1000000
000005F1000000
000006F3000000
00008EFE700000
ENDCHAR
STARTCHAR uni0445
ENCODING 1093
SWIDTH 479 0
DWIDTH 9 0
BBX 9 9 0 0
BITMAP
AFFD17FF50
07F501D200
00BD194000
002EB70000
0008F50000
002BAE1000
01C21EB000
0A6006F700
DFC01DFF90
ENDCHAR
STARTCHAR uni0446
ENCODING 1094
SWIDTH 590 0
DWIDTH 11 0
BBX 11 13 0 -4
BITMAP
5EFE70CFFC00
03F6000DB000
02F5000CA000
02F5000CA000
02F5000CA000
02F5000CA000
02F5000CA000
03F6000DB000
4CFEBBCFFC20
000000005F20
000000000D20
000000000A20
000000000200
ENDCHAR
STARTCHAR uni0447
ENCODING 1095
SWIDTH 535 0
DWIDTH 10 0
BBX 10 9 0 0
BITMAP
CFF90BFFC1
0DB000CD00
0CA000BC00
0CB000BC00
09E101CC00
01ACB9DC00
000000BC00
000000CD00
00000BFFC1
ENDCHAR
STARTCHAR uni0448
ENCODING 1096
SWIDTH 812 0
DWIDTH 15 0
BBX 15 9 0 0
BITMAP
5EFE46EFD19FFC10
03F5007F100BC000
02F4007F000AC000
02F4007F000AC000
02F4007F000AC000
02F4007F000AC000
02F4007F000AC000
03F5007F100BC000
5EFEBBEFDBCFFC10
ENDCHAR
STARTCHAR uni0449
ENCODING 1097
SWIDTH 814 0
DWIDTH 15 0
BBX 15 13 0 -4
BITMAP
5EFE46EFD1AFFC00
03F5007F100CC000
02F4007F000BB000
02F4007F000BB000
02F4007F000BB000
02F4007F000BB000
02F4007F000BB000
03F5007F100BB000
4CFEBBEFDBCFFC20
0000000000004F30
0000000000000C20
0000000000000920
0000000000000200
ENDCHAR
STARTCHAR uni044A
ENCODING 1098
SWIDTH 568 0
DWIDTH 10 0
BBX 10 9 0 0
BITMAP
BEBDF91000
B30AD00000
A00AD00000
300AD00000
000AEABB60
000AD005F7
000AD000EB
000BD003F7
008EEABC70
ENDCHAR
STARTCHAR uni044B
ENCODING 1099
SWIDTH 728 0
DWIDTH 13 0
BBX 13 9 0 0
BITMAP
5DFE70005EFE60
03F6000004F500
02F5000003F400
02F5000003F400
02FDCC9203F400
02F502DD03F400
02F5008F13F400
03F501CC04F500
5EFDCDA25EFE60
ENDCHAR
STARTCHAR uni044C
ENCODING 1100
SWIDTH 489 0
DWIDTH 9 0
BBX 9 9 0 0
BITMAP
5EFE700000
03F6000000
02F5000000
02F5000000
02FDCCA300
02F501BE20
02F5006F50
03F500AE20
4CFDCDB300
ENDCHAR
STARTCHAR uni044D
ENCODING 1101
SWIDTH 467 0
DWIDTH 8 0
BBX 8 9 0 0
BITMAP
2ABBCA20
3D2009E1
360001F7
000000EA
004BBBFB
000000EA
000002F6
37000AD1
04ABDA20
ENDCHAR
STARTCHAR uni044E
ENCODING 1102
SWIDTH 774 0
DWIDTH 14 0
BBX 14 9 0 0
BITMAP
5EFE7007CCC700
03F6008D103E80
02F502F50009E1
02F505F30006F4
02FDBDF20005F4
02F506F30006F3
02F502F60008E0
03F6009D201E60
5EFE7008DBC500
ENDCHAR
STARTCHAR uni044F
ENCODING 1103
SWIDTH 518 0
DWIDTH 9 0
BBX 10 9 -1 0
BITMAP
002ADCCFE9
00BE200F80
00DC000F70
008F500F70
0005DECF70
0004F70F70
000DD00F70
007F601F80
1CFE04DFFA
ENDCHAR
STARTCHAR uni0450
ENCODING 1104
SWIDTH 464 0
DWIDTH 8 0
BBX 8 13 0 0
BITMAP
006F4000
0009B000
0000B200
00000000
007BCC40
089008E2
1F3001F8
4FCBBBD9
6F200000
4F400000
1FB00005
08FA33A4
007DFD40
ENDCHAR
STARTCHAR uni0451
ENCODING 1105
SWIDTH 464 0
DWIDTH 8 0
BBX 8 12 0 0
BITMAP
07F408F3
06E307E2
00000000
007BCC40
089008E2
1F3001F8
4FCBBBD9
6F200000
4F400000
1FB00005
08FA33A4
007DFD40
ENDCHAR
STARTCHAR uni0452
ENCODING 1106
SWIDTH 563 0
DWIDTH 10 0
BBX 9 18 0 -4
BITMAP
0163000000
6EF5000000
04F5000000
6CFDBB3000
02F5000000
02F67AEA00
02FC203F60
02F5000CA0
02F5000BC0
02F5000AC0
02F5000AC0
02F5000AC0
03F7000AB0
5EFE800B90
0000000C70
0000000E20
000BB05B00
0006EDA100
ENDCHAR
STARTCHAR uni0453
ENCODING 1107
SWIDTH 429 0
DWIDTH 8 0
BBX 8 13 0 0
BITMAP
0001FA00
0007C100
000C2000
00000000
3CFCACF5
03F500A5
02F50055
02F50011
02F50000
02F50000
02F50000
03F60000
5EFFA000
ENDCHAR
STARTCHAR uni0454
ENCODING 1108
SWIDTH 460 0
DWIDTH 8 0
BBX 8 9 0 0
BITMAP
006CCD90
08D104F7
1F800095
4F500000
6FCBBB00
4F400000
1F700000
08D20037
008DCB70
ENDCHAR
STARTCHAR uni0455
ENCODING 1109
SWIDTH 394 0
DWIDTH 7 0
BBX 7 9 0 0
BITMAP
05CBCB10
2F202E10
3F400810
1DF71000
02BFD400
0004DF40
45001F90
4C101E70
4ACBC800
ENDCHAR
STARTCHAR uni0456
ENCODING 1110
SWIDTH 285 0
DWIDTH 5 0
BBX 5 12 0 0
BITMAP
03E600
04F700
001000
3AE500
04F500
02F500
02F500
02F500
02F500
02F500
04F600
5EFE70
ENDCHAR
STARTCHAR uni0457
ENCODING 1111
SWIDTH 285 0
DWIDTH 5 0
BBX 6 12 -1 0
BITMAP
5E50BC
5F50CD
000000
03AE50
004F50
002F50
002F50
002F50
002F50
002F50
004F60
05EFE7
ENDCHAR
STARTCHAR uni0458
ENCODING 1112
SWIDTH 263 0
DWIDTH 5 0
BBX 6 16 -2 -4
BITMAP
0005E5
0006F6
000010
004BE4
0004F4
0003F4
0003F4
0003F4
0003F4
0003F4
0003F4
0003F4
0003F4
0004F2
9D16C0
5DEB20
ENDCHAR
STARTCHAR uni0459
ENCODING 1113
SWIDTH 742 0
DWIDTH 13 0
BBX 14 9 -1 0
BITMAP
0008DCADFA2000
00007508F00000
00008308F00000
0000A108F00000
0000C008FABB70
0001B008F004F9
00066008F000CD
1C8D1008F002E9
1DE5007EFABC81
ENDCHAR
STARTCHAR uni045A
ENCODING 1114
SWIDTH 790 0
DWIDTH 14 0
BBX 14 9 0 0
BITMAP
5EFE709FFD3000
03F60009F10000
02F50008F00000
02F50008F00000
02FDBBBDFBCC71
02F50008F004F9
02F50008F000CD
03F60009F003E9
5EFE709FFBCD80
ENDCHAR
STARTCHAR uni045B
ENCODING 1115
SWIDTH 579 0
DWIDTH 10 0
BBX 11 13 0 0
BITMAP
4AE500000000
04F500000000
6CFDBB300000
02F500000000
02F67AEA0000
02FB203F6000
02F5000D9000
02F5000CB000
02F5000CB000
02F5000CB000
02F5000CB000
03F6000DC000
5EFE81DFFD10
ENDCHAR
STARTCHAR uni045C
ENCODING 1116
SWIDTH 521 0
DWIDTH 9 0
BBX 10 13 0 0
BITMAP
00005F6000
0000B90000
0002B00000
0000000000
5EFE704EC1
03F600A480
02F5047000
02F50A2000
02FDDD0000
02F53F8000
02F509F300
03F601ED10
5EFE707FD6
ENDCHAR
STARTCHAR uni045D
ENCODING 1117
SWIDTH 609 0
DWIDTH 11 0
BBX 11 13 0 0
BITMAP
0009F2000000
0000C8000000
00001C000000
000000000000
5EFE607EFE40
03F60007F300
02F5003DF200
02F502B7F200
02F51B16F200
02F6A206F200
02FD2006F200
03F60007F300
5EFE607EFE40
ENDCHAR
STARTCHAR uni045E
ENCODING 1118
SWIDTH 483 0
DWIDTH 9 0
BBX 10 17 -1 -4
BITMAP
003E501E70
004F300D90
0005BBB710
0000000000
3EFF702DFB
02FB0004C0
00AF100850
003F700C10
000BD03900
0005F57400
0000DBA000
00006F8000
00001F2000
00002B0000
0000950000
07A8C00000
09EB200000
ENDCHAR
STARTCHAR uni045F
ENCODING 1119
SWIDTH 587 0
DWIDTH 11 0
BBX 10 13 0 -4
BITMAP
5EFE70CFFC
03F6000CC0
02F5000CB0
02F5000CB0
02F5000CB0
02F5000CB0
02F5000CB0
03F6000CC0
4CFEBBCFFA
00002A0000
00007E0000
00009F2000
0000260000
ENDCHAR
STARTCHAR uni0462
ENCODING 1122
SWIDTH 727 0
DWIDTH 13 0
BBX 13 14 0 0
BITMAP
004DDDDA000000
0001DF50000000
0000AF10000000
8DCBEFBBCDD500
A7009F1001B600
90009F10004600
00009F10000000
00009FBCDB6000
00009F1018FA00
00009F1000BF30
00009F10008F50
00009F1000AF30
0000BF1005FA00
0029FFBBDC6000
ENDCHAR
STARTCHAR uni0463
ENCODING 1123
SWIDTH 561 0
DWIDTH 10 0
BBX 10 13 0 0
BITMAP
008CA00000
000CB00000
000BB00000
000BB00000
BECEEBEF00
C30BB01D00
900BB00810
200BB00100
000BECCB60
000BB007F6
000BB000FA
000CB005F6
00AFEBCC60
ENDCHAR
STARTCHAR uni046A
ENCODING 1130
SWIDTH 881 0
DWIDTH 16 0
BBX 18 12 -1 0
BITMAP
0001FFCBBBBBEA0000
00006F800001D20000
00000BF4000A600000
000002ED104B000000
0000005F81D2000000
0000000AFB70000000
000006BCFFCB500000
00008F70DB09F60000
0003FC00DB01DE1000
000CF300DB005F9000
007FA000EC000CF500
3DFF303DFFC105FFC2
ENDCHAR
STARTCHAR uni046B
ENCODING 1131
SWIDTH 667 0
DWIDTH 12 0
BBX 14 9 -1 0
BITMAP
001EFCBBBDA000
0004F8001C2000
00008F40950000
00000BE6A00000
00005AFFA50000
0006F3BB3F6000
001EA0BB0AE100
009F20BB02F900
2AFA07FF70AFA2
ENDCHAR
STARTCHAR uni0472
ENCODING 1138
SWIDTH 737 0
DWIDTH 13 0
BBX 13 12 0 0
BITMAP
00039CBCB50000
006F70004EA000
03F9000005F700
0AF2000000CE00
0ED1BE80009F30
1FC33BFB229F50
1FC0008FF68F40
0EE0000110AF30
0AF2000000DD00
03F9000005F600
006F70004E8000
0003ACBBB40000
ENDCHAR
STARTCHAR uni0473
ENCODING 1139
SWIDTH 514 0
DWIDTH 9 0
BBX 9 9 0 0
BITMAP
005CCD9100
07D201BC00
1E70003F50
4F7B921F80
6F507C6F90
5F50001F80
1F90004F40
08E300BA00
007DCC8000
ENDCHAR
STARTCHAR uni0474
ENCODING 1140
SWIDTH 705 0
DWIDTH 13 0
BBX 15 12 -1 0
BITMAP
2DFFE7000009EB00
00CF7000005FFF10
004FB00000C51300
000CF20003D00000
0006F80008700000
0000EE000D100000
00008F504A000000
00002FB094000000
00000AF2C0000000
000004FC80000000
000000CF20000000
0000006B00000000
ENDCHAR
STARTCHAR uni0475
ENCODING 1141
SWIDTH 520 0
DWIDTH 9 0
BBX 11 9 -1 0
BITMAP
3EFF60009E80
01EB0005EFB0
009E100B4110
004F601C0000
000DB0670000
0007F2B10000
0001F8A00000
0000AE500000
00004E000000
ENDCHAR
STARTCHAR uni0490
ENCODING 1168
SWIDTH 525 0
DWIDTH 9 0
BBX 10 15 0 0
BITMAP
0000000055
0000000085
00000004E4
2AFFDDDDD3
00AF100000
009F100000
009F100000
009F100000
009F100000
009F100000
009F100000
009F100000
009F100000
00BF300000
2DFFEB0000
ENDCHAR
STARTCHAR uni0491
ENCODING 1169
SWIDTH 404 0
DWIDTH 7 0
BBX 8 12 0 0
BITMAP
00000032
00000093
000002E2
3CFCAAA1
03F50000
02F50000
02F50000
02F50000
02F50000
02F50000
03F60000
5EFFA000
ENDCHAR
STARTCHAR uni1D00
ENCODING 7424
SWIDTH 511 0
DWIDTH 9 0
BBX 11 9 -1 0
BITMAP
00002F400000
00008EA00000
0001A8F20000
000642F80000
000A00BE0000
004DBBDF5000
00A2001EB000
02C0000AF400
4EF7006EFE50
ENDCHAR
STARTCHAR uni1D07
ENCODING 7431
SWIDTH 495 0
DWIDTH 9 0
BBX 9 9 0 0
BITMAP
3CFCBBDC00
03F5000B00
02F5000400
02F5009000
02FCACB000
02F5009000
02F5000330
03F5000B20
3BFCAADF00
ENDCHAR
STARTCHAR uni1D1C
ENCODING 7452
SWIDTH 584 0
DWIDTH 11 0
BBX 11 9 0 0
BITMAP
8EFE602DFD30
07F30001E100
05F20000C000
05F20000C000
05F20000C000
05F20000C000
04F30000B000
01E900066000
003BCBB70000
ENDCHAR
STARTCHAR uni1D81
ENCODING 7553
SWIDTH 539 0
DWIDTH 10 0
BBX 10 17 0 -4
BITMAP
000005BE00
000001AF00
0000008F00
0000008F00
004BCCCF00
05E301DF00
0E70008F00
4F40008F00
6F30008F00
5F30008F00
3F60008F00
0CD100AF00
02BEA9AE92
0000000084
0000000093
00000690B1
000004DC70
ENDCHAR
STARTCHAR uni1D84
ENCODING 7556
SWIDTH 542 0
DWIDTH 10 0
BBX 10 17 0 -4
BITMAP
4AE4000000
05F4000000
03F4000000
03F4000000
03F40AFFC1
03F403E400
03F43B2000
03F7C10000
03FCF60000
03F49F4000
03F40BE300
04F501CE30
5EFE73EFF8
000000001B
0000000029
000001C247
000000ADA1
ENDCHAR
STARTCHAR uni1D85
ENCODING 7557
SWIDTH 283 0
DWIDTH 5 0
BBX 5 17 0 -4
BITMAP
3AE400
16F400
03F400
03F400
03F400
03F400
03F400
03F400
03F400
03F400
03F400
04F600
5EFE80
0002A0
000290
1D2560
0BCA10
ENDCHAR
STARTCHAR uni1D8A
ENCODING 7562
SWIDTH 395 0
DWIDTH 7 0
BBX 7 13 0 -4
BITMAP
05BBBB10
2F201E10
3F400810
1DF81000
02BFE500
0005DF40
45001F90
4C001E60
4BBBBD20
00000A20
00000A10
00870B00
005EB500
ENDCHAR
STARTCHAR uni1D8D
ENCODING 7565
SWIDTH 479 0
DWIDTH 9 0
BBX 9 13 0 -4
BITMAP
AFFD17FF50
07F501D200
00BD194000
002EB70000
0008F50000
002BAE1000
01C21EB000
0A6006F700
DFC01DFF90
00000002A0
0000000290
00001D2560
00000BCA10
ENDCHAR
STARTCHAR uni1D8E
ENCODING 7566
SWIDTH 458 0
DWIDTH 8 0
BBX 8 13 0 -4
BITMAP
1FDBBDF7
2C000DD1
25008F40
0003F900
000CE100
007F5000
02FA0019
0CE10078
5FEBBDF7
00000057
00000056
0003B083
0001CC80
ENDCHAR
STARTCHAR uni1D98
ENCODING 7576
SWIDTH 368 0
DWIDTH 7 0
BBX 9 17 0 -4
BITMAP
00003ADD30
0000D31D70
0004F20000
0006F10000
0006F10000
0006F10000
0006F10000
0006F10000
0006F10000
0006F10000
0006F10000
A907D00000
CDBB400000
C000000000
B100000000
843C000000
1AD9000000
ENDCHAR
STARTCHAR uni1D9B
ENCODING 7579
SWIDTH 462 0
DWIDTH 8 0
BBX 8 7 0 5
BITMAP
6D98EE80
0BC427F5
0B9000D9
0B9000BA
0B9000C7
0BB003E1
0A9BAA20
ENDCHAR
STARTCHAR uni1DA3
ENCODING 7587
SWIDTH 488 0
DWIDTH 9 0
BBX 9 10 0 2
BITMAP
5EF71AFB20
08C001F400
08C001F400
08C001F400
08D001F400
05F418F400
00AEC4F400
000001F400
000001F400
000001FB30
ENDCHAR
STARTCHAR uni1E00
ENCODING 7680
SWIDTH 718 0
DWIDTH 13 0
BBX 13 17 0 -5
BITMAP
000003E0000000
00000AF6000000
00001CDC000000
0000867F400000
0000D12FB00000
0005900AF20000
000C2004F90000
003EBBBBFE1000
00A600007F7000
02D000001FE000
09A000000CF700
CFFA0000CFFFB0
00000000000000
00003BB3000000
0000B21B000000
0000B21C000000
00003BB3000000
ENDCHAR
STARTCHAR uni1E01
ENCODING 7681
SWIDTH 480 0
DWIDTH 9 0
BBX 9 14 0 -5
BITMAP
019BDB2000
0BB01DA000
0D800AD000
010009E000
0038ACE000
08D309E000
3F5009E000
3F701AE010
09EB64EA30
0000000000
002AB40000
00941C0000
00941C0000
002BB50000
ENDCHAR
STARTCHAR uni1E02
ENCODING 7682
SWIDTH 618 0
DWIDTH 11 0
BBX 11 15 0 0
BITMAP
00008F300000
00007E200000
000000000000
3AFFCCDC7000
00AF1007F800
009F1000ED00
009F1000EC00
009F1007F500
009FBCFC3000
009F1017E600
009F10009F30
009F10006F70
009F10008F60
00BF1003ED10
3BFFCCCD8100
ENDCHAR
STARTCHAR uni1E03
ENCODING 7683
SWIDTH 522 0
DWIDTH 9 0
BBX 9 16 0 0
BITMAP
0004F60000
0004E50000
0000000000
6BE0000000
2AE0000000
08E0000000
08E0000000
08E49CD500
08F6009F20
08E0002F80
08E0000FB0
08E0000EB0
08E0000F90
08E0003F40
08F300AA00
03BEBB7000
ENDCHAR
STARTCHAR uni1E04
ENCODING 7684
SWIDTH 618 0
DWIDTH 11 0
BBX 11 15 0 -3
BITMAP
3AFFCCDC7000
00AF1007F800
009F1000ED00
009F1000EC00
009F1007F500
009FBCFC3000
009F1017E600
009F10009F30
009F10006F70
009F10008F60
00BF1003ED10
3BFFCCCD8100
000001000000
00008F300000
00007E200000
ENDCHAR
STARTCHAR uni1E05
ENCODING 7685
SWIDTH 522 0
DWIDTH 9 0
BBX 9 16 0 -3
BITMAP
6BE0000000
2AE0000000
08E0000000
08E0000000
08E49CD500
08F6009F20
08E0002F80
08E0000FB0
08E0000EB0
08E0000F90
08E0003F40
08F300AA00
03BEBB7000
0000100000
0005F60000
0004E50000
ENDCHAR
STARTCHAR uni1E06
ENCODING 7686
SWIDTH 618 0
DWIDTH 11 0
BBX 11 15 0 -3
BITMAP
3AFFCCDC7000
00AF1007F800
009F1000ED00
009F1000EC00
009F1007F500
009FBCFC3000
009F1017E600
009F10009F30
009F10006F70
009F10008F60
00BF1003ED10
3BFFCCCD8100
000000000000
000000000000
003BBBBA0000
ENDCHAR
STARTCHAR uni1E07
ENCODING 7687
SWIDTH 522 0
DWIDTH 9 0
BBX 9 16 0 -3
BITMAP
6BE0000000
2AE0000000
08E0000000
08E0000000
08E49CD500
08F6009F20
08E0002F80
08E0000FB0
08E0000EB0
08E0000F90
08E0003F40
08F300AA00
03BEBB7000
0000000000
0000000000
01BBBBB200
ENDCHAR
STARTCHAR uni1E08
ENCODING 7688
SWIDTH 670 0
DWIDTH 12 0
BBX 12 20 0 -4
BITMAP
000000286000
000000CC2000
000009800000
000000000000
00029CBDFFF0
005E80003DF0
03F9000003F0
09F2000000C0
0ED000000000
1FC000000000
1FC000000000
0ED000000000
0AF200000000
03FA00000032
006F910006A0
0003ADCBA500
000003400000
000006C90000
0000001F1000
000019C70000
ENDCHAR
STARTCHAR uni1E09
ENCODING 7689
SWIDTH 446 0
DWIDTH 8 0
BBX 8 17 0 -4
BITMAP
00009E20
0001E500
00077000
00000000
006CCD70
07B109F4
1E4002B3
4F100000
6F100000
5F300000
2F900004
0AF734B2
01AEFC30
00035000
0005CA00
00000E20
0019C900
ENDCHAR
STARTCHAR uni1E0A
ENCODING 7690
SWIDTH 730 0
DWIDTH 13 0
BBX 13 15 0 0
BITMAP
00000AE1000000
000009D1000000
00000000000000
3AFFCCDC930000
00AF1003BF7000
009F10000AF500
009F100002FC00
009F100000CF10
009F100000AF30
009F100000AF30
009F100000CF10
009F100001FC00
009F100008F500
00AF10018F7000
3AFFCCCC930000
ENDCHAR
STARTCHAR uni1E0B
ENCODING 7691
SWIDTH 539 0
DWIDTH 10 0
BBX 10 16 0 0
BITMAP
0001EA0000
0001DA0000
0000000000
000005BE00
000001AF00
0000008F00
0000008F00
004BCCCF00
05E301DF00
0E70008F00
4F40008F00
6F30008F00
5F30008F00
3F60008F00
0CD100AF00
02BEA9AE81
ENDCHAR
STARTCHAR uni1E0C
ENCODING 7692
SWIDTH 730 0
DWIDTH 13 0
BBX 13 15 0 -3
BITMAP
3AFFCCDC930000
00AF1003BF7000
009F10000AF500
009F100002FC00
009F100000CF10
009F100000AF30
009F100000AF30
009F100000CF10
009F100001FC00
009F100008F500
00AF10018F7000
3AFFCCCC930000
00000100000000
00002EA0000000
00001D90000000
ENDCHAR
STARTCHAR uni1E0D
ENCODING 7693
SWIDTH 539 0
DWIDTH 10 0
BBX 10 16 0 -3
BITMAP
000005BE00
000001AF00
0000008F00
0000008F00
004BCCCF00
05E301DF00
0E70008F00
4F40008F00
6F30008F00
5F30008F00
3F60008F00
0CD100AF00
02BEA9AE81
0000100000
0001EB0000
0001DA0000
ENDCHAR
STARTCHAR uni1E0E
ENCODING 7694
SWIDTH 730 0
DWIDTH 13 0
BBX 13 15 0 -3
BITMAP
3AFFCCDC930000
00AF1003BF7000
009F10000AF500
009F100002FC00
009F100000CF10
009F100000AF30
009F100000AF30
009F100000CF10
009F100001FC00
009F100008F500
00AF10018F7000
3AFFCCCC930000
00000000000000
00000000000000
0009BBBB500000
ENDCHAR
STARTCHAR uni1E0F
ENCODING 7695
SWIDTH 539 0
DWIDTH 10 0
BBX 10 16 0 -3
BITMAP
000005BE00
000001AF00
0000008F00
0000008F00
004BCCCF00
05E301DF00
0E70008F00
4F40008F00
6F30008F00
5F30008F00
3F60008F00
0CD100AF00
02BEA9AE81
0000000000
0000000000
009BBBB500
ENDCHAR
STARTCHAR uni1E10
ENCODING 7696
SWIDTH 730 0
DWIDTH 13 0
BBX 13 17 0 -5
BITMAP
3AFFCCDC930000
00AF1003BF7000
009F10000AF500
009F100002FC00
009F100000CF10
009F100000AF30
009F100000AF30
009F100000CF10
009F100001FC00
009F100008F500
00AF10018F7000
3AFFCCCC930000
00000000000000
00003EA0000000
00003EF0000000
000001C0000000
00001A30000000
ENDCHAR
STARTCHAR uni1E11
ENCODING 7697
SWIDTH 539 0
DWIDTH 10 0
BBX 10 18 0 -5
BITMAP
000005BE00
000001AF00
0000008F00
0000008F00
004BCCCF00
05E301DF00
0E70008F00
4F40008F00
6F30008F00
5F30008F00
3F60008F00
0CD100AF00
02BEA9AE81
0000000000
0002EB0000
0002EF0000
00001C0000
0001A30000
ENDCHAR
STARTCHAR uni1E12
ENCODING 7698
SWIDTH 730 0
DWIDTH 13 0
BBX 13 16 0 -4
BITMAP
3AFFCCDC930000
00AF1003BF7000
009F10000AF500
009F100002FC00
009F100000CF10
009F100000AF30
009F100000AF30
009F100000CF10
009F100001FC00
009F100008F500
00AF10018F7000
3AFFCCCC930000
00000000000000
00002FB0000000
0000B7C5000000
0006701B100000
ENDCHAR
STARTCHAR uni1E13
ENCODING 7699
SWIDTH 539 0
DWIDTH 10 0
BBX 10 17 0 -4
BITMAP
000005BE00
000001AF00
0000008F00
0000008F00
004BCCCF00
05E301DF00
0E70008F00
4F40008F00
6F30008F00
5F30008F00
3F60008F00
0CD100AF00
02BEA9AE81
0000000000
0002EB0000
000B7B6000
005701A200
ENDCHAR
STARTCHAR uni1E14
ENCODING 7700
SWIDTH 626 0
DWIDTH 11 0
BBX 11 18 0 0
BITMAP
000186000000
00007F600000
000003C30000
000000000000
000ABBBB5000
000000000000
3AFFCCCDEF20
00AF10001B20
009F10000310
009F10009000
009F1003B000
009FBBCEB000
009F1001A000
009F10000010
009F100000A0
009F10000590
00AF10002C70
3AFFCCCDFF50
ENDCHAR
STARTCHAR uni1E15
ENCODING 7701
SWIDTH 464 0
DWIDTH 8 0
BBX 8 16 0 0
BITMAP
006F4000
0009B000
0000B200
00000000
00000000
03BBBBB0
00000000
007BCC40
089008E2
1F3001F8
4FCBBBD9
6F200000
4F400000
1FB00005
08FA33A4
007DFD40
ENDCHAR
STARTCHAR uni1E16
ENCODING 7702
SWIDTH 626 0
DWIDTH 11 0
BBX 11 18 0 0
BITMAP
000002850000
00000CC20000
000098000000
000000000000
000ABBBB5000
000000000000
3AFFCCCDEF20
00AF10001B20
009F10000310
009F10009000
009F1003B000
009FBBCEB000
009F1001A000
009F10000010
009F100000A0
009F10000590
00AF10002C70
3AFFCCCDFF50
ENDCHAR
STARTCHAR uni1E17
ENCODING 7703
SWIDTH 464 0
DWIDTH 8 0
BBX 8 16 0 0
BITMAP
00009F30
0001E500
00068000
00000000
00000000
03BBBBB0
00000000
007BCC40
089008E2
1F3001F8
4FCBBBD9
6F200000
4F400000
1FB00005
08FA33A4
007DFD40
ENDCHAR
STARTCHAR uni1E18
ENCODING 7704
SWIDTH 626 0
DWIDTH 11 0
BBX 11 16 0 -4
BITMAP
3AFFCCCDEF20
00AF10001B20
009F10000310
009F10009000
009F1003B000
009FBBCEB000
009F1001A000
009F10000010
009F100000A0
009F10000590
00AF10002C70
3AFFCCCDFF50
000000000000
00003FA00000
0000C7C50000
0007601B1000
ENDCHAR
STARTCHAR uni1E19
ENCODING 7705
SWIDTH 464 0
DWIDTH 8 0
BBX 8 13 0 -4
BITMAP
007BCC40
089008E2
1F3001F8
4FCBBBD9
6F200000
4F400000
1FB00005
08FA33A4
007DFD40
00000000
0008F400
003D6D10
00B20480
ENDCHAR
STARTCHAR uni1E1A
ENCODING 7706
SWIDTH 626 0
DWIDTH 11 0
BBX 11 15 0 -3
BITMAP
3AFFCCCDEF20
00AF10001B20
009F10000310
009F10009000
009F1003B000
009FBBCEB000
009F1001A000
009F10000010
009F100000A0
009F10000590
00AF10002C70
3AFFCCCDFF50
000000000000
0006CA445000
001606CA1000
ENDCHAR
STARTCHAR uni1E1B
ENCODING 7707
SWIDTH 464 0
DWIDTH 8 0
BBX 8 12 0 -3
BITMAP
007BCC40
089008E2
1F3001F8
4FCBBBD9
6F200000
4F400000
1FB00005
08FA33A4
007DFD40
00000000
01AC7381
0612AC60
ENDCHAR
STARTCHAR uni1E1C
ENCODING 7708
SWIDTH 626 0
DWIDTH 11 0
BBX 11 21 0 -4
BITMAP
000100001000
000900055000
0008501B1000
00018BB40000
000000000000
3AFFCCCDEF20
00AF10001B20
009F10000310
009F10009000
009F1003B000
009FBBCEB000
009F1001A000
009F10000010
009F100000A0
009F10000590
00AF10002C70
3AFFCCCDFF50
000008000000
00000CC30000
000000980000
00006BB20000
ENDCHAR
STARTCHAR uni1E1D
ENCODING 7709
SWIDTH 464 0
DWIDTH 8 0
BBX 8 18 0 -4
BITMAP
00000010
03600090
00A10380
003AB910
00000000
007BCC40
089008E2
1F3001F8
4FCBBBD9
6F200000
4F400000
1FB00005
08FA33A4
007DFD40
00043000
0006C900
00001F00
0019C600
ENDCHAR
STARTCHAR uni1E1E
ENCODING 7710
SWIDTH 588 0
DWIDTH 11 0
BBX 11 15 0 0
BITMAP
00001EA00000
00001DA00000
000000000000
3AFFDDDDEF40
00BF10001A40
009F10000220
009F1000A000
009F1003A000
009FBBCFA000
009F1001A000
009F10000000
009F10000000
009F10000000
00BF30000000
4DFFEB000000
ENDCHAR
STARTCHAR uni1E1F
ENCODING 7711
SWIDTH 307 0
DWIDTH 6 0
BBX 7 16 0 0
BITMAP
03F80000
02E70000
00000000
001ADE60
00B60A90
01F50000
02F50000
6CFDB600
02F50000
02F50000
02F50000
02F50000
02F50000
02F50000
04F70000
8EFFC200
ENDCHAR
STARTCHAR uni1E20
ENCODING 7712
SWIDTH 720 0
DWIDTH 13 0
BBX 13 14 0 0
BITMAP
0000ABBBB50000
00000000000000
00029CBDFFF000
005E70003CF000
02E9000002F000
09F2000000C000
0ED00000000000
1FC00000000000
1FC00001CDDD40
0EE000000BF400
0BF2000008F200
04F9000008F200
008F81002CF100
0004ADCBC82000
ENDCHAR
STARTCHAR uni1E21
ENCODING 7713
SWIDTH 484 0
DWIDTH 9 0
BBX 9 15 0 -4
BITMAP
03BBBBB000
0000000000
019CDFEB60
0AC009F200
0F8003F600
0F9003F500
0AE208D100
01BBBA2000
0A50000000
2F93210000
09FFFFFA00
0A10003D50
7C00000940
8F30004A00
1AECA96000
ENDCHAR
STARTCHAR uni1E22
ENCODING 7714
SWIDTH 777 0
DWIDTH 14 0
BBX 14 15 0 0
BITMAP
000000CD000000
000000BC000000
00000000000000
4DFFE9009EFFD4
00BF200002FB00
009F100001F900
009F100001F900
009F100001F900
009FBBBBBBF900
009F100001F900
009F100001F900
009F100001F900
009F100001F900
00BF200002FB00
4CFFE9009EFFC4
ENDCHAR
STARTCHAR uni1E23
ENCODING 7715
SWIDTH 577 0
DWIDTH 10 0
BBX 10 16 0 0
BITMAP
00009E2000
00008E2000
0000000000
4AE4000000
16F4000000
03F4000000
03F4000000
03F57AE900
03FB103F50
03F4000E90
03F4000CA0
03F4000CA0
03F4000CA0
03F4000CA0
04F6000DB0
5EFE71DFFC
ENDCHAR
STARTCHAR uni1E24
ENCODING 7716
SWIDTH 777 0
DWIDTH 14 0
BBX 14 15 0 -3
BITMAP
4DFFE9009EFFD4
00BF200002FB00
009F100001F900
009F100001F900
009F100001F900
009FBBBBBBF900
009F100001F900
009F100001F900
009F100001F900
009F100001F900
00BF200002FB00
4CFFE9009EFFC4
00000000000000
000000DD000000
000000CC000000
ENDCHAR
STARTCHAR uni1E25
ENCODING 7717
SWIDTH 577 0
DWIDTH 10 0
BBX 10 16 0 -3
BITMAP
4AE4000000
16F4000000
03F4000000
03F4000000
03F57AE900
03FB103F50
03F4000E90
03F4000CA0
03F4000CA0
03F4000CA0
03F4000CA0
04F6000DB0
5EFE71DFFC
0000010000
00009F2000
00008E2000
ENDCHAR
STARTCHAR uni1E26
ENCODING 7718
SWIDTH 777 0
DWIDTH 14 0
BBX 14 15 0 0
BITMAP
0000CD00CC0000
0000BC00CC0000
00000000000000
4DFFE9009EFFD4
00BF200002FB00
009F100001F900
009F100001F900
009F100001F900
009FBBBBBBF900
009F100001F900
009F100001F900
009F100001F900
009F100001F900
00BF200002FB00
4CFFE9009EFFC4
ENDCHAR
STARTCHAR uni1E27
ENCODING 7719
SWIDTH 577 0
DWIDTH 10 0
BBX 10 16 0 0
BITMAP
008E209E20
008E208E20
0000000000
4AE4000000
16F4000000
03F4000000
03F4000000
03F57AE900
03FB103F50
03F4000E90
03F4000CA0
03F4000CA0
03F4000CA0
03F4000CA0
04F6000DB0
5EFE71DFFC
ENDCHAR
STARTCHAR uni1E28
ENCODING 7720
SWIDTH 777 0
DWIDTH 14 0
BBX 14 16 0 -4
BITMAP
4DFFE9009EFFD4
00BF200002FB00
009F100001F900
009F100001F900
009F100001F900
009FBBBBBBF900
009F100001F900
009F100001F900
009F100001F900
009F100001F900
00BF200002FB00
4CFFE9009EFFC4
00610000000000
008C7000000000
0003D000000000
02AC5000000000
ENDCHAR
STARTCHAR uni1E29
ENCODING 7721
SWIDTH 577 0
DWIDTH 10 0
BBX 10 17 0 -4
BITMAP
4AE4000000
16F4000000
03F4000000
03F4000000
03F57AE900
03FB103F50
03F4000E90
03F4000CA0
03F4000CA0
03F4000CA0
03F4000CA0
04F6000DB0
5EFE71DFFC
0260000000
04CA000000
000E200000
09C8000000
ENDCHAR
STARTCHAR uni1E2A
ENCODING 7722
SWIDTH 777 0
DWIDTH 14 0
BBX 14 16 0 -4
BITMAP
4DFFE9009EFFD4
00BF200002FB00
009F100001F900
009F100001F900
009F100001F900
009FBBBBBBF900
009F100001F900
009F100001F900
009F100001F900
009F100001F900
00BF200002FB00
4CFFE9009EFFC4
00001000010000
00008100180000
00004800830000
000006BB600000
ENDCHAR
STARTCHAR uni1E2B
ENCODING 7723
SWIDTH 577 0
DWIDTH 10 0
BBX 10 17 0 -4
BITMAP
4AE4000000
16F4000000
03F4000000
03F4000000
03F57AE900
03FB103F50
03F4000E90
03F4000CA0
03F4000CA0
03F4000CA0
03F4000CA0
04F6000DB0
5EFE71DFFC
0010000100
0044000900
001A104700
0004BB8000
ENDCHAR
STARTCHAR uni1E2C
ENCODING 7724
SWIDTH 357 0
DWIDTH 6 0
BBX 6 15 0 -3
BITMAP
4DFFE9
00BF20
009F10
009F00
009F00
009F00
009F00
009F00
009F00
009F10
00BF20
4DFFE9
000000
2AC638
602AC4
ENDCHAR
STARTCHAR uni1E2D
ENCODING 7725
SWIDTH 285 0
DWIDTH 5 0
BBX 7 15 -1 -3
BITMAP
003E6000
004F7000
00010000
03AE5000
004F5000
002F5000
002F5000
002F5000
002F5000
002F5000
004F6000
05EFE700
00000000
08C93630
3418C800
ENDCHAR
STARTCHAR uni1E2E
ENCODING 7726
SWIDTH 357 0
DWIDTH 6 0
BBX 7 19 0 0
BITMAP
00068100
006F7000
02C30000
00000000
9E209E20
8E209E10
00000000
4DFFE900
00BF2000
009F1000
009F0000
009F0000
009F0000
009F0000
009F0000
009F0000
009F1000
00BF2000
4DFFE900
ENDCHAR
STARTCHAR uni1E2F
ENCODING 7727
SWIDTH 285 0
DWIDTH 5 0
BBX 6 16 -1 0
BITMAP
000AE2
002F40
008600
000000
5E50BC
5F50CD
000000
03AE50
004F50
002F50
002F50
002F50
002F50
002F50
004F60
05EFE7
ENDCHAR
STARTCHAR uni1E30
ENCODING 7728
SWIDTH 702 0
DWIDTH 13 0
BBX 13 16 0 0
BITMAP
00000058200000
000004F8000000
00001C40000000
00000000000000
4DFFE908FFF900
00BF2000CC2000
009F1006B10000
009F006A000000
009F0790000000
009F8B00000000
009FAF70000000
009F19F8000000
009F008F900000
009F1008F90000
00BF2000CFA100
4DFFE908EFFE60
ENDCHAR
STARTCHAR uni1E31
ENCODING 7729
SWIDTH 542 0
DWIDTH 10 0
BBX 10 17 0 0
BITMAP
0000177000
0000AD3000
0007A10000
0000000000
4AE4000000
05F4000000
03F4000000
03F4000000
03F40AFFC1
03F403E400
03F43B2000
03F7C10000
03FCF60000
03F49F4000
03F40BE300
04F501CE30
5EFE73EFF8
ENDCHAR
STARTCHAR uni1E32
ENCODING 7730
SWIDTH 702 0
DWIDTH 13 0
BBX 13 15 0 -3
BITMAP
4DFFE908FFF900
00BF2000CC2000
009F1006B10000
009F006A000000
009F0790000000
009F8B00000000
009FAF70000000
009F19F8000000
009F008F900000
009F1008F90000
00BF2000CFA100
4DFFE908EFFE60
00000010000000
000008F4000000
000007E3000000
ENDCHAR
STARTCHAR uni1E33
ENCODING 7731
SWIDTH 542 0
DWIDTH 10 0
BBX 10 16 0 -3
BITMAP
4AE4000000
05F4000000
03F4000000
03F4000000
03F40AFFC1
03F403E400
03F43B2000
03F7C10000
03FCF60000
03F49F4000
03F40BE300
04F501CE30
5EFE73EFF8
0000100000
0001EC0000
0000DA0000
ENDCHAR
STARTCHAR uni1E34
ENCODING 7732
SWIDTH 702 0
DWIDTH 13 0
BBX 13 15 0 -3
BITMAP
4DFFE908FFF900
00BF2000CC2000
009F1006B10000
009F006A000000
009F0790000000
009F8B00000000
009FAF70000000
009F19F8000000
009F008F900000
009F1008F90000
00BF2000CFA100
4DFFE908EFFE60
00000000000000
00000000000000
0003BBBBB00000
ENDCHAR
STARTCHAR uni1E35
ENCODING 7733
SWIDTH 542 0
DWIDTH 10 0
BBX 10 16 0 -3
BITMAP
4AE4000000
05F4000000
03F4000000
03F4000000
03F40AFFC1
03F403E400
03F43B2000
03F7C10000
03FCF60000
03F49F4000
03F40BE300
04F501CE30
5EFE73EFF8
0000000000
0000000000
008BBBB600
ENDCHAR
STARTCHAR uni1E36
ENCODING 7734
SWIDTH 585 0
DWIDTH 11 0
BBX 11 15 0 -3
BITMAP
3DFFE9000000
00BF40000000
009F10000000
009F10000000
009F10000000
009F10000000
009F10000000
009F10000000
009F10000410
009F10000B10
00AF10006E00
29FFDBBDFB00
000001000000
0000AF200000
00008E200000
ENDCHAR
STARTCHAR uni1E37
ENCODING 7735
SWIDTH 283 0
DWIDTH 5 0
BBX 5 16 0 -3
BITMAP
3AE400
16F400
03F400
03F400
03F400
03F400
03F400
03F400
03F400
03F400
03F400
04F600
5EFE80
001000
05F600
04E500
ENDCHAR
STARTCHAR uni1E38
ENCODING 7736
SWIDTH 585 0
DWIDTH 11 0
BBX 11 17 0 -3
BITMAP
4BBBBA000000
000000000000
3DFFE9000000
00BF40000000
009F10000000
009F10000000
009F10000000
009F10000000
009F10000000
009F10000000
009F10000410
009F10000B10
00AF10006E00
29FFDBBDFB00
000001000000
0000AF200000
00008E200000
ENDCHAR
STARTCHAR uni1E39
ENCODING 7737
SWIDTH 283 0
DWIDTH 5 0
BBX 7 18 -1 -3
BITMAP
1BBBBB20
00000000
03AE4000
016F4000
003F4000
003F4000
003F4000
003F4000
003F4000
003F4000
003F4000
003F4000
003F4000
004F6000
05EFE800
00010000
005F6000
004E5000
ENDCHAR
STARTCHAR uni1E3A
ENCODING 7738
SWIDTH 585 0
DWIDTH 11 0
BBX 11 15 0 -3
BITMAP
3DFFE9000000
00BF40000000
009F10000000
009F10000000
009F10000000
009F10000000
009F10000000
009F10000000
009F10000410
009F10000B10
00AF10006E00
29FFDBBDFB00
000000000000
000000000000
004BBBBA0000
ENDCHAR
STARTCHAR uni1E3B
ENCODING 7739
SWIDTH 283 0
DWIDTH 5 0
BBX 7 16 -1 -3
BITMAP
03AE4000
016F4000
003F4000
003F4000
003F4000
003F4000
003F4000
003F4000
003F4000
003F4000
003F4000
004F6000
05EFE800
00000000
00000000
1BBBBB10
ENDCHAR
STARTCHAR uni1E3C
ENCODING 7740
SWIDTH 585 0
DWIDTH 11 0
BBX 11 16 0 -4
BITMAP
3DFFE9000000
00BF40000000
009F10000000
009F10000000
009F10000000
009F10000000
009F10000000
009F10000000
009F10000410
009F10000B10
00AF10006E00
29FFDBBDFB00
000000000000
0000AF300000
0005C7C00000
001B10670000
ENDCHAR
STARTCHAR uni1E3D
ENCODING 7741
SWIDTH 283 0
DWIDTH 5 0
BBX 5 17 0 -4
BITMAP
3AE400
16F400
03F400
03F400
03F400
03F400
03F400
03F400
03F400
03F400
03F400
04F600
5EFE80
000000
06F600
2D6D20
A303A0
ENDCHAR
STARTCHAR uni1E3E
ENCODING 7742
SWIDTH 895 0
DWIDTH 16 0
BBX 16 16 0 0
BITMAP
0000000186000000
0000000BD3000000
0000008910000000
0000000000000000
5DFF60000005FFD3
01DFD000000CFD00
00CCF400003DEB00
00C6FA000097DB00
00C1DF2001E1DB00
00C16F800690DB00
00C11EE00D30DB00
00C108F54C00DB00
00C102FBA500DB00
00C200AFD000DB00
00E4003F7001ED00
6DFE800C106DFFD3
ENDCHAR
STARTCHAR uni1E3F
ENCODING 7743
SWIDTH 852 0
DWIDTH 15 0
BBX 15 13 0 0
BITMAP
00000003F8000000
00000009B0000000
0000001C10000000
0000000000000000
3AE57AEA17AEA000
03FC204FD303F600
02F5000F8000E900
02F5000F8000D900
02F5000F8000D900
02F5000F8000D900
02F5000F8000D900
03F6001F9001EB00
5EFE84DFFB2DFFB0
ENDCHAR
STARTCHAR uni1E40
ENCODING 7744
SWIDTH 895 0
DWIDTH 16 0
BBX 16 15 0 0
BITMAP
0000001EA0000000
0000001DA0000000
0000000000000000
5DFF60000005FFD3
01DFD000000CFD00
00CCF400003DEB00
00C6FA000097DB00
00C1DF2001E1DB00
00C16F800690DB00
00C11EE00D30DB00
00C108F54C00DB00
00C102FBA500DB00
00C200AFD000DB00
00E4003F7001ED00
6DFE800C106DFFD3
ENDCHAR
STARTCHAR uni1E41
ENCODING 7745
SWIDTH 852 0
DWIDTH 15 0
BBX 15 13 0 0
BITMAP
0000000100000000
0000002F90000000
0000002E80000000
0000000000000000
3AE57AEA17AEA000
03FC204FD303F600
02F5000F8000E900
02F5000F8000D900
02F5000F8000D900
02F5000F8000D900
02F5000F8000D900
03F6001F9001EB00
5EFE84DFFB2DFFB0
ENDCHAR
STARTCHAR uni1E42
ENCODING 7746
SWIDTH 895 0
DWIDTH 16 0
BBX 16 15 0 -3
BITMAP
5DFF60000005FFD3
01DFD000000CFD00
00CCF400003DEB00
00C6FA000097DB00
00C1DF2001E1DB00
00C16F800690DB00
00C11EE00D30DB00
00C108F54C00DB00
00C102FBA500DB00
00C200AFD000DB00
00E4003F7001ED00
6DFE800C106DFFD3
0000000100000000
0000004F70000000
0000003E60000000
ENDCHAR
STARTCHAR uni1E43
ENCODING 7747
SWIDTH 852 0
DWIDTH 15 0
BBX 15 12 0 -3
BITMAP
3AE57AEA17AEA000
03FC204FD303F600
02F5000F8000E900
02F5000F8000D900
02F5000F8000D900
02F5000F8000D900
02F5000F8000D900
03F6001F9001EB00
5EFE84DFFB2DFFB0
0000000100000000
0000002F90000000
0000002E80000000
ENDCHAR
STARTCHAR uni1E44
ENCODING 7748
SWIDTH 742 0
DWIDTH 13 0
BBX 13 15 0 0
BITMAP
000002E9000000
000001E8000000
00000000000000
6EFD10004DFFB0
02EFB00000D700
00CEF70000A400
00C4EF4000A400
00C15FE100A400
00C108FB00A400
00C100BF80A400
00C1001DF4A400
00C10003EEC400
00C200005FF400
00E4000008F400
6DFE900000B400
ENDCHAR
STARTCHAR uni1E45
ENCODING 7749
SWIDTH 576 0
DWIDTH 10 0
BBX 10 13 0 0
BITMAP
0000010000
00007F4000
00006E4000
0000000000
3AE57AE900
03FB203F50
02F5000E90
02F5000DA0
02F5000DA0
02F5000DA0
02F5000DA0
04F6000EB0
5EFE82DFFC
ENDCHAR
STARTCHAR uni1E46
ENCODING 7750
SWIDTH 742 0
DWIDTH 13 0
BBX 13 15 0 -3
BITMAP
6EFD10004DFFB0
02EFB00000D700
00CEF70000A400
00C4EF4000A400
00C15FE100A400
00C108FB00A400
00C100BF80A400
00C1001DF4A400
00C10003EEC400
00C200005FF400
00E4000008F400
6DFE900000B400
00000010000000
000007F4000000
000006E4000000
ENDCHAR
STARTCHAR uni1E47
ENCODING 7751
SWIDTH 576 0
DWIDTH 10 0
BBX 10 12 0 -3
BITMAP
3AE57AE900
03FB203F50
02F5000E90
02F5000DA0
02F5000DA0
02F5000DA0
02F5000DA0
04F6000EB0
5EFE82DFFC
0000010000
0000AF2000
00008E2000
ENDCHAR
STARTCHAR uni1E48
ENCODING 7752
SWIDTH 742 0
DWIDTH 13 0
BBX 13 15 0 -3
BITMAP
6EFD10004DFFB0
02EFB00000D700
00CEF70000A400
00C4EF4000A400
00C15FE100A400
00C108FB00A400
00C100BF80A400
00C1001DF4A400
00C10003EEC400
00C200005FF400
00E4000008F400
6DFE900000B400
00000000000000
00000000000000
0002BBBBB00000
ENDCHAR
STARTCHAR uni1E49
ENCODING 7753
SWIDTH 576 0
DWIDTH 10 0
BBX 10 12 0 -3
BITMAP
3AE57AE900
03FB203F50
02F5000E90
02F5000DA0
02F5000DA0
02F5000DA0
02F5000DA0
04F6000EB0
5EFE82DFFC
0000000000
0000000000
004BBBBA00
ENDCHAR
STARTCHAR uni1E4A
ENCODING 7754
SWIDTH 742 0
DWIDTH 13 0
BBX 13 16 0 -4
BITMAP
6EFD10004DFFB0
02EFB00000D700
00CEF70000A400
00C4EF4000A400
00C15FE100A400
00C108FB00A400
00C100BF80A400
00C1001DF4A400
00C10003EEC400
00C200005FF400
00E4000008F400
6DFE900000B400
00000000000000
000007F5000000
00002D6D100000
0000A204900000
ENDCHAR
STARTCHAR uni1E4B
ENCODING 7755
SWIDTH 576 0
DWIDTH 10 0
BBX 10 13 0 -4
BITMAP
3AE57AE900
03FB203F50
02F5000E90
02F5000DA0
02F5000DA0
02F5000DA0
02F5000DA0
04F6000EB0
5EFE82DFFC
0000000000
0000AF3000
0005C7C000
001B106700
ENDCHAR
STARTCHAR uni1E4C
ENCODING 7756
SWIDTH 738 0
DWIDTH 13 0
BBX 12 18 1 0
BITMAP
000003850000
00001DB20000
0000A7000000
0006CA436000
001606CA1000
000000000000
0039CBCB5000
05F70005EA00
3F9000006F70
9F2000000DE0
EE0000000AF4
FD00000008F5
FD00000008F5
EE00000009F3
AF3000000DD0
3F9000004F60
06F70003D900
003ACBBB5000
ENDCHAR
STARTCHAR uni1E4D
ENCODING 7757
SWIDTH 514 0
DWIDTH 9 0
BBX 9 16 0 0
BITMAP
00003F7000
0000AA0000
0001C10000
0000000000
005CA43600
00705CB100
0000000000
006CCD9100
07E201CC00
1F80005F50
4F50002F80
6F40000F90
4F50001F80
1F90004F40
08E300AB00
007DCC8100
ENDCHAR
STARTCHAR uni1E4E
ENCODING 7758
SWIDTH 738 0
DWIDTH 13 0
BBX 12 17 1 0
BITMAP
003F703F7000
003E703E6000
0006CA436000
001606CA1000
000000000000
0039CBCB5000
05F70005EA00
3F9000006F70
9F2000000DE0
EE0000000AF4
FD00000008F5
FD00000008F5
EE00000009F3
AF3000000DD0
3F9000004F60
06F70003D900
003ACBBB5000
ENDCHAR
STARTCHAR uni1E4F
ENCODING 7759
SWIDTH 514 0
DWIDTH 9 0
BBX 9 14 0 0
BITMAP
02E903F800
02E802E700
005CA43600
00705CB100
0000000000
006CCD9100
07E201CC00
1F80005F50
4F50002F80
6F40000F90
4F50001F80
1F90004F40
08E300AB00
007DCC8100
ENDCHAR
STARTCHAR uni1E50
ENCODING 7760
SWIDTH 738 0
DWIDTH 13 0
BBX 12 18 1 0
BITMAP
000285000000
00008F400000
000004C10000
000000000000
000BBBBB3000
000000000000
0039CBCB5000
05F70005EA00
3F9000006F70
9F2000000DE0
EE0000000AF4
FD00000008F5
FD00000008F5
EE00000009F3
AF3000000DD0
3F9000004F60
06F70003D900
003ACBBB5000
ENDCHAR
STARTCHAR uni1E51
ENCODING 7761
SWIDTH 514 0
DWIDTH 9 0
BBX 9 16 0 0
BITMAP
002E900000
0004E10000
0000770000
0000000000
0000000000
00ABBBB400
0000000000
006CCD9100
07E201CC00
1F80005F50
4F50002F80
6F40000F90
4F50001F80
1F90004F40
08E300AB00
007DCC8100
ENDCHAR
STARTCHAR uni1E52
ENCODING 7762
SWIDTH 738 0
DWIDTH 13 0
BBX 12 18 1 0
BITMAP
000003850000
00001DB20000
0000A7000000
000000000000
000BBBBB3000
000000000000
0039CBCB5000
05F70005EA00
3F9000006F70
9F2000000DE0
EE0000000AF4
FD00000008F5
FD00000008F5
EE00000009F3
AF3000000DD0
3F9000004F60
06F70003D900
003ACBBB5000
ENDCHAR
STARTCHAR uni1E53
ENCODING 7763
SWIDTH 514 0
DWIDTH 9 0
BBX 9 16 0 0
BITMAP
00003F7000
0000AA0000
0001C10000
0000000000
0000000000
00ABBBB400
0000000000
006CCD9100
07E201CC00
1F80005F50
4F50002F80
6F40000F90
4F50001F80
1F90004F40
08E300AB00
007DCC8100
ENDCHAR
STARTCHAR uni1E54
ENCODING 7764
SWIDTH 569 0
DWIDTH 10 0
BBX 10 16 0 0
BITMAP
0000068200
00005F7000
0002C30000
0000000000
1AFFCCDA50
00AF101AF5
009F1002FB
009F1000FB
009F1002F8
009F102BD1
009FBBB610
009F100000
009F100000
009F100000
00BF300000
2CFFEA0000
ENDCHAR
STARTCHAR uni1E55
ENCODING 7765
SWIDTH 537 0
DWIDTH 10 0
BBX 9 17 0 -4
BITMAP
00001FA000
00007C1000
0000C20000
0000000000
39E48BE700
05F9005F60
04F3000DC0
04F3000AF0
04F30009F0
04F3000AD0
04F3000D80
04FA007D10
04FBDCA200
04F3000000
04F3000000
06F5000000
7EFFB00000
ENDCHAR
STARTCHAR uni1E56
ENCODING 7766
SWIDTH 569 0
DWIDTH 10 0
BBX 10 15 0 0
BITMAP
00009E2000
00008E2000
0000000000
1AFFCCDA50
00AF101AF5
009F1002FB
009F1000FB
009F1002F8
009F102BD1
009FBBB610
009F100000
009F100000
009F100000
00BF300000
2CFFEA0000
ENDCHAR
STARTCHAR uni1E57
ENCODING 7767
SWIDTH 537 0
DWIDTH 10 0
BBX 9 16 0 -4
BITMAP
0001EB0000
0001DA0000
0000000000
39E48BE700
05F9005F60
04F3000DC0
04F3000AF0
04F30009F0
04F3000AD0
04F3000D80
04FA007D10
04FBDCA200
04F3000000
04F3000000
06F5000000
7EFFB00000
ENDCHAR
STARTCHAR uni1E58
ENCODING 7768
SWIDTH 659 0
DWIDTH 12 0
BBX 12 15 0 0
BITMAP
00004F700000
00003E600000
000000000000
2AFFCBDB5000
00AF101AF500
009F1002FB00
009F1000FC00
009F1003F900
009F104DC100
009FBEE50000
009F13FB0000
009F107F9000
009F100BF600
00BF2002EE30
2CFFEA005FFC
ENDCHAR
STARTCHAR uni1E59
ENCODING 7769
SWIDTH 380 0
DWIDTH 7 0
BBX 7 13 0 0
BITMAP
00010000
006F5000
005E4000
00000000
29D46E80
16F99D90
02F90000
02F50000
02F50000
02F50000
02F50000
03F70000
6EFFC000
ENDCHAR
STARTCHAR uni1E5A
ENCODING 7770
SWIDTH 659 0
DWIDTH 12 0
BBX 12 15 0 -3
BITMAP
2AFFCBDB5000
00AF101AF500
009F1002FB00
009F1000FC00
009F1003F900
009F104DC100
009FBEE50000
009F13FB0000
009F107F9000
009F100BF600
00BF2002EE30
2CFFEA005FFC
000000000000
00000DD00000
00000CB00000
ENDCHAR
STARTCHAR uni1E5B
ENCODING 7771
SWIDTH 380 0
DWIDTH 7 0
BBX 7 12 0 -3
BITMAP
29D46E80
16F99D90
02F90000
02F50000
02F50000
02F50000
02F50000
03F70000
6EFFC000
00100000
02F90000
02E80000
ENDCHAR
STARTCHAR uni1E5C
ENCODING 7772
SWIDTH 659 0
DWIDTH 12 0
BBX 12 17 0 -3
BITMAP
000BBBBB3000
000000000000
2AFFCBDB5000
00AF101AF500
009F1002FB00
009F1000FC00
009F1003F900
009F104DC100
009FBEE50000
009F13FB0000
009F107F9000
009F100BF600
00BF2002EE30
2CFFEA005FFC
000000000000
00000DD00000
00000CB00000
ENDCHAR
STARTCHAR uni1E5D
ENCODING 7773
SWIDTH 380 0
DWIDTH 7 0
BBX 7 14 0 -3
BITMAP
2BBBBB10
00000000
29D46E80
16F99D90
02F90000
02F50000
02F50000
02F50000
02F50000
03F70000
6EFFC000
00100000
02F90000
02E80000
ENDCHAR
STARTCHAR uni1E5E
ENCODING 7774
SWIDTH 659 0
DWIDTH 12 0
BBX 12 15 0 -3
BITMAP
2AFFCBDB5000
00AF101AF500
009F1002FB00
009F1000FC00
009F1003F900
009F104DC100
009FBEE50000
009F13FB0000
009F107F9000
009F100BF600
00BF2002EE30
2CFFEA005FFC
000000000000
000000000000
0007BBBB7000
ENDCHAR
STARTCHAR uni1E5F
ENCODING 7775
SWIDTH 380 0
DWIDTH 7 0
BBX 7 12 0 -3
BITMAP
29D46E80
16F99D90
02F90000
02F50000
02F50000
02F50000
02F50000
03F70000
6EFFC000
00000000
00000000
ABBBB400
ENDCHAR
STARTCHAR uni1E60
ENCODING 7776
SWIDTH 504 0
DWIDTH 9 0
BBX 9 15 0 0
BITMAP
0004F60000
0003E60000
0000000000
019CCEFC00
0BB001BD00
1F70002D00
1FC1000A00
09FD400000
008FFA2000
0003CFE500
000006FF20
5500007F70
5A00004F60
4F60009E10
3FFDCCA200
ENDCHAR
STARTCHAR uni1E61
ENCODING 7777
SWIDTH 394 0
DWIDTH 7 0
BBX 7 13 0 0
BITMAP
00010000
004F7000
004E6000
00000000
05CBCB10
2F202E10
3F400810
1DF71000
02BFD400
0004DF40
45001F90
4C101E70
4ACBC800
ENDCHAR
STARTCHAR uni1E62
ENCODING 7778
SWIDTH 504 0
DWIDTH 9 0
BBX 9 15 0 -3
BITMAP
019CCEFC00
0BB001BD00
1F70002D00
1FC1000A00
09FD400000
008FFA2000
0003CFE500
000006FF20
5500007F70
5A00004F60
4F60009E10
3FFDCCA200
0000100000
0007F40000
0006E30000
ENDCHAR
STARTCHAR uni1E63
ENCODING 7779
SWIDTH 394 0
DWIDTH 7 0
BBX 7 12 0 -3
BITMAP
05CBCB10
2F202E10
3F400810
1DF71000
02BFD400
0004DF40
45001F90
4C101E70
4ACBC800
00010000
006F5000
005E4000
ENDCHAR
STARTCHAR uni1E64
ENCODING 7780
SWIDTH 504 0
DWIDTH 9 0
BBX 9 16 0 0
BITMAP
0036048300
009F4E9100
0014C50000
0000000000
019CCEFC00
0BB001BD00
1F70002D00
1FC1000A00
09FD400000
008FFA2000
0003CFE500
000006FF20
5500007F70
5A00004F60
4F60009E10
3FFDCCA200
ENDCHAR
STARTCHAR uni1E65
ENCODING 7781
SWIDTH 394 0
DWIDTH 7 0
BBX 7 14 0 0
BITMAP
02710000
07F7FA00
0168C100
000C2000
00000000
05CBCB10
2F202E10
3F400810
1DF71000
02BFD400
0004DF40
45001F90
4C101E70
4ACBC800
ENDCHAR
STARTCHAR uni1E66
ENCODING 7782
SWIDTH 504 0
DWIDTH 9 0
BBX 9 17 0 0
BITMAP
0002F60000
0062C56000
004C4B6000
0007F90000
0000000000
019CCEFC00
0BB001BD00
1F70002D00
1FC1000A00
09FD400000
008FFA2000
0003CFE500
000006FF20
5500007F70
5A00004F60
4F60009E10
3FFDCCA200
ENDCHAR
STARTCHAR uni1E67
ENCODING 7783
SWIDTH 394 0
DWIDTH 7 0
BBX 7 14 0 0
BITMAP
00172000
099FAA00
01DBE200
005F7000
00000000
05CBCB10
2F202E10
3F400810
1DF71000
02BFD400
0004DF40
45001F90
4C101E70
4ACBC800
ENDCHAR
ENDFONT
